%TF.GenerationSoftware,KiCad,Pcbnew,8.0.8*%
%TF.CreationDate,2026-01-01T17:30:43-08:00*%
%TF.ProjectId,navien,6e617669-656e-42e6-9b69-6361645f7063,rev?*%
%TF.SameCoordinates,Original*%
%TF.FileFunction,Legend,Top*%
%TF.FilePolarity,Positive*%
%FSLAX46Y46*%
G04 Gerber Fmt 4.6, Leading zero omitted, Abs format (unit mm)*
G04 Created by KiCad (PCBNEW 8.0.8) date 2026-01-01 17:30:43*
%MOMM*%
%LPD*%
G01*
G04 APERTURE LIST*
G04 Aperture macros list*
%AMRoundRect*
0 Rectangle with rounded corners*
0 $1 Rounding radius*
0 $2 $3 $4 $5 $6 $7 $8 $9 X,Y pos of 4 corners*
0 Add a 4 corners polygon primitive as box body*
4,1,4,$2,$3,$4,$5,$6,$7,$8,$9,$2,$3,0*
0 Add four circle primitives for the rounded corners*
1,1,$1+$1,$2,$3*
1,1,$1+$1,$4,$5*
1,1,$1+$1,$6,$7*
1,1,$1+$1,$8,$9*
0 Add four rect primitives between the rounded corners*
20,1,$1+$1,$2,$3,$4,$5,0*
20,1,$1+$1,$4,$5,$6,$7,0*
20,1,$1+$1,$6,$7,$8,$9,0*
20,1,$1+$1,$8,$9,$2,$3,0*%
G04 Aperture macros list end*
%ADD10C,0.120000*%
%ADD11C,0.150000*%
%ADD12C,0.254000*%
%ADD13C,0.100000*%
%ADD14C,0.000000*%
%ADD15C,0.152400*%
%ADD16C,0.508000*%
%ADD17C,1.524000*%
%ADD18R,1.100000X0.600000*%
%ADD19RoundRect,0.250000X0.450000X-0.350000X0.450000X0.350000X-0.450000X0.350000X-0.450000X-0.350000X0*%
%ADD20R,4.495800X1.295400*%
%ADD21R,2.709601X1.803400*%
%ADD22R,2.709601X1.851698*%
%ADD23RoundRect,0.250000X-0.350000X-0.450000X0.350000X-0.450000X0.350000X0.450000X-0.350000X0.450000X0*%
%ADD24RoundRect,0.250000X-0.337500X-0.475000X0.337500X-0.475000X0.337500X0.475000X-0.337500X0.475000X0*%
%ADD25R,1.460500X0.558800*%
%ADD26R,1.700000X1.700000*%
%ADD27O,1.700000X1.700000*%
%ADD28R,2.000000X2.000000*%
%ADD29O,2.000000X1.600000*%
%ADD30RoundRect,0.250000X0.425000X-0.537500X0.425000X0.537500X-0.425000X0.537500X-0.425000X-0.537500X0*%
%ADD31C,2.500000*%
%ADD32RoundRect,0.250000X0.537500X0.425000X-0.537500X0.425000X-0.537500X-0.425000X0.537500X-0.425000X0*%
%ADD33RoundRect,0.250000X0.337500X0.475000X-0.337500X0.475000X-0.337500X-0.475000X0.337500X-0.475000X0*%
%ADD34RoundRect,0.250000X0.350000X0.450000X-0.350000X0.450000X-0.350000X-0.450000X0.350000X-0.450000X0*%
%ADD35R,2.000000X1.905000*%
%ADD36O,2.000000X1.905000*%
%ADD37RoundRect,0.150000X-0.587500X-0.150000X0.587500X-0.150000X0.587500X0.150000X-0.587500X0.150000X0*%
%ADD38RoundRect,0.150000X-0.150000X0.587500X-0.150000X-0.587500X0.150000X-0.587500X0.150000X0.587500X0*%
%ADD39RoundRect,0.250000X-0.450000X0.350000X-0.450000X-0.350000X0.450000X-0.350000X0.450000X0.350000X0*%
G04 APERTURE END LIST*
D10*
X36745613Y3785745D02*
X36745613Y3214317D01*
X36745613Y3214317D02*
X36712280Y3100031D01*
X36712280Y3100031D02*
X36645613Y3023840D01*
X36645613Y3023840D02*
X36545613Y2985745D01*
X36545613Y2985745D02*
X36478947Y2985745D01*
X37412280Y2985745D02*
X37078946Y2985745D01*
X37078946Y2985745D02*
X37078946Y3785745D01*
X38045613Y3061936D02*
X38012280Y3023840D01*
X38012280Y3023840D02*
X37912280Y2985745D01*
X37912280Y2985745D02*
X37845613Y2985745D01*
X37845613Y2985745D02*
X37745613Y3023840D01*
X37745613Y3023840D02*
X37678947Y3100031D01*
X37678947Y3100031D02*
X37645613Y3176221D01*
X37645613Y3176221D02*
X37612280Y3328602D01*
X37612280Y3328602D02*
X37612280Y3442888D01*
X37612280Y3442888D02*
X37645613Y3595269D01*
X37645613Y3595269D02*
X37678947Y3671460D01*
X37678947Y3671460D02*
X37745613Y3747650D01*
X37745613Y3747650D02*
X37845613Y3785745D01*
X37845613Y3785745D02*
X37912280Y3785745D01*
X37912280Y3785745D02*
X38012280Y3747650D01*
X38012280Y3747650D02*
X38045613Y3709555D01*
X38545613Y3785745D02*
X38545613Y3214317D01*
X38545613Y3214317D02*
X38512280Y3100031D01*
X38512280Y3100031D02*
X38445613Y3023840D01*
X38445613Y3023840D02*
X38345613Y2985745D01*
X38345613Y2985745D02*
X38278947Y2985745D01*
X39212280Y2985745D02*
X38878946Y2985745D01*
X38878946Y2985745D02*
X38878946Y3785745D01*
X39845613Y3061936D02*
X39812280Y3023840D01*
X39812280Y3023840D02*
X39712280Y2985745D01*
X39712280Y2985745D02*
X39645613Y2985745D01*
X39645613Y2985745D02*
X39545613Y3023840D01*
X39545613Y3023840D02*
X39478947Y3100031D01*
X39478947Y3100031D02*
X39445613Y3176221D01*
X39445613Y3176221D02*
X39412280Y3328602D01*
X39412280Y3328602D02*
X39412280Y3442888D01*
X39412280Y3442888D02*
X39445613Y3595269D01*
X39445613Y3595269D02*
X39478947Y3671460D01*
X39478947Y3671460D02*
X39545613Y3747650D01*
X39545613Y3747650D02*
X39645613Y3785745D01*
X39645613Y3785745D02*
X39712280Y3785745D01*
X39712280Y3785745D02*
X39812280Y3747650D01*
X39812280Y3747650D02*
X39845613Y3709555D01*
X40345613Y3785745D02*
X40345613Y3214317D01*
X40345613Y3214317D02*
X40312280Y3100031D01*
X40312280Y3100031D02*
X40245613Y3023840D01*
X40245613Y3023840D02*
X40145613Y2985745D01*
X40145613Y2985745D02*
X40078947Y2985745D01*
X41012280Y2985745D02*
X40678946Y2985745D01*
X40678946Y2985745D02*
X40678946Y3785745D01*
X41645613Y3061936D02*
X41612280Y3023840D01*
X41612280Y3023840D02*
X41512280Y2985745D01*
X41512280Y2985745D02*
X41445613Y2985745D01*
X41445613Y2985745D02*
X41345613Y3023840D01*
X41345613Y3023840D02*
X41278947Y3100031D01*
X41278947Y3100031D02*
X41245613Y3176221D01*
X41245613Y3176221D02*
X41212280Y3328602D01*
X41212280Y3328602D02*
X41212280Y3442888D01*
X41212280Y3442888D02*
X41245613Y3595269D01*
X41245613Y3595269D02*
X41278947Y3671460D01*
X41278947Y3671460D02*
X41345613Y3747650D01*
X41345613Y3747650D02*
X41445613Y3785745D01*
X41445613Y3785745D02*
X41512280Y3785745D01*
X41512280Y3785745D02*
X41612280Y3747650D01*
X41612280Y3747650D02*
X41645613Y3709555D01*
X42145613Y3785745D02*
X42145613Y3214317D01*
X42145613Y3214317D02*
X42112280Y3100031D01*
X42112280Y3100031D02*
X42045613Y3023840D01*
X42045613Y3023840D02*
X41945613Y2985745D01*
X41945613Y2985745D02*
X41878947Y2985745D01*
X42812280Y2985745D02*
X42478946Y2985745D01*
X42478946Y2985745D02*
X42478946Y3785745D01*
X43445613Y3061936D02*
X43412280Y3023840D01*
X43412280Y3023840D02*
X43312280Y2985745D01*
X43312280Y2985745D02*
X43245613Y2985745D01*
X43245613Y2985745D02*
X43145613Y3023840D01*
X43145613Y3023840D02*
X43078947Y3100031D01*
X43078947Y3100031D02*
X43045613Y3176221D01*
X43045613Y3176221D02*
X43012280Y3328602D01*
X43012280Y3328602D02*
X43012280Y3442888D01*
X43012280Y3442888D02*
X43045613Y3595269D01*
X43045613Y3595269D02*
X43078947Y3671460D01*
X43078947Y3671460D02*
X43145613Y3747650D01*
X43145613Y3747650D02*
X43245613Y3785745D01*
X43245613Y3785745D02*
X43312280Y3785745D01*
X43312280Y3785745D02*
X43412280Y3747650D01*
X43412280Y3747650D02*
X43445613Y3709555D01*
D11*
X36589160Y8401170D02*
X36589160Y9201170D01*
X36589160Y9201170D02*
X37046303Y8401170D01*
X37046303Y8401170D02*
X37046303Y9201170D01*
X37770112Y8401170D02*
X37770112Y8820218D01*
X37770112Y8820218D02*
X37732017Y8896408D01*
X37732017Y8896408D02*
X37655826Y8934504D01*
X37655826Y8934504D02*
X37503445Y8934504D01*
X37503445Y8934504D02*
X37427255Y8896408D01*
X37770112Y8439265D02*
X37693921Y8401170D01*
X37693921Y8401170D02*
X37503445Y8401170D01*
X37503445Y8401170D02*
X37427255Y8439265D01*
X37427255Y8439265D02*
X37389159Y8515456D01*
X37389159Y8515456D02*
X37389159Y8591646D01*
X37389159Y8591646D02*
X37427255Y8667837D01*
X37427255Y8667837D02*
X37503445Y8705932D01*
X37503445Y8705932D02*
X37693921Y8705932D01*
X37693921Y8705932D02*
X37770112Y8744027D01*
X38074874Y8934504D02*
X38265350Y8401170D01*
X38265350Y8401170D02*
X38455827Y8934504D01*
X38760589Y8401170D02*
X38760589Y8934504D01*
X38760589Y9201170D02*
X38722493Y9163075D01*
X38722493Y9163075D02*
X38760589Y9124980D01*
X38760589Y9124980D02*
X38798684Y9163075D01*
X38798684Y9163075D02*
X38760589Y9201170D01*
X38760589Y9201170D02*
X38760589Y9124980D01*
X39446303Y8439265D02*
X39370112Y8401170D01*
X39370112Y8401170D02*
X39217731Y8401170D01*
X39217731Y8401170D02*
X39141541Y8439265D01*
X39141541Y8439265D02*
X39103445Y8515456D01*
X39103445Y8515456D02*
X39103445Y8820218D01*
X39103445Y8820218D02*
X39141541Y8896408D01*
X39141541Y8896408D02*
X39217731Y8934504D01*
X39217731Y8934504D02*
X39370112Y8934504D01*
X39370112Y8934504D02*
X39446303Y8896408D01*
X39446303Y8896408D02*
X39484398Y8820218D01*
X39484398Y8820218D02*
X39484398Y8744027D01*
X39484398Y8744027D02*
X39103445Y8667837D01*
X39827255Y8934504D02*
X39827255Y8401170D01*
X39827255Y8858313D02*
X39865350Y8896408D01*
X39865350Y8896408D02*
X39941540Y8934504D01*
X39941540Y8934504D02*
X40055826Y8934504D01*
X40055826Y8934504D02*
X40132017Y8896408D01*
X40132017Y8896408D02*
X40170112Y8820218D01*
X40170112Y8820218D02*
X40170112Y8401170D01*
X41160589Y8401170D02*
X41160589Y8934504D01*
X41160589Y8782123D02*
X41198684Y8858313D01*
X41198684Y8858313D02*
X41236779Y8896408D01*
X41236779Y8896408D02*
X41312970Y8934504D01*
X41312970Y8934504D02*
X41389160Y8934504D01*
X41617731Y8439265D02*
X41693922Y8401170D01*
X41693922Y8401170D02*
X41846303Y8401170D01*
X41846303Y8401170D02*
X41922493Y8439265D01*
X41922493Y8439265D02*
X41960589Y8515456D01*
X41960589Y8515456D02*
X41960589Y8553551D01*
X41960589Y8553551D02*
X41922493Y8629742D01*
X41922493Y8629742D02*
X41846303Y8667837D01*
X41846303Y8667837D02*
X41732017Y8667837D01*
X41732017Y8667837D02*
X41655827Y8705932D01*
X41655827Y8705932D02*
X41617731Y8782123D01*
X41617731Y8782123D02*
X41617731Y8820218D01*
X41617731Y8820218D02*
X41655827Y8896408D01*
X41655827Y8896408D02*
X41732017Y8934504D01*
X41732017Y8934504D02*
X41846303Y8934504D01*
X41846303Y8934504D02*
X41922493Y8896408D01*
X42646303Y8934504D02*
X42646303Y8401170D01*
X42455827Y9239265D02*
X42265350Y8667837D01*
X42265350Y8667837D02*
X42760589Y8667837D01*
X43179636Y8858313D02*
X43103446Y8896408D01*
X43103446Y8896408D02*
X43065351Y8934504D01*
X43065351Y8934504D02*
X43027255Y9010694D01*
X43027255Y9010694D02*
X43027255Y9048789D01*
X43027255Y9048789D02*
X43065351Y9124980D01*
X43065351Y9124980D02*
X43103446Y9163075D01*
X43103446Y9163075D02*
X43179636Y9201170D01*
X43179636Y9201170D02*
X43332017Y9201170D01*
X43332017Y9201170D02*
X43408208Y9163075D01*
X43408208Y9163075D02*
X43446303Y9124980D01*
X43446303Y9124980D02*
X43484398Y9048789D01*
X43484398Y9048789D02*
X43484398Y9010694D01*
X43484398Y9010694D02*
X43446303Y8934504D01*
X43446303Y8934504D02*
X43408208Y8896408D01*
X43408208Y8896408D02*
X43332017Y8858313D01*
X43332017Y8858313D02*
X43179636Y8858313D01*
X43179636Y8858313D02*
X43103446Y8820218D01*
X43103446Y8820218D02*
X43065351Y8782123D01*
X43065351Y8782123D02*
X43027255Y8705932D01*
X43027255Y8705932D02*
X43027255Y8553551D01*
X43027255Y8553551D02*
X43065351Y8477361D01*
X43065351Y8477361D02*
X43103446Y8439265D01*
X43103446Y8439265D02*
X43179636Y8401170D01*
X43179636Y8401170D02*
X43332017Y8401170D01*
X43332017Y8401170D02*
X43408208Y8439265D01*
X43408208Y8439265D02*
X43446303Y8477361D01*
X43446303Y8477361D02*
X43484398Y8553551D01*
X43484398Y8553551D02*
X43484398Y8705932D01*
X43484398Y8705932D02*
X43446303Y8782123D01*
X43446303Y8782123D02*
X43408208Y8820218D01*
X43408208Y8820218D02*
X43332017Y8858313D01*
X44208208Y9201170D02*
X43827256Y9201170D01*
X43827256Y9201170D02*
X43789160Y8820218D01*
X43789160Y8820218D02*
X43827256Y8858313D01*
X43827256Y8858313D02*
X43903446Y8896408D01*
X43903446Y8896408D02*
X44093922Y8896408D01*
X44093922Y8896408D02*
X44170113Y8858313D01*
X44170113Y8858313D02*
X44208208Y8820218D01*
X44208208Y8820218D02*
X44246303Y8744027D01*
X44246303Y8744027D02*
X44246303Y8553551D01*
X44246303Y8553551D02*
X44208208Y8477361D01*
X44208208Y8477361D02*
X44170113Y8439265D01*
X44170113Y8439265D02*
X44093922Y8401170D01*
X44093922Y8401170D02*
X43903446Y8401170D01*
X43903446Y8401170D02*
X43827256Y8439265D01*
X43827256Y8439265D02*
X43789160Y8477361D01*
X37046303Y7189406D02*
X37008207Y7151310D01*
X37008207Y7151310D02*
X36893922Y7113215D01*
X36893922Y7113215D02*
X36817731Y7113215D01*
X36817731Y7113215D02*
X36703445Y7151310D01*
X36703445Y7151310D02*
X36627255Y7227501D01*
X36627255Y7227501D02*
X36589160Y7303691D01*
X36589160Y7303691D02*
X36551064Y7456072D01*
X36551064Y7456072D02*
X36551064Y7570358D01*
X36551064Y7570358D02*
X36589160Y7722739D01*
X36589160Y7722739D02*
X36627255Y7798930D01*
X36627255Y7798930D02*
X36703445Y7875120D01*
X36703445Y7875120D02*
X36817731Y7913215D01*
X36817731Y7913215D02*
X36893922Y7913215D01*
X36893922Y7913215D02*
X37008207Y7875120D01*
X37008207Y7875120D02*
X37046303Y7837025D01*
X37503445Y7113215D02*
X37427255Y7151310D01*
X37427255Y7151310D02*
X37389160Y7189406D01*
X37389160Y7189406D02*
X37351064Y7265596D01*
X37351064Y7265596D02*
X37351064Y7494168D01*
X37351064Y7494168D02*
X37389160Y7570358D01*
X37389160Y7570358D02*
X37427255Y7608453D01*
X37427255Y7608453D02*
X37503445Y7646549D01*
X37503445Y7646549D02*
X37617731Y7646549D01*
X37617731Y7646549D02*
X37693922Y7608453D01*
X37693922Y7608453D02*
X37732017Y7570358D01*
X37732017Y7570358D02*
X37770112Y7494168D01*
X37770112Y7494168D02*
X37770112Y7265596D01*
X37770112Y7265596D02*
X37732017Y7189406D01*
X37732017Y7189406D02*
X37693922Y7151310D01*
X37693922Y7151310D02*
X37617731Y7113215D01*
X37617731Y7113215D02*
X37503445Y7113215D01*
X38112970Y7646549D02*
X38112970Y7113215D01*
X38112970Y7570358D02*
X38151065Y7608453D01*
X38151065Y7608453D02*
X38227255Y7646549D01*
X38227255Y7646549D02*
X38341541Y7646549D01*
X38341541Y7646549D02*
X38417732Y7608453D01*
X38417732Y7608453D02*
X38455827Y7532263D01*
X38455827Y7532263D02*
X38455827Y7113215D01*
X38722494Y7646549D02*
X39027256Y7646549D01*
X38836780Y7913215D02*
X38836780Y7227501D01*
X38836780Y7227501D02*
X38874875Y7151310D01*
X38874875Y7151310D02*
X38951065Y7113215D01*
X38951065Y7113215D02*
X39027256Y7113215D01*
X39293923Y7113215D02*
X39293923Y7646549D01*
X39293923Y7494168D02*
X39332018Y7570358D01*
X39332018Y7570358D02*
X39370113Y7608453D01*
X39370113Y7608453D02*
X39446304Y7646549D01*
X39446304Y7646549D02*
X39522494Y7646549D01*
X39903446Y7113215D02*
X39827256Y7151310D01*
X39827256Y7151310D02*
X39789161Y7189406D01*
X39789161Y7189406D02*
X39751065Y7265596D01*
X39751065Y7265596D02*
X39751065Y7494168D01*
X39751065Y7494168D02*
X39789161Y7570358D01*
X39789161Y7570358D02*
X39827256Y7608453D01*
X39827256Y7608453D02*
X39903446Y7646549D01*
X39903446Y7646549D02*
X40017732Y7646549D01*
X40017732Y7646549D02*
X40093923Y7608453D01*
X40093923Y7608453D02*
X40132018Y7570358D01*
X40132018Y7570358D02*
X40170113Y7494168D01*
X40170113Y7494168D02*
X40170113Y7265596D01*
X40170113Y7265596D02*
X40132018Y7189406D01*
X40132018Y7189406D02*
X40093923Y7151310D01*
X40093923Y7151310D02*
X40017732Y7113215D01*
X40017732Y7113215D02*
X39903446Y7113215D01*
X40627256Y7113215D02*
X40551066Y7151310D01*
X40551066Y7151310D02*
X40512971Y7227501D01*
X40512971Y7227501D02*
X40512971Y7913215D01*
X41046304Y7113215D02*
X40970114Y7151310D01*
X40970114Y7151310D02*
X40932019Y7227501D01*
X40932019Y7227501D02*
X40932019Y7913215D01*
X41655829Y7151310D02*
X41579638Y7113215D01*
X41579638Y7113215D02*
X41427257Y7113215D01*
X41427257Y7113215D02*
X41351067Y7151310D01*
X41351067Y7151310D02*
X41312971Y7227501D01*
X41312971Y7227501D02*
X41312971Y7532263D01*
X41312971Y7532263D02*
X41351067Y7608453D01*
X41351067Y7608453D02*
X41427257Y7646549D01*
X41427257Y7646549D02*
X41579638Y7646549D01*
X41579638Y7646549D02*
X41655829Y7608453D01*
X41655829Y7608453D02*
X41693924Y7532263D01*
X41693924Y7532263D02*
X41693924Y7456072D01*
X41693924Y7456072D02*
X41312971Y7379882D01*
X42036781Y7113215D02*
X42036781Y7646549D01*
X42036781Y7494168D02*
X42074876Y7570358D01*
X42074876Y7570358D02*
X42112971Y7608453D01*
X42112971Y7608453D02*
X42189162Y7646549D01*
X42189162Y7646549D02*
X42265352Y7646549D01*
X37046303Y5825260D02*
X36779636Y6206213D01*
X36589160Y5825260D02*
X36589160Y6625260D01*
X36589160Y6625260D02*
X36893922Y6625260D01*
X36893922Y6625260D02*
X36970112Y6587165D01*
X36970112Y6587165D02*
X37008207Y6549070D01*
X37008207Y6549070D02*
X37046303Y6472879D01*
X37046303Y6472879D02*
X37046303Y6358594D01*
X37046303Y6358594D02*
X37008207Y6282403D01*
X37008207Y6282403D02*
X36970112Y6244308D01*
X36970112Y6244308D02*
X36893922Y6206213D01*
X36893922Y6206213D02*
X36589160Y6206213D01*
X37693922Y5863355D02*
X37617731Y5825260D01*
X37617731Y5825260D02*
X37465350Y5825260D01*
X37465350Y5825260D02*
X37389160Y5863355D01*
X37389160Y5863355D02*
X37351064Y5939546D01*
X37351064Y5939546D02*
X37351064Y6244308D01*
X37351064Y6244308D02*
X37389160Y6320498D01*
X37389160Y6320498D02*
X37465350Y6358594D01*
X37465350Y6358594D02*
X37617731Y6358594D01*
X37617731Y6358594D02*
X37693922Y6320498D01*
X37693922Y6320498D02*
X37732017Y6244308D01*
X37732017Y6244308D02*
X37732017Y6168117D01*
X37732017Y6168117D02*
X37351064Y6091927D01*
X37998683Y6358594D02*
X38189159Y5825260D01*
X38189159Y5825260D02*
X38379636Y6358594D01*
X39446303Y6625260D02*
X39522493Y6625260D01*
X39522493Y6625260D02*
X39598684Y6587165D01*
X39598684Y6587165D02*
X39636779Y6549070D01*
X39636779Y6549070D02*
X39674874Y6472879D01*
X39674874Y6472879D02*
X39712969Y6320498D01*
X39712969Y6320498D02*
X39712969Y6130022D01*
X39712969Y6130022D02*
X39674874Y5977641D01*
X39674874Y5977641D02*
X39636779Y5901451D01*
X39636779Y5901451D02*
X39598684Y5863355D01*
X39598684Y5863355D02*
X39522493Y5825260D01*
X39522493Y5825260D02*
X39446303Y5825260D01*
X39446303Y5825260D02*
X39370112Y5863355D01*
X39370112Y5863355D02*
X39332017Y5901451D01*
X39332017Y5901451D02*
X39293922Y5977641D01*
X39293922Y5977641D02*
X39255826Y6130022D01*
X39255826Y6130022D02*
X39255826Y6320498D01*
X39255826Y6320498D02*
X39293922Y6472879D01*
X39293922Y6472879D02*
X39332017Y6549070D01*
X39332017Y6549070D02*
X39370112Y6587165D01*
X39370112Y6587165D02*
X39446303Y6625260D01*
X40208208Y6625260D02*
X40284398Y6625260D01*
X40284398Y6625260D02*
X40360589Y6587165D01*
X40360589Y6587165D02*
X40398684Y6549070D01*
X40398684Y6549070D02*
X40436779Y6472879D01*
X40436779Y6472879D02*
X40474874Y6320498D01*
X40474874Y6320498D02*
X40474874Y6130022D01*
X40474874Y6130022D02*
X40436779Y5977641D01*
X40436779Y5977641D02*
X40398684Y5901451D01*
X40398684Y5901451D02*
X40360589Y5863355D01*
X40360589Y5863355D02*
X40284398Y5825260D01*
X40284398Y5825260D02*
X40208208Y5825260D01*
X40208208Y5825260D02*
X40132017Y5863355D01*
X40132017Y5863355D02*
X40093922Y5901451D01*
X40093922Y5901451D02*
X40055827Y5977641D01*
X40055827Y5977641D02*
X40017731Y6130022D01*
X40017731Y6130022D02*
X40017731Y6320498D01*
X40017731Y6320498D02*
X40055827Y6472879D01*
X40055827Y6472879D02*
X40093922Y6549070D01*
X40093922Y6549070D02*
X40132017Y6587165D01*
X40132017Y6587165D02*
X40208208Y6625260D01*
X41198684Y6625260D02*
X40817732Y6625260D01*
X40817732Y6625260D02*
X40779636Y6244308D01*
X40779636Y6244308D02*
X40817732Y6282403D01*
X40817732Y6282403D02*
X40893922Y6320498D01*
X40893922Y6320498D02*
X41084398Y6320498D01*
X41084398Y6320498D02*
X41160589Y6282403D01*
X41160589Y6282403D02*
X41198684Y6244308D01*
X41198684Y6244308D02*
X41236779Y6168117D01*
X41236779Y6168117D02*
X41236779Y5977641D01*
X41236779Y5977641D02*
X41198684Y5901451D01*
X41198684Y5901451D02*
X41160589Y5863355D01*
X41160589Y5863355D02*
X41084398Y5825260D01*
X41084398Y5825260D02*
X40893922Y5825260D01*
X40893922Y5825260D02*
X40817732Y5863355D01*
X40817732Y5863355D02*
X40779636Y5901451D01*
X36589160Y4537305D02*
X36589160Y5337305D01*
X36589160Y4956353D02*
X37046303Y4956353D01*
X37046303Y4537305D02*
X37046303Y5337305D01*
X37312969Y5337305D02*
X37770112Y5337305D01*
X37541540Y4537305D02*
X37541540Y5337305D01*
X39065350Y4537305D02*
X38608207Y4537305D01*
X38836779Y4537305D02*
X38836779Y5337305D01*
X38836779Y5337305D02*
X38760588Y5223020D01*
X38760588Y5223020D02*
X38684398Y5146829D01*
X38684398Y5146829D02*
X38608207Y5108734D01*
X39408208Y4613496D02*
X39446303Y4575400D01*
X39446303Y4575400D02*
X39408208Y4537305D01*
X39408208Y4537305D02*
X39370112Y4575400D01*
X39370112Y4575400D02*
X39408208Y4613496D01*
X39408208Y4613496D02*
X39408208Y4537305D01*
X40208207Y4537305D02*
X39751064Y4537305D01*
X39979636Y4537305D02*
X39979636Y5337305D01*
X39979636Y5337305D02*
X39903445Y5223020D01*
X39903445Y5223020D02*
X39827255Y5146829D01*
X39827255Y5146829D02*
X39751064Y5108734D01*
X40551065Y4613496D02*
X40589160Y4575400D01*
X40589160Y4575400D02*
X40551065Y4537305D01*
X40551065Y4537305D02*
X40512969Y4575400D01*
X40512969Y4575400D02*
X40551065Y4613496D01*
X40551065Y4613496D02*
X40551065Y4537305D01*
X40893921Y5261115D02*
X40932017Y5299210D01*
X40932017Y5299210D02*
X41008207Y5337305D01*
X41008207Y5337305D02*
X41198683Y5337305D01*
X41198683Y5337305D02*
X41274874Y5299210D01*
X41274874Y5299210D02*
X41312969Y5261115D01*
X41312969Y5261115D02*
X41351064Y5184924D01*
X41351064Y5184924D02*
X41351064Y5108734D01*
X41351064Y5108734D02*
X41312969Y4994448D01*
X41312969Y4994448D02*
X40855826Y4537305D01*
X40855826Y4537305D02*
X41351064Y4537305D01*
X41846303Y5337305D02*
X41922493Y5337305D01*
X41922493Y5337305D02*
X41998684Y5299210D01*
X41998684Y5299210D02*
X42036779Y5261115D01*
X42036779Y5261115D02*
X42074874Y5184924D01*
X42074874Y5184924D02*
X42112969Y5032543D01*
X42112969Y5032543D02*
X42112969Y4842067D01*
X42112969Y4842067D02*
X42074874Y4689686D01*
X42074874Y4689686D02*
X42036779Y4613496D01*
X42036779Y4613496D02*
X41998684Y4575400D01*
X41998684Y4575400D02*
X41922493Y4537305D01*
X41922493Y4537305D02*
X41846303Y4537305D01*
X41846303Y4537305D02*
X41770112Y4575400D01*
X41770112Y4575400D02*
X41732017Y4613496D01*
X41732017Y4613496D02*
X41693922Y4689686D01*
X41693922Y4689686D02*
X41655826Y4842067D01*
X41655826Y4842067D02*
X41655826Y5032543D01*
X41655826Y5032543D02*
X41693922Y5184924D01*
X41693922Y5184924D02*
X41732017Y5261115D01*
X41732017Y5261115D02*
X41770112Y5299210D01*
X41770112Y5299210D02*
X41846303Y5337305D01*
X42417731Y5261115D02*
X42455827Y5299210D01*
X42455827Y5299210D02*
X42532017Y5337305D01*
X42532017Y5337305D02*
X42722493Y5337305D01*
X42722493Y5337305D02*
X42798684Y5299210D01*
X42798684Y5299210D02*
X42836779Y5261115D01*
X42836779Y5261115D02*
X42874874Y5184924D01*
X42874874Y5184924D02*
X42874874Y5108734D01*
X42874874Y5108734D02*
X42836779Y4994448D01*
X42836779Y4994448D02*
X42379636Y4537305D01*
X42379636Y4537305D02*
X42874874Y4537305D01*
X43560589Y5337305D02*
X43408208Y5337305D01*
X43408208Y5337305D02*
X43332017Y5299210D01*
X43332017Y5299210D02*
X43293922Y5261115D01*
X43293922Y5261115D02*
X43217732Y5146829D01*
X43217732Y5146829D02*
X43179636Y4994448D01*
X43179636Y4994448D02*
X43179636Y4689686D01*
X43179636Y4689686D02*
X43217732Y4613496D01*
X43217732Y4613496D02*
X43255827Y4575400D01*
X43255827Y4575400D02*
X43332017Y4537305D01*
X43332017Y4537305D02*
X43484398Y4537305D01*
X43484398Y4537305D02*
X43560589Y4575400D01*
X43560589Y4575400D02*
X43598684Y4613496D01*
X43598684Y4613496D02*
X43636779Y4689686D01*
X43636779Y4689686D02*
X43636779Y4880162D01*
X43636779Y4880162D02*
X43598684Y4956353D01*
X43598684Y4956353D02*
X43560589Y4994448D01*
X43560589Y4994448D02*
X43484398Y5032543D01*
X43484398Y5032543D02*
X43332017Y5032543D01*
X43332017Y5032543D02*
X43255827Y4994448D01*
X43255827Y4994448D02*
X43217732Y4956353D01*
X43217732Y4956353D02*
X43179636Y4880162D01*
X46124019Y19848534D02*
X45647828Y19515201D01*
X46124019Y19277106D02*
X45124019Y19277106D01*
X45124019Y19277106D02*
X45124019Y19658058D01*
X45124019Y19658058D02*
X45171638Y19753296D01*
X45171638Y19753296D02*
X45219257Y19800915D01*
X45219257Y19800915D02*
X45314495Y19848534D01*
X45314495Y19848534D02*
X45457352Y19848534D01*
X45457352Y19848534D02*
X45552590Y19800915D01*
X45552590Y19800915D02*
X45600209Y19753296D01*
X45600209Y19753296D02*
X45647828Y19658058D01*
X45647828Y19658058D02*
X45647828Y19277106D01*
X45124019Y20181868D02*
X45124019Y20800915D01*
X45124019Y20800915D02*
X45504971Y20467582D01*
X45504971Y20467582D02*
X45504971Y20610439D01*
X45504971Y20610439D02*
X45552590Y20705677D01*
X45552590Y20705677D02*
X45600209Y20753296D01*
X45600209Y20753296D02*
X45695447Y20800915D01*
X45695447Y20800915D02*
X45933542Y20800915D01*
X45933542Y20800915D02*
X46028780Y20753296D01*
X46028780Y20753296D02*
X46076400Y20705677D01*
X46076400Y20705677D02*
X46124019Y20610439D01*
X46124019Y20610439D02*
X46124019Y20324725D01*
X46124019Y20324725D02*
X46076400Y20229487D01*
X46076400Y20229487D02*
X46028780Y20181868D01*
X45757142Y28576781D02*
X45423809Y29052972D01*
X45185714Y28576781D02*
X45185714Y29576781D01*
X45185714Y29576781D02*
X45566666Y29576781D01*
X45566666Y29576781D02*
X45661904Y29529162D01*
X45661904Y29529162D02*
X45709523Y29481543D01*
X45709523Y29481543D02*
X45757142Y29386305D01*
X45757142Y29386305D02*
X45757142Y29243448D01*
X45757142Y29243448D02*
X45709523Y29148210D01*
X45709523Y29148210D02*
X45661904Y29100591D01*
X45661904Y29100591D02*
X45566666Y29052972D01*
X45566666Y29052972D02*
X45185714Y29052972D01*
X46709523Y28576781D02*
X46138095Y28576781D01*
X46423809Y28576781D02*
X46423809Y29576781D01*
X46423809Y29576781D02*
X46328571Y29433924D01*
X46328571Y29433924D02*
X46233333Y29338686D01*
X46233333Y29338686D02*
X46138095Y29291067D01*
X47328571Y29576781D02*
X47423809Y29576781D01*
X47423809Y29576781D02*
X47519047Y29529162D01*
X47519047Y29529162D02*
X47566666Y29481543D01*
X47566666Y29481543D02*
X47614285Y29386305D01*
X47614285Y29386305D02*
X47661904Y29195829D01*
X47661904Y29195829D02*
X47661904Y28957734D01*
X47661904Y28957734D02*
X47614285Y28767258D01*
X47614285Y28767258D02*
X47566666Y28672020D01*
X47566666Y28672020D02*
X47519047Y28624400D01*
X47519047Y28624400D02*
X47423809Y28576781D01*
X47423809Y28576781D02*
X47328571Y28576781D01*
X47328571Y28576781D02*
X47233333Y28624400D01*
X47233333Y28624400D02*
X47185714Y28672020D01*
X47185714Y28672020D02*
X47138095Y28767258D01*
X47138095Y28767258D02*
X47090476Y28957734D01*
X47090476Y28957734D02*
X47090476Y29195829D01*
X47090476Y29195829D02*
X47138095Y29386305D01*
X47138095Y29386305D02*
X47185714Y29481543D01*
X47185714Y29481543D02*
X47233333Y29529162D01*
X47233333Y29529162D02*
X47328571Y29576781D01*
X60372666Y18121981D02*
X60372666Y17407696D01*
X60372666Y17407696D02*
X60325047Y17264839D01*
X60325047Y17264839D02*
X60229809Y17169600D01*
X60229809Y17169600D02*
X60086952Y17121981D01*
X60086952Y17121981D02*
X59991714Y17121981D01*
X60753619Y18121981D02*
X61372666Y18121981D01*
X61372666Y18121981D02*
X61039333Y17741029D01*
X61039333Y17741029D02*
X61182190Y17741029D01*
X61182190Y17741029D02*
X61277428Y17693410D01*
X61277428Y17693410D02*
X61325047Y17645791D01*
X61325047Y17645791D02*
X61372666Y17550553D01*
X61372666Y17550553D02*
X61372666Y17312458D01*
X61372666Y17312458D02*
X61325047Y17217220D01*
X61325047Y17217220D02*
X61277428Y17169600D01*
X61277428Y17169600D02*
X61182190Y17121981D01*
X61182190Y17121981D02*
X60896476Y17121981D01*
X60896476Y17121981D02*
X60801238Y17169600D01*
X60801238Y17169600D02*
X60753619Y17217220D01*
X7517733Y18567581D02*
X7184400Y19043772D01*
X6946305Y18567581D02*
X6946305Y19567581D01*
X6946305Y19567581D02*
X7327257Y19567581D01*
X7327257Y19567581D02*
X7422495Y19519962D01*
X7422495Y19519962D02*
X7470114Y19472343D01*
X7470114Y19472343D02*
X7517733Y19377105D01*
X7517733Y19377105D02*
X7517733Y19234248D01*
X7517733Y19234248D02*
X7470114Y19139010D01*
X7470114Y19139010D02*
X7422495Y19091391D01*
X7422495Y19091391D02*
X7327257Y19043772D01*
X7327257Y19043772D02*
X6946305Y19043772D01*
X8374876Y19567581D02*
X8184400Y19567581D01*
X8184400Y19567581D02*
X8089162Y19519962D01*
X8089162Y19519962D02*
X8041543Y19472343D01*
X8041543Y19472343D02*
X7946305Y19329486D01*
X7946305Y19329486D02*
X7898686Y19139010D01*
X7898686Y19139010D02*
X7898686Y18758058D01*
X7898686Y18758058D02*
X7946305Y18662820D01*
X7946305Y18662820D02*
X7993924Y18615200D01*
X7993924Y18615200D02*
X8089162Y18567581D01*
X8089162Y18567581D02*
X8279638Y18567581D01*
X8279638Y18567581D02*
X8374876Y18615200D01*
X8374876Y18615200D02*
X8422495Y18662820D01*
X8422495Y18662820D02*
X8470114Y18758058D01*
X8470114Y18758058D02*
X8470114Y18996153D01*
X8470114Y18996153D02*
X8422495Y19091391D01*
X8422495Y19091391D02*
X8374876Y19139010D01*
X8374876Y19139010D02*
X8279638Y19186629D01*
X8279638Y19186629D02*
X8089162Y19186629D01*
X8089162Y19186629D02*
X7993924Y19139010D01*
X7993924Y19139010D02*
X7946305Y19091391D01*
X7946305Y19091391D02*
X7898686Y18996153D01*
X50277733Y24989620D02*
X50230114Y24942000D01*
X50230114Y24942000D02*
X50087257Y24894381D01*
X50087257Y24894381D02*
X49992019Y24894381D01*
X49992019Y24894381D02*
X49849162Y24942000D01*
X49849162Y24942000D02*
X49753924Y25037239D01*
X49753924Y25037239D02*
X49706305Y25132477D01*
X49706305Y25132477D02*
X49658686Y25322953D01*
X49658686Y25322953D02*
X49658686Y25465810D01*
X49658686Y25465810D02*
X49706305Y25656286D01*
X49706305Y25656286D02*
X49753924Y25751524D01*
X49753924Y25751524D02*
X49849162Y25846762D01*
X49849162Y25846762D02*
X49992019Y25894381D01*
X49992019Y25894381D02*
X50087257Y25894381D01*
X50087257Y25894381D02*
X50230114Y25846762D01*
X50230114Y25846762D02*
X50277733Y25799143D01*
X51134876Y25561048D02*
X51134876Y24894381D01*
X50896781Y25942000D02*
X50658686Y25227715D01*
X50658686Y25227715D02*
X51277733Y25227715D01*
X40030495Y20611181D02*
X40030495Y19801658D01*
X40030495Y19801658D02*
X40078114Y19706420D01*
X40078114Y19706420D02*
X40125733Y19658800D01*
X40125733Y19658800D02*
X40220971Y19611181D01*
X40220971Y19611181D02*
X40411447Y19611181D01*
X40411447Y19611181D02*
X40506685Y19658800D01*
X40506685Y19658800D02*
X40554304Y19706420D01*
X40554304Y19706420D02*
X40601923Y19801658D01*
X40601923Y19801658D02*
X40601923Y20611181D01*
X41030495Y20515943D02*
X41078114Y20563562D01*
X41078114Y20563562D02*
X41173352Y20611181D01*
X41173352Y20611181D02*
X41411447Y20611181D01*
X41411447Y20611181D02*
X41506685Y20563562D01*
X41506685Y20563562D02*
X41554304Y20515943D01*
X41554304Y20515943D02*
X41601923Y20420705D01*
X41601923Y20420705D02*
X41601923Y20325467D01*
X41601923Y20325467D02*
X41554304Y20182610D01*
X41554304Y20182610D02*
X40982876Y19611181D01*
X40982876Y19611181D02*
X41601923Y19611181D01*
X38309148Y23608381D02*
X38309148Y23370286D01*
X38071053Y23465524D02*
X38309148Y23370286D01*
X38309148Y23370286D02*
X38547243Y23465524D01*
X38166291Y23179810D02*
X38309148Y23370286D01*
X38309148Y23370286D02*
X38452005Y23179810D01*
X38969548Y23608381D02*
X38969548Y23370286D01*
X38731453Y23465524D02*
X38969548Y23370286D01*
X38969548Y23370286D02*
X39207643Y23465524D01*
X38826691Y23179810D02*
X38969548Y23370286D01*
X38969548Y23370286D02*
X39112405Y23179810D01*
X6957142Y26776781D02*
X6623809Y27252972D01*
X6385714Y26776781D02*
X6385714Y27776781D01*
X6385714Y27776781D02*
X6766666Y27776781D01*
X6766666Y27776781D02*
X6861904Y27729162D01*
X6861904Y27729162D02*
X6909523Y27681543D01*
X6909523Y27681543D02*
X6957142Y27586305D01*
X6957142Y27586305D02*
X6957142Y27443448D01*
X6957142Y27443448D02*
X6909523Y27348210D01*
X6909523Y27348210D02*
X6861904Y27300591D01*
X6861904Y27300591D02*
X6766666Y27252972D01*
X6766666Y27252972D02*
X6385714Y27252972D01*
X7909523Y26776781D02*
X7338095Y26776781D01*
X7623809Y26776781D02*
X7623809Y27776781D01*
X7623809Y27776781D02*
X7528571Y27633924D01*
X7528571Y27633924D02*
X7433333Y27538686D01*
X7433333Y27538686D02*
X7338095Y27491067D01*
X8861904Y26776781D02*
X8290476Y26776781D01*
X8576190Y26776781D02*
X8576190Y27776781D01*
X8576190Y27776781D02*
X8480952Y27633924D01*
X8480952Y27633924D02*
X8385714Y27538686D01*
X8385714Y27538686D02*
X8290476Y27491067D01*
X52660780Y4202134D02*
X52708400Y4154515D01*
X52708400Y4154515D02*
X52756019Y4011658D01*
X52756019Y4011658D02*
X52756019Y3916420D01*
X52756019Y3916420D02*
X52708400Y3773563D01*
X52708400Y3773563D02*
X52613161Y3678325D01*
X52613161Y3678325D02*
X52517923Y3630706D01*
X52517923Y3630706D02*
X52327447Y3583087D01*
X52327447Y3583087D02*
X52184590Y3583087D01*
X52184590Y3583087D02*
X51994114Y3630706D01*
X51994114Y3630706D02*
X51898876Y3678325D01*
X51898876Y3678325D02*
X51803638Y3773563D01*
X51803638Y3773563D02*
X51756019Y3916420D01*
X51756019Y3916420D02*
X51756019Y4011658D01*
X51756019Y4011658D02*
X51803638Y4154515D01*
X51803638Y4154515D02*
X51851257Y4202134D01*
X51756019Y4535468D02*
X51756019Y5154515D01*
X51756019Y5154515D02*
X52136971Y4821182D01*
X52136971Y4821182D02*
X52136971Y4964039D01*
X52136971Y4964039D02*
X52184590Y5059277D01*
X52184590Y5059277D02*
X52232209Y5106896D01*
X52232209Y5106896D02*
X52327447Y5154515D01*
X52327447Y5154515D02*
X52565542Y5154515D01*
X52565542Y5154515D02*
X52660780Y5106896D01*
X52660780Y5106896D02*
X52708400Y5059277D01*
X52708400Y5059277D02*
X52756019Y4964039D01*
X52756019Y4964039D02*
X52756019Y4678325D01*
X52756019Y4678325D02*
X52708400Y4583087D01*
X52708400Y4583087D02*
X52660780Y4535468D01*
X7517733Y15925981D02*
X7184400Y16402172D01*
X6946305Y15925981D02*
X6946305Y16925981D01*
X6946305Y16925981D02*
X7327257Y16925981D01*
X7327257Y16925981D02*
X7422495Y16878362D01*
X7422495Y16878362D02*
X7470114Y16830743D01*
X7470114Y16830743D02*
X7517733Y16735505D01*
X7517733Y16735505D02*
X7517733Y16592648D01*
X7517733Y16592648D02*
X7470114Y16497410D01*
X7470114Y16497410D02*
X7422495Y16449791D01*
X7422495Y16449791D02*
X7327257Y16402172D01*
X7327257Y16402172D02*
X6946305Y16402172D01*
X7851067Y16925981D02*
X8517733Y16925981D01*
X8517733Y16925981D02*
X8089162Y15925981D01*
X7568533Y13665181D02*
X7235200Y14141372D01*
X6997105Y13665181D02*
X6997105Y14665181D01*
X6997105Y14665181D02*
X7378057Y14665181D01*
X7378057Y14665181D02*
X7473295Y14617562D01*
X7473295Y14617562D02*
X7520914Y14569943D01*
X7520914Y14569943D02*
X7568533Y14474705D01*
X7568533Y14474705D02*
X7568533Y14331848D01*
X7568533Y14331848D02*
X7520914Y14236610D01*
X7520914Y14236610D02*
X7473295Y14188991D01*
X7473295Y14188991D02*
X7378057Y14141372D01*
X7378057Y14141372D02*
X6997105Y14141372D01*
X8139962Y14236610D02*
X8044724Y14284229D01*
X8044724Y14284229D02*
X7997105Y14331848D01*
X7997105Y14331848D02*
X7949486Y14427086D01*
X7949486Y14427086D02*
X7949486Y14474705D01*
X7949486Y14474705D02*
X7997105Y14569943D01*
X7997105Y14569943D02*
X8044724Y14617562D01*
X8044724Y14617562D02*
X8139962Y14665181D01*
X8139962Y14665181D02*
X8330438Y14665181D01*
X8330438Y14665181D02*
X8425676Y14617562D01*
X8425676Y14617562D02*
X8473295Y14569943D01*
X8473295Y14569943D02*
X8520914Y14474705D01*
X8520914Y14474705D02*
X8520914Y14427086D01*
X8520914Y14427086D02*
X8473295Y14331848D01*
X8473295Y14331848D02*
X8425676Y14284229D01*
X8425676Y14284229D02*
X8330438Y14236610D01*
X8330438Y14236610D02*
X8139962Y14236610D01*
X8139962Y14236610D02*
X8044724Y14188991D01*
X8044724Y14188991D02*
X7997105Y14141372D01*
X7997105Y14141372D02*
X7949486Y14046134D01*
X7949486Y14046134D02*
X7949486Y13855658D01*
X7949486Y13855658D02*
X7997105Y13760420D01*
X7997105Y13760420D02*
X8044724Y13712800D01*
X8044724Y13712800D02*
X8139962Y13665181D01*
X8139962Y13665181D02*
X8330438Y13665181D01*
X8330438Y13665181D02*
X8425676Y13712800D01*
X8425676Y13712800D02*
X8473295Y13760420D01*
X8473295Y13760420D02*
X8520914Y13855658D01*
X8520914Y13855658D02*
X8520914Y14046134D01*
X8520914Y14046134D02*
X8473295Y14141372D01*
X8473295Y14141372D02*
X8425676Y14188991D01*
X8425676Y14188991D02*
X8330438Y14236610D01*
X41083333Y27472020D02*
X41035714Y27424400D01*
X41035714Y27424400D02*
X40892857Y27376781D01*
X40892857Y27376781D02*
X40797619Y27376781D01*
X40797619Y27376781D02*
X40654762Y27424400D01*
X40654762Y27424400D02*
X40559524Y27519639D01*
X40559524Y27519639D02*
X40511905Y27614877D01*
X40511905Y27614877D02*
X40464286Y27805353D01*
X40464286Y27805353D02*
X40464286Y27948210D01*
X40464286Y27948210D02*
X40511905Y28138686D01*
X40511905Y28138686D02*
X40559524Y28233924D01*
X40559524Y28233924D02*
X40654762Y28329162D01*
X40654762Y28329162D02*
X40797619Y28376781D01*
X40797619Y28376781D02*
X40892857Y28376781D01*
X40892857Y28376781D02*
X41035714Y28329162D01*
X41035714Y28329162D02*
X41083333Y28281543D01*
X41464286Y28281543D02*
X41511905Y28329162D01*
X41511905Y28329162D02*
X41607143Y28376781D01*
X41607143Y28376781D02*
X41845238Y28376781D01*
X41845238Y28376781D02*
X41940476Y28329162D01*
X41940476Y28329162D02*
X41988095Y28281543D01*
X41988095Y28281543D02*
X42035714Y28186305D01*
X42035714Y28186305D02*
X42035714Y28091067D01*
X42035714Y28091067D02*
X41988095Y27948210D01*
X41988095Y27948210D02*
X41416667Y27376781D01*
X41416667Y27376781D02*
X42035714Y27376781D01*
X43083333Y33972020D02*
X43035714Y33924400D01*
X43035714Y33924400D02*
X42892857Y33876781D01*
X42892857Y33876781D02*
X42797619Y33876781D01*
X42797619Y33876781D02*
X42654762Y33924400D01*
X42654762Y33924400D02*
X42559524Y34019639D01*
X42559524Y34019639D02*
X42511905Y34114877D01*
X42511905Y34114877D02*
X42464286Y34305353D01*
X42464286Y34305353D02*
X42464286Y34448210D01*
X42464286Y34448210D02*
X42511905Y34638686D01*
X42511905Y34638686D02*
X42559524Y34733924D01*
X42559524Y34733924D02*
X42654762Y34829162D01*
X42654762Y34829162D02*
X42797619Y34876781D01*
X42797619Y34876781D02*
X42892857Y34876781D01*
X42892857Y34876781D02*
X43035714Y34829162D01*
X43035714Y34829162D02*
X43083333Y34781543D01*
X44035714Y33876781D02*
X43464286Y33876781D01*
X43750000Y33876781D02*
X43750000Y34876781D01*
X43750000Y34876781D02*
X43654762Y34733924D01*
X43654762Y34733924D02*
X43559524Y34638686D01*
X43559524Y34638686D02*
X43464286Y34591067D01*
X48833333Y22876781D02*
X48500000Y23352972D01*
X48261905Y22876781D02*
X48261905Y23876781D01*
X48261905Y23876781D02*
X48642857Y23876781D01*
X48642857Y23876781D02*
X48738095Y23829162D01*
X48738095Y23829162D02*
X48785714Y23781543D01*
X48785714Y23781543D02*
X48833333Y23686305D01*
X48833333Y23686305D02*
X48833333Y23543448D01*
X48833333Y23543448D02*
X48785714Y23448210D01*
X48785714Y23448210D02*
X48738095Y23400591D01*
X48738095Y23400591D02*
X48642857Y23352972D01*
X48642857Y23352972D02*
X48261905Y23352972D01*
X49738095Y23876781D02*
X49261905Y23876781D01*
X49261905Y23876781D02*
X49214286Y23400591D01*
X49214286Y23400591D02*
X49261905Y23448210D01*
X49261905Y23448210D02*
X49357143Y23495829D01*
X49357143Y23495829D02*
X49595238Y23495829D01*
X49595238Y23495829D02*
X49690476Y23448210D01*
X49690476Y23448210D02*
X49738095Y23400591D01*
X49738095Y23400591D02*
X49785714Y23305353D01*
X49785714Y23305353D02*
X49785714Y23067258D01*
X49785714Y23067258D02*
X49738095Y22972020D01*
X49738095Y22972020D02*
X49690476Y22924400D01*
X49690476Y22924400D02*
X49595238Y22876781D01*
X49595238Y22876781D02*
X49357143Y22876781D01*
X49357143Y22876781D02*
X49261905Y22924400D01*
X49261905Y22924400D02*
X49214286Y22972020D01*
X41933333Y23376781D02*
X41600000Y23852972D01*
X41361905Y23376781D02*
X41361905Y24376781D01*
X41361905Y24376781D02*
X41742857Y24376781D01*
X41742857Y24376781D02*
X41838095Y24329162D01*
X41838095Y24329162D02*
X41885714Y24281543D01*
X41885714Y24281543D02*
X41933333Y24186305D01*
X41933333Y24186305D02*
X41933333Y24043448D01*
X41933333Y24043448D02*
X41885714Y23948210D01*
X41885714Y23948210D02*
X41838095Y23900591D01*
X41838095Y23900591D02*
X41742857Y23852972D01*
X41742857Y23852972D02*
X41361905Y23852972D01*
X42885714Y23376781D02*
X42314286Y23376781D01*
X42600000Y23376781D02*
X42600000Y24376781D01*
X42600000Y24376781D02*
X42504762Y24233924D01*
X42504762Y24233924D02*
X42409524Y24138686D01*
X42409524Y24138686D02*
X42314286Y24091067D01*
X46112133Y14886781D02*
X45778800Y15362972D01*
X45540705Y14886781D02*
X45540705Y15886781D01*
X45540705Y15886781D02*
X45921657Y15886781D01*
X45921657Y15886781D02*
X46016895Y15839162D01*
X46016895Y15839162D02*
X46064514Y15791543D01*
X46064514Y15791543D02*
X46112133Y15696305D01*
X46112133Y15696305D02*
X46112133Y15553448D01*
X46112133Y15553448D02*
X46064514Y15458210D01*
X46064514Y15458210D02*
X46016895Y15410591D01*
X46016895Y15410591D02*
X45921657Y15362972D01*
X45921657Y15362972D02*
X45540705Y15362972D01*
X46969276Y15553448D02*
X46969276Y14886781D01*
X46731181Y15934400D02*
X46493086Y15220115D01*
X46493086Y15220115D02*
X47112133Y15220115D01*
X51638095Y8576781D02*
X51638095Y7767258D01*
X51638095Y7767258D02*
X51685714Y7672020D01*
X51685714Y7672020D02*
X51733333Y7624400D01*
X51733333Y7624400D02*
X51828571Y7576781D01*
X51828571Y7576781D02*
X52019047Y7576781D01*
X52019047Y7576781D02*
X52114285Y7624400D01*
X52114285Y7624400D02*
X52161904Y7672020D01*
X52161904Y7672020D02*
X52209523Y7767258D01*
X52209523Y7767258D02*
X52209523Y8576781D01*
X52590476Y8576781D02*
X53209523Y8576781D01*
X53209523Y8576781D02*
X52876190Y8195829D01*
X52876190Y8195829D02*
X53019047Y8195829D01*
X53019047Y8195829D02*
X53114285Y8148210D01*
X53114285Y8148210D02*
X53161904Y8100591D01*
X53161904Y8100591D02*
X53209523Y8005353D01*
X53209523Y8005353D02*
X53209523Y7767258D01*
X53209523Y7767258D02*
X53161904Y7672020D01*
X53161904Y7672020D02*
X53114285Y7624400D01*
X53114285Y7624400D02*
X53019047Y7576781D01*
X53019047Y7576781D02*
X52733333Y7576781D01*
X52733333Y7576781D02*
X52638095Y7624400D01*
X52638095Y7624400D02*
X52590476Y7672020D01*
X50214305Y17071181D02*
X50214305Y18071181D01*
X50214305Y18071181D02*
X50452400Y18071181D01*
X50452400Y18071181D02*
X50595257Y18023562D01*
X50595257Y18023562D02*
X50690495Y17928324D01*
X50690495Y17928324D02*
X50738114Y17833086D01*
X50738114Y17833086D02*
X50785733Y17642610D01*
X50785733Y17642610D02*
X50785733Y17499753D01*
X50785733Y17499753D02*
X50738114Y17309277D01*
X50738114Y17309277D02*
X50690495Y17214039D01*
X50690495Y17214039D02*
X50595257Y17118800D01*
X50595257Y17118800D02*
X50452400Y17071181D01*
X50452400Y17071181D02*
X50214305Y17071181D01*
X51119067Y18071181D02*
X51738114Y18071181D01*
X51738114Y18071181D02*
X51404781Y17690229D01*
X51404781Y17690229D02*
X51547638Y17690229D01*
X51547638Y17690229D02*
X51642876Y17642610D01*
X51642876Y17642610D02*
X51690495Y17594991D01*
X51690495Y17594991D02*
X51738114Y17499753D01*
X51738114Y17499753D02*
X51738114Y17261658D01*
X51738114Y17261658D02*
X51690495Y17166420D01*
X51690495Y17166420D02*
X51642876Y17118800D01*
X51642876Y17118800D02*
X51547638Y17071181D01*
X51547638Y17071181D02*
X51261924Y17071181D01*
X51261924Y17071181D02*
X51166686Y17118800D01*
X51166686Y17118800D02*
X51119067Y17166420D01*
X53333333Y35626781D02*
X53000000Y36102972D01*
X52761905Y35626781D02*
X52761905Y36626781D01*
X52761905Y36626781D02*
X53142857Y36626781D01*
X53142857Y36626781D02*
X53238095Y36579162D01*
X53238095Y36579162D02*
X53285714Y36531543D01*
X53285714Y36531543D02*
X53333333Y36436305D01*
X53333333Y36436305D02*
X53333333Y36293448D01*
X53333333Y36293448D02*
X53285714Y36198210D01*
X53285714Y36198210D02*
X53238095Y36150591D01*
X53238095Y36150591D02*
X53142857Y36102972D01*
X53142857Y36102972D02*
X52761905Y36102972D01*
X53809524Y35626781D02*
X54000000Y35626781D01*
X54000000Y35626781D02*
X54095238Y35674400D01*
X54095238Y35674400D02*
X54142857Y35722020D01*
X54142857Y35722020D02*
X54238095Y35864877D01*
X54238095Y35864877D02*
X54285714Y36055353D01*
X54285714Y36055353D02*
X54285714Y36436305D01*
X54285714Y36436305D02*
X54238095Y36531543D01*
X54238095Y36531543D02*
X54190476Y36579162D01*
X54190476Y36579162D02*
X54095238Y36626781D01*
X54095238Y36626781D02*
X53904762Y36626781D01*
X53904762Y36626781D02*
X53809524Y36579162D01*
X53809524Y36579162D02*
X53761905Y36531543D01*
X53761905Y36531543D02*
X53714286Y36436305D01*
X53714286Y36436305D02*
X53714286Y36198210D01*
X53714286Y36198210D02*
X53761905Y36102972D01*
X53761905Y36102972D02*
X53809524Y36055353D01*
X53809524Y36055353D02*
X53904762Y36007734D01*
X53904762Y36007734D02*
X54095238Y36007734D01*
X54095238Y36007734D02*
X54190476Y36055353D01*
X54190476Y36055353D02*
X54238095Y36102972D01*
X54238095Y36102972D02*
X54285714Y36198210D01*
X49282361Y28558343D02*
X49187123Y28605962D01*
X49187123Y28605962D02*
X49091885Y28701200D01*
X49091885Y28701200D02*
X48949028Y28844058D01*
X48949028Y28844058D02*
X48853790Y28891677D01*
X48853790Y28891677D02*
X48758552Y28891677D01*
X48806171Y28653581D02*
X48710933Y28701200D01*
X48710933Y28701200D02*
X48615695Y28796439D01*
X48615695Y28796439D02*
X48568076Y28986915D01*
X48568076Y28986915D02*
X48568076Y29320248D01*
X48568076Y29320248D02*
X48615695Y29510724D01*
X48615695Y29510724D02*
X48710933Y29605962D01*
X48710933Y29605962D02*
X48806171Y29653581D01*
X48806171Y29653581D02*
X48996647Y29653581D01*
X48996647Y29653581D02*
X49091885Y29605962D01*
X49091885Y29605962D02*
X49187123Y29510724D01*
X49187123Y29510724D02*
X49234742Y29320248D01*
X49234742Y29320248D02*
X49234742Y28986915D01*
X49234742Y28986915D02*
X49187123Y28796439D01*
X49187123Y28796439D02*
X49091885Y28701200D01*
X49091885Y28701200D02*
X48996647Y28653581D01*
X48996647Y28653581D02*
X48806171Y28653581D01*
X50187123Y28653581D02*
X49615695Y28653581D01*
X49901409Y28653581D02*
X49901409Y29653581D01*
X49901409Y29653581D02*
X49806171Y29510724D01*
X49806171Y29510724D02*
X49710933Y29415486D01*
X49710933Y29415486D02*
X49615695Y29367867D01*
X6725542Y28925981D02*
X6392209Y29402172D01*
X6154114Y28925981D02*
X6154114Y29925981D01*
X6154114Y29925981D02*
X6535066Y29925981D01*
X6535066Y29925981D02*
X6630304Y29878362D01*
X6630304Y29878362D02*
X6677923Y29830743D01*
X6677923Y29830743D02*
X6725542Y29735505D01*
X6725542Y29735505D02*
X6725542Y29592648D01*
X6725542Y29592648D02*
X6677923Y29497410D01*
X6677923Y29497410D02*
X6630304Y29449791D01*
X6630304Y29449791D02*
X6535066Y29402172D01*
X6535066Y29402172D02*
X6154114Y29402172D01*
X7677923Y28925981D02*
X7106495Y28925981D01*
X7392209Y28925981D02*
X7392209Y29925981D01*
X7392209Y29925981D02*
X7296971Y29783124D01*
X7296971Y29783124D02*
X7201733Y29687886D01*
X7201733Y29687886D02*
X7106495Y29640267D01*
X8058876Y29830743D02*
X8106495Y29878362D01*
X8106495Y29878362D02*
X8201733Y29925981D01*
X8201733Y29925981D02*
X8439828Y29925981D01*
X8439828Y29925981D02*
X8535066Y29878362D01*
X8535066Y29878362D02*
X8582685Y29830743D01*
X8582685Y29830743D02*
X8630304Y29735505D01*
X8630304Y29735505D02*
X8630304Y29640267D01*
X8630304Y29640267D02*
X8582685Y29497410D01*
X8582685Y29497410D02*
X8011257Y28925981D01*
X8011257Y28925981D02*
X8630304Y28925981D01*
X35850533Y25503981D02*
X35517200Y25980172D01*
X35279105Y25503981D02*
X35279105Y26503981D01*
X35279105Y26503981D02*
X35660057Y26503981D01*
X35660057Y26503981D02*
X35755295Y26456362D01*
X35755295Y26456362D02*
X35802914Y26408743D01*
X35802914Y26408743D02*
X35850533Y26313505D01*
X35850533Y26313505D02*
X35850533Y26170648D01*
X35850533Y26170648D02*
X35802914Y26075410D01*
X35802914Y26075410D02*
X35755295Y26027791D01*
X35755295Y26027791D02*
X35660057Y25980172D01*
X35660057Y25980172D02*
X35279105Y25980172D01*
X36231486Y26408743D02*
X36279105Y26456362D01*
X36279105Y26456362D02*
X36374343Y26503981D01*
X36374343Y26503981D02*
X36612438Y26503981D01*
X36612438Y26503981D02*
X36707676Y26456362D01*
X36707676Y26456362D02*
X36755295Y26408743D01*
X36755295Y26408743D02*
X36802914Y26313505D01*
X36802914Y26313505D02*
X36802914Y26218267D01*
X36802914Y26218267D02*
X36755295Y26075410D01*
X36755295Y26075410D02*
X36183867Y25503981D01*
X36183867Y25503981D02*
X36802914Y25503981D01*
D12*
%TO.C,D1*%
X4261000Y24097600D02*
X6039000Y24097600D01*
X4261000Y22065600D02*
X6039000Y22065600D01*
D13*
X3150000Y25081600D02*
X7250000Y25081600D01*
X7250000Y20981600D01*
X3150000Y20981600D01*
X3150000Y25081600D01*
D14*
G36*
X5277000Y22700600D02*
G01*
X4896000Y23081600D01*
X5277000Y23462600D01*
X5277000Y22700600D01*
G37*
D12*
%TO.C,D5*%
X6239000Y7465600D02*
X4461000Y7465600D01*
X6239000Y9497600D02*
X4461000Y9497600D01*
D13*
X7350000Y6481600D02*
X3250000Y6481600D01*
X3250000Y10581600D01*
X7350000Y10581600D01*
X7350000Y6481600D01*
D14*
G36*
X5604000Y8481600D02*
G01*
X5223000Y8100600D01*
X5223000Y8862600D01*
X5604000Y8481600D01*
G37*
D10*
%TO.C,R3*%
X46464148Y19737336D02*
X46464148Y20191464D01*
X47934148Y19737336D02*
X47934148Y20191464D01*
%TO.C,R10*%
X45465000Y31604536D02*
X45465000Y32058664D01*
X46935000Y31604536D02*
X46935000Y32058664D01*
D15*
%TO.C,J3*%
X55120349Y28991651D02*
X55120349Y26100191D01*
X55120349Y24139311D02*
X55120349Y23600191D01*
X55120349Y21639311D02*
X55120349Y21100191D01*
X55120349Y19139311D02*
X55120349Y18600191D01*
X55120349Y16639311D02*
X55120349Y16100191D01*
X55120349Y14139311D02*
X55120349Y13600191D01*
X55120349Y11639311D02*
X55120349Y8747851D01*
X55120349Y8747851D02*
X61208808Y8747851D01*
X61208808Y28991651D02*
X55120349Y28991651D01*
D16*
X57078348Y10369751D02*
G75*
G02*
X56316348Y10369751I-381000J0D01*
G01*
X56316348Y10369751D02*
G75*
G02*
X57078348Y10369751I381000J0D01*
G01*
D10*
%TO.C,R6*%
X4272936Y19655800D02*
X4727064Y19655800D01*
X4272936Y18185800D02*
X4727064Y18185800D01*
%TO.C,C4*%
X45943396Y26185800D02*
X46465900Y26185800D01*
X45943396Y24715800D02*
X46465900Y24715800D01*
D15*
%TO.C,U2*%
X38388648Y17487900D02*
X42630448Y17487900D01*
X42630448Y22745700D02*
X38388648Y22745700D01*
D10*
%TO.C,R11*%
X3972936Y27966600D02*
X4427064Y27966600D01*
X3972936Y26496600D02*
X4427064Y26496600D01*
%TO.C,J1*%
X43475600Y14538000D02*
X43475600Y11878000D01*
X48615600Y14538000D02*
X43475600Y14538000D01*
X48615600Y14538000D02*
X48615600Y11878000D01*
X48615600Y11878000D02*
X43475600Y11878000D01*
X49885600Y14538000D02*
X51215600Y14538000D01*
X51215600Y14538000D02*
X51215600Y13208000D01*
%TO.C,U1*%
X9117200Y36771600D02*
X9117200Y4441600D01*
X11237200Y2311600D02*
X32847200Y2311600D01*
X32437200Y36771600D02*
X9117200Y36771600D01*
X32437200Y29871600D02*
X32437200Y36771600D01*
X34977200Y29871600D02*
X32437200Y29871600D01*
X34977200Y29871600D02*
X34977200Y4441600D01*
X11247200Y2311600D02*
G75*
G02*
X9117200Y4441600I0J2130000D01*
G01*
X34977200Y4441600D02*
G75*
G02*
X32847200Y2311600I-2130002J2D01*
G01*
D11*
X36017200Y10016600D02*
X35382200Y10651600D01*
X36017200Y11286600D01*
X36017200Y10016600D01*
G36*
X36017200Y10016600D02*
G01*
X35382200Y10651600D01*
X36017200Y11286600D01*
X36017200Y10016600D01*
G37*
D10*
%TO.C,C3*%
X53116200Y5968800D02*
X53116200Y1883800D01*
X53116200Y1883800D02*
X54986200Y1883800D01*
X54986200Y1883800D02*
X54986200Y5968800D01*
%TO.C,R7*%
X4256936Y17166600D02*
X4711064Y17166600D01*
X4256936Y15696600D02*
X4711064Y15696600D01*
%TO.C,R8*%
X4272936Y14905800D02*
X4727064Y14905800D01*
X4272936Y13435800D02*
X4727064Y13435800D01*
%TO.C,C2*%
X39600000Y28696600D02*
X43685000Y28696600D01*
X43685000Y30566600D02*
X39600000Y30566600D01*
X43685000Y28696600D02*
X43685000Y30566600D01*
%TO.C,C1*%
X42061252Y33366600D02*
X41538748Y33366600D01*
X42061252Y31896600D02*
X41538748Y31896600D01*
%TO.C,J2*%
X36970000Y11901600D02*
X36970000Y13231600D01*
X38300000Y11901600D02*
X36970000Y11901600D01*
X39570000Y14561600D02*
X42170000Y14561600D01*
X39570000Y11901600D02*
X39570000Y14561600D01*
X39570000Y11901600D02*
X42170000Y11901600D01*
X42170000Y11901600D02*
X42170000Y14561600D01*
%TO.C,R5*%
X46426212Y23747400D02*
X45972084Y23747400D01*
X46426212Y22277400D02*
X45972084Y22277400D01*
%TO.C,R1*%
X42543464Y26185800D02*
X42089336Y26185800D01*
X42543464Y24715800D02*
X42089336Y24715800D01*
%TO.C,R4*%
X46410212Y17651400D02*
X45956084Y17651400D01*
X46410212Y16181400D02*
X45956084Y16181400D01*
%TO.C,U3*%
X46615600Y10758800D02*
X51256600Y10758800D01*
X46615600Y7489800D02*
X48125600Y7489800D01*
X46615600Y3788800D02*
X48125600Y3788800D01*
X46615600Y518800D02*
X46615600Y10758800D01*
X46615600Y518800D02*
X51256600Y518800D01*
X48125600Y518800D02*
X48125600Y10758800D01*
X51256600Y518800D02*
X51256600Y10758800D01*
%TO.C,D3*%
X50907548Y21549800D02*
X50257548Y21549800D01*
X50907548Y21549800D02*
X51557548Y21549800D01*
X50907548Y18429800D02*
X50257548Y18429800D01*
X50907548Y18429800D02*
X51557548Y18429800D01*
X49745048Y21499800D02*
X49505048Y21829800D01*
X49985048Y21829800D01*
X49745048Y21499800D01*
G36*
X49745048Y21499800D02*
G01*
X49505048Y21829800D01*
X49985048Y21829800D01*
X49745048Y21499800D01*
G37*
%TO.C,R9*%
X53265336Y35177400D02*
X53719464Y35177400D01*
X53265336Y33707400D02*
X53719464Y33707400D01*
%TO.C,Q1*%
X47817600Y31750000D02*
X47817600Y32400000D01*
X47817600Y31750000D02*
X47817600Y31100000D01*
X50937600Y31750000D02*
X50937600Y32400000D01*
X50937600Y31750000D02*
X50937600Y31100000D01*
X51217600Y32672500D02*
X50887600Y32912500D01*
X51217600Y33152500D01*
X51217600Y32672500D01*
G36*
X51217600Y32672500D02*
G01*
X50887600Y32912500D01*
X51217600Y33152500D01*
X51217600Y32672500D01*
G37*
%TO.C,R12*%
X3972936Y30166600D02*
X4427064Y30166600D01*
X3972936Y28696600D02*
X4427064Y28696600D01*
%TO.C,R2*%
X37107548Y26185864D02*
X37107548Y25731736D01*
X38577548Y26185864D02*
X38577548Y25731736D01*
%TD*%
%LPC*%
D17*
%TO.C,D1*%
X3150000Y20981600D03*
X7250000Y25081600D03*
D18*
X4200000Y22631600D03*
X6100000Y22631600D03*
X6100000Y23531600D03*
X4200000Y23531600D03*
%TD*%
D17*
%TO.C,D5*%
X7350000Y6481600D03*
X3250000Y10581600D03*
D18*
X6300000Y8931600D03*
X4400000Y8931600D03*
X4400000Y8031600D03*
X6300000Y8031600D03*
%TD*%
D19*
%TO.C,R3*%
X47199148Y18964400D03*
X47199148Y20964400D03*
%TD*%
%TO.C,R10*%
X46200000Y30831600D03*
X46200000Y32831600D03*
%TD*%
D20*
%TO.C,J3*%
X56697348Y12619751D03*
X56697348Y15119751D03*
X56697348Y17619751D03*
X56697348Y20119751D03*
X56697348Y22619751D03*
X56697348Y25119751D03*
D21*
X62896348Y9419752D03*
D22*
X62896348Y28295600D03*
%TD*%
D23*
%TO.C,R6*%
X3500000Y18920800D03*
X5500000Y18920800D03*
%TD*%
D24*
%TO.C,C4*%
X45167148Y25450800D03*
X47242148Y25450800D03*
%TD*%
D25*
%TO.C,U2*%
X37785398Y22021800D03*
X37785398Y20751800D03*
X37785398Y19481800D03*
X37785398Y18211800D03*
X43233698Y18211800D03*
X43233698Y19481800D03*
X43233698Y20751800D03*
X43233698Y22021800D03*
%TD*%
D23*
%TO.C,R11*%
X3200000Y27231600D03*
X5200000Y27231600D03*
%TD*%
D26*
%TO.C,J1*%
X49885600Y13208000D03*
D27*
X47345600Y13208000D03*
X44805600Y13208000D03*
%TD*%
D28*
%TO.C,U1*%
X33477200Y10651600D03*
D29*
X33477200Y13191600D03*
X33477200Y15731600D03*
X33477200Y18271600D03*
X33477200Y20811600D03*
X33477200Y23351600D03*
X33477200Y25891600D03*
X33477200Y28431600D03*
X10617200Y28431600D03*
X10617200Y25891600D03*
X10617200Y23351600D03*
X10617200Y20811600D03*
X10617200Y18271600D03*
X10617200Y15731600D03*
X10617200Y13191600D03*
X10617200Y10651600D03*
%TD*%
D30*
%TO.C,C3*%
X54051200Y2931300D03*
X54051200Y5806300D03*
%TD*%
D31*
%TO.C,REF3*%
X60850000Y4031600D03*
%TD*%
D23*
%TO.C,R7*%
X3484000Y16431600D03*
X5484000Y16431600D03*
%TD*%
%TO.C,R8*%
X3500000Y14170800D03*
X5500000Y14170800D03*
%TD*%
D31*
%TO.C,REF1*%
X3003148Y32831600D03*
%TD*%
D32*
%TO.C,C2*%
X42637500Y29631600D03*
X39762500Y29631600D03*
%TD*%
D33*
%TO.C,C1*%
X42837500Y32631600D03*
X40762500Y32631600D03*
%TD*%
D26*
%TO.C,J2*%
X38300000Y13231600D03*
D27*
X40840000Y13231600D03*
%TD*%
D34*
%TO.C,R5*%
X47199148Y23012400D03*
X45199148Y23012400D03*
%TD*%
D31*
%TO.C,REF4*%
X3003148Y3931600D03*
%TD*%
D34*
%TO.C,R1*%
X43316400Y25450800D03*
X41316400Y25450800D03*
%TD*%
%TO.C,R4*%
X47183148Y16916400D03*
X45183148Y16916400D03*
%TD*%
D35*
%TO.C,U3*%
X49885600Y3098800D03*
D36*
X49885600Y5638800D03*
X49885600Y8178800D03*
%TD*%
D37*
%TO.C,D3*%
X49970048Y20939800D03*
X49970048Y19039800D03*
X51845048Y19989800D03*
%TD*%
D23*
%TO.C,R9*%
X52492400Y34442400D03*
X54492400Y34442400D03*
%TD*%
D31*
%TO.C,REF2*%
X60900000Y32831600D03*
%TD*%
D38*
%TO.C,Q1*%
X50327600Y32687500D03*
X48427600Y32687500D03*
X49377600Y30812500D03*
%TD*%
D23*
%TO.C,R12*%
X3200000Y29431600D03*
X5200000Y29431600D03*
%TD*%
D39*
%TO.C,R2*%
X37842548Y26958800D03*
X37842548Y24958800D03*
%TD*%
%LPD*%
M02*
