M48
; DRILL file {KiCad 8.0.8} date 2026-01-01T17:30:43-0800
; FORMAT={-:-/ absolute / inch / decimal}
; #@! TF.CreationDate,2026-01-01T17:30:43-08:00
; #@! TF.GenerationSoftware,Kicad,Pcbnew,8.0.8
; #@! TF.FileFunction,Plated,1,2,PTH
FMAT,2
INCH
; #@! TA.AperFunction,Plated,PTH,ViaDrill
T1C0.0157
; #@! TA.AperFunction,Plated,PTH,ViaDrill
T2C0.0315
; #@! TA.AperFunction,Plated,PTH,ComponentDrill
T3C0.0315
; #@! TA.AperFunction,Plated,PTH,ComponentDrill
T4C0.0394
; #@! TA.AperFunction,Plated,PTH,ComponentDrill
T5C0.0433
; #@! TA.AperFunction,Plated,PTH,ComponentDrill
T6C0.0787
%
G90
G05
T1
X0.1654Y0.891
X0.1772Y0.4776
X1.0059Y0.8182
X1.5251Y1.3162
X1.5251Y1.2729
X1.5251Y1.2296
X1.6402Y0.716
X1.7441Y1.2926
X1.7441Y1.1666
X1.9242Y1.002
X2.062Y1.212
X2.1019Y0.7447
X2.102Y0.83
X2.1022Y0.788
X2.3802Y0.828
X2.3802Y0.792
X2.3802Y0.756
T2
X2.063Y0.6312
T3
X0.418Y1.0194
T4
X0.418Y1.1194
X0.418Y0.9194
X0.418Y0.8194
X0.418Y0.7194
X0.418Y0.6194
X0.418Y0.5194
X0.418Y0.4194
X1.318Y1.1194
X1.318Y1.0194
X1.318Y0.9194
X1.318Y0.8194
X1.318Y0.7194
X1.318Y0.6194
X1.318Y0.5194
X1.318Y0.4194
X1.5079Y0.5209
X1.6079Y0.5209
X1.764Y0.52
X1.864Y0.52
X1.964Y0.52
T5
X1.964Y0.322
X1.964Y0.222
X1.964Y0.122
T6
X0.1182Y1.2926
X0.1182Y0.1548
X2.3957Y0.1587
X2.3976Y1.2926
M30
