%TF.GenerationSoftware,KiCad,Pcbnew,8.0.8*%
%TF.CreationDate,2026-01-01T17:30:43-08:00*%
%TF.ProjectId,navien,6e617669-656e-42e6-9b69-6361645f7063,rev?*%
%TF.SameCoordinates,Original*%
%TF.FileFunction,Other,Comment*%
%FSLAX46Y46*%
G04 Gerber Fmt 4.6, Leading zero omitted, Abs format (unit mm)*
G04 Created by KiCad (PCBNEW 8.0.8) date 2026-01-01 17:30:43*
%MOMM*%
%LPD*%
G01*
G04 APERTURE LIST*
%ADD10C,0.150000*%
G04 APERTURE END LIST*
D10*
X18571009Y3846781D02*
X18571009Y4846781D01*
X19142437Y3846781D02*
X18713866Y4418210D01*
X19142437Y4846781D02*
X18571009Y4275353D01*
X19571009Y4370591D02*
X19904342Y4370591D01*
X20047199Y3846781D02*
X19571009Y3846781D01*
X19571009Y3846781D02*
X19571009Y4846781D01*
X19571009Y4846781D02*
X20047199Y4846781D01*
X20475771Y4370591D02*
X20809104Y4370591D01*
X20951961Y3846781D02*
X20475771Y3846781D01*
X20475771Y3846781D02*
X20475771Y4846781D01*
X20475771Y4846781D02*
X20951961Y4846781D01*
X21380533Y3846781D02*
X21380533Y4846781D01*
X21380533Y4846781D02*
X21761485Y4846781D01*
X21761485Y4846781D02*
X21856723Y4799162D01*
X21856723Y4799162D02*
X21904342Y4751543D01*
X21904342Y4751543D02*
X21951961Y4656305D01*
X21951961Y4656305D02*
X21951961Y4513448D01*
X21951961Y4513448D02*
X21904342Y4418210D01*
X21904342Y4418210D02*
X21856723Y4370591D01*
X21856723Y4370591D02*
X21761485Y4322972D01*
X21761485Y4322972D02*
X21380533Y4322972D01*
X23332914Y4846781D02*
X23523390Y4846781D01*
X23523390Y4846781D02*
X23618628Y4799162D01*
X23618628Y4799162D02*
X23713866Y4703924D01*
X23713866Y4703924D02*
X23761485Y4513448D01*
X23761485Y4513448D02*
X23761485Y4180115D01*
X23761485Y4180115D02*
X23713866Y3989639D01*
X23713866Y3989639D02*
X23618628Y3894400D01*
X23618628Y3894400D02*
X23523390Y3846781D01*
X23523390Y3846781D02*
X23332914Y3846781D01*
X23332914Y3846781D02*
X23237676Y3894400D01*
X23237676Y3894400D02*
X23142438Y3989639D01*
X23142438Y3989639D02*
X23094819Y4180115D01*
X23094819Y4180115D02*
X23094819Y4513448D01*
X23094819Y4513448D02*
X23142438Y4703924D01*
X23142438Y4703924D02*
X23237676Y4799162D01*
X23237676Y4799162D02*
X23332914Y4846781D01*
X24190057Y4846781D02*
X24190057Y4037258D01*
X24190057Y4037258D02*
X24237676Y3942020D01*
X24237676Y3942020D02*
X24285295Y3894400D01*
X24285295Y3894400D02*
X24380533Y3846781D01*
X24380533Y3846781D02*
X24571009Y3846781D01*
X24571009Y3846781D02*
X24666247Y3894400D01*
X24666247Y3894400D02*
X24713866Y3942020D01*
X24713866Y3942020D02*
X24761485Y4037258D01*
X24761485Y4037258D02*
X24761485Y4846781D01*
X25094819Y4846781D02*
X25666247Y4846781D01*
X25380533Y3846781D02*
X25380533Y4846781D01*
X18404342Y6386781D02*
X18404342Y7386781D01*
X18404342Y7386781D02*
X18975770Y6386781D01*
X18975770Y6386781D02*
X18975770Y7386781D01*
X19594818Y6386781D02*
X19499580Y6434400D01*
X19499580Y6434400D02*
X19451961Y6482020D01*
X19451961Y6482020D02*
X19404342Y6577258D01*
X19404342Y6577258D02*
X19404342Y6862972D01*
X19404342Y6862972D02*
X19451961Y6958210D01*
X19451961Y6958210D02*
X19499580Y7005829D01*
X19499580Y7005829D02*
X19594818Y7053448D01*
X19594818Y7053448D02*
X19737675Y7053448D01*
X19737675Y7053448D02*
X19832913Y7005829D01*
X19832913Y7005829D02*
X19880532Y6958210D01*
X19880532Y6958210D02*
X19928151Y6862972D01*
X19928151Y6862972D02*
X19928151Y6577258D01*
X19928151Y6577258D02*
X19880532Y6482020D01*
X19880532Y6482020D02*
X19832913Y6434400D01*
X19832913Y6434400D02*
X19737675Y6386781D01*
X19737675Y6386781D02*
X19594818Y6386781D01*
X21547199Y6434400D02*
X21451961Y6386781D01*
X21451961Y6386781D02*
X21261485Y6386781D01*
X21261485Y6386781D02*
X21166247Y6434400D01*
X21166247Y6434400D02*
X21118628Y6482020D01*
X21118628Y6482020D02*
X21071009Y6577258D01*
X21071009Y6577258D02*
X21071009Y6862972D01*
X21071009Y6862972D02*
X21118628Y6958210D01*
X21118628Y6958210D02*
X21166247Y7005829D01*
X21166247Y7005829D02*
X21261485Y7053448D01*
X21261485Y7053448D02*
X21451961Y7053448D01*
X21451961Y7053448D02*
X21547199Y7005829D01*
X22118628Y6386781D02*
X22023390Y6434400D01*
X22023390Y6434400D02*
X21975771Y6482020D01*
X21975771Y6482020D02*
X21928152Y6577258D01*
X21928152Y6577258D02*
X21928152Y6862972D01*
X21928152Y6862972D02*
X21975771Y6958210D01*
X21975771Y6958210D02*
X22023390Y7005829D01*
X22023390Y7005829D02*
X22118628Y7053448D01*
X22118628Y7053448D02*
X22261485Y7053448D01*
X22261485Y7053448D02*
X22356723Y7005829D01*
X22356723Y7005829D02*
X22404342Y6958210D01*
X22404342Y6958210D02*
X22451961Y6862972D01*
X22451961Y6862972D02*
X22451961Y6577258D01*
X22451961Y6577258D02*
X22404342Y6482020D01*
X22404342Y6482020D02*
X22356723Y6434400D01*
X22356723Y6434400D02*
X22261485Y6386781D01*
X22261485Y6386781D02*
X22118628Y6386781D01*
X22880533Y7053448D02*
X22880533Y6053448D01*
X22880533Y7005829D02*
X22975771Y7053448D01*
X22975771Y7053448D02*
X23166247Y7053448D01*
X23166247Y7053448D02*
X23261485Y7005829D01*
X23261485Y7005829D02*
X23309104Y6958210D01*
X23309104Y6958210D02*
X23356723Y6862972D01*
X23356723Y6862972D02*
X23356723Y6577258D01*
X23356723Y6577258D02*
X23309104Y6482020D01*
X23309104Y6482020D02*
X23261485Y6434400D01*
X23261485Y6434400D02*
X23166247Y6386781D01*
X23166247Y6386781D02*
X22975771Y6386781D01*
X22975771Y6386781D02*
X22880533Y6434400D01*
X23785295Y7053448D02*
X23785295Y6053448D01*
X23785295Y7005829D02*
X23880533Y7053448D01*
X23880533Y7053448D02*
X24071009Y7053448D01*
X24071009Y7053448D02*
X24166247Y7005829D01*
X24166247Y7005829D02*
X24213866Y6958210D01*
X24213866Y6958210D02*
X24261485Y6862972D01*
X24261485Y6862972D02*
X24261485Y6577258D01*
X24261485Y6577258D02*
X24213866Y6482020D01*
X24213866Y6482020D02*
X24166247Y6434400D01*
X24166247Y6434400D02*
X24071009Y6386781D01*
X24071009Y6386781D02*
X23880533Y6386781D01*
X23880533Y6386781D02*
X23785295Y6434400D01*
X25071009Y6434400D02*
X24975771Y6386781D01*
X24975771Y6386781D02*
X24785295Y6386781D01*
X24785295Y6386781D02*
X24690057Y6434400D01*
X24690057Y6434400D02*
X24642438Y6529639D01*
X24642438Y6529639D02*
X24642438Y6910591D01*
X24642438Y6910591D02*
X24690057Y7005829D01*
X24690057Y7005829D02*
X24785295Y7053448D01*
X24785295Y7053448D02*
X24975771Y7053448D01*
X24975771Y7053448D02*
X25071009Y7005829D01*
X25071009Y7005829D02*
X25118628Y6910591D01*
X25118628Y6910591D02*
X25118628Y6815353D01*
X25118628Y6815353D02*
X24642438Y6720115D01*
X25547200Y6386781D02*
X25547200Y7053448D01*
X25547200Y6862972D02*
X25594819Y6958210D01*
X25594819Y6958210D02*
X25642438Y7005829D01*
X25642438Y7005829D02*
X25737676Y7053448D01*
X25737676Y7053448D02*
X25832914Y7053448D01*
%TO.C,REF3*%
X63050000Y4031600D02*
G75*
G02*
X58650000Y4031600I-2200000J0D01*
G01*
X58650000Y4031600D02*
G75*
G02*
X63050000Y4031600I2200000J0D01*
G01*
%TO.C,REF1*%
X5203148Y32831600D02*
G75*
G02*
X803148Y32831600I-2200000J0D01*
G01*
X803148Y32831600D02*
G75*
G02*
X5203148Y32831600I2200000J0D01*
G01*
%TO.C,REF4*%
X5203148Y3931600D02*
G75*
G02*
X803148Y3931600I-2200000J0D01*
G01*
X803148Y3931600D02*
G75*
G02*
X5203148Y3931600I2200000J0D01*
G01*
%TO.C,REF2*%
X63100000Y32831600D02*
G75*
G02*
X58700000Y32831600I-2200000J0D01*
G01*
X58700000Y32831600D02*
G75*
G02*
X63100000Y32831600I2200000J0D01*
G01*
%TD*%
M02*
