%TF.GenerationSoftware,KiCad,Pcbnew,8.0.8*%
%TF.CreationDate,2026-01-01T17:30:43-08:00*%
%TF.ProjectId,navien,6e617669-656e-42e6-9b69-6361645f7063,rev?*%
%TF.SameCoordinates,Original*%
%TF.FileFunction,Copper,L1,Top*%
%TF.FilePolarity,Positive*%
%FSLAX46Y46*%
G04 Gerber Fmt 4.6, Leading zero omitted, Abs format (unit mm)*
G04 Created by KiCad (PCBNEW 8.0.8) date 2026-01-01 17:30:43*
%MOMM*%
%LPD*%
G01*
G04 APERTURE LIST*
G04 Aperture macros list*
%AMRoundRect*
0 Rectangle with rounded corners*
0 $1 Rounding radius*
0 $2 $3 $4 $5 $6 $7 $8 $9 X,Y pos of 4 corners*
0 Add a 4 corners polygon primitive as box body*
4,1,4,$2,$3,$4,$5,$6,$7,$8,$9,$2,$3,0*
0 Add four circle primitives for the rounded corners*
1,1,$1+$1,$2,$3*
1,1,$1+$1,$4,$5*
1,1,$1+$1,$6,$7*
1,1,$1+$1,$8,$9*
0 Add four rect primitives between the rounded corners*
20,1,$1+$1,$2,$3,$4,$5,0*
20,1,$1+$1,$4,$5,$6,$7,0*
20,1,$1+$1,$6,$7,$8,$9,0*
20,1,$1+$1,$8,$9,$2,$3,0*%
G04 Aperture macros list end*
%TA.AperFunction,SMDPad,CuDef*%
%ADD10R,1.100000X0.600000*%
%TD*%
%TA.AperFunction,SMDPad,CuDef*%
%ADD11RoundRect,0.250000X0.450000X-0.350000X0.450000X0.350000X-0.450000X0.350000X-0.450000X-0.350000X0*%
%TD*%
%TA.AperFunction,SMDPad,CuDef*%
%ADD12R,4.495800X1.295400*%
%TD*%
%TA.AperFunction,SMDPad,CuDef*%
%ADD13R,2.709601X1.803400*%
%TD*%
%TA.AperFunction,SMDPad,CuDef*%
%ADD14R,2.709601X1.851698*%
%TD*%
%TA.AperFunction,SMDPad,CuDef*%
%ADD15RoundRect,0.250000X-0.350000X-0.450000X0.350000X-0.450000X0.350000X0.450000X-0.350000X0.450000X0*%
%TD*%
%TA.AperFunction,SMDPad,CuDef*%
%ADD16RoundRect,0.250000X-0.337500X-0.475000X0.337500X-0.475000X0.337500X0.475000X-0.337500X0.475000X0*%
%TD*%
%TA.AperFunction,SMDPad,CuDef*%
%ADD17R,1.460500X0.558800*%
%TD*%
%TA.AperFunction,ComponentPad*%
%ADD18R,1.700000X1.700000*%
%TD*%
%TA.AperFunction,ComponentPad*%
%ADD19O,1.700000X1.700000*%
%TD*%
%TA.AperFunction,ComponentPad*%
%ADD20R,2.000000X2.000000*%
%TD*%
%TA.AperFunction,ComponentPad*%
%ADD21O,2.000000X1.600000*%
%TD*%
%TA.AperFunction,SMDPad,CuDef*%
%ADD22RoundRect,0.250000X0.425000X-0.537500X0.425000X0.537500X-0.425000X0.537500X-0.425000X-0.537500X0*%
%TD*%
%TA.AperFunction,ComponentPad*%
%ADD23C,2.500000*%
%TD*%
%TA.AperFunction,SMDPad,CuDef*%
%ADD24RoundRect,0.250000X0.537500X0.425000X-0.537500X0.425000X-0.537500X-0.425000X0.537500X-0.425000X0*%
%TD*%
%TA.AperFunction,SMDPad,CuDef*%
%ADD25RoundRect,0.250000X0.337500X0.475000X-0.337500X0.475000X-0.337500X-0.475000X0.337500X-0.475000X0*%
%TD*%
%TA.AperFunction,SMDPad,CuDef*%
%ADD26RoundRect,0.250000X0.350000X0.450000X-0.350000X0.450000X-0.350000X-0.450000X0.350000X-0.450000X0*%
%TD*%
%TA.AperFunction,ComponentPad*%
%ADD27R,2.000000X1.905000*%
%TD*%
%TA.AperFunction,ComponentPad*%
%ADD28O,2.000000X1.905000*%
%TD*%
%TA.AperFunction,SMDPad,CuDef*%
%ADD29RoundRect,0.150000X-0.587500X-0.150000X0.587500X-0.150000X0.587500X0.150000X-0.587500X0.150000X0*%
%TD*%
%TA.AperFunction,SMDPad,CuDef*%
%ADD30RoundRect,0.150000X-0.150000X0.587500X-0.150000X-0.587500X0.150000X-0.587500X0.150000X0.587500X0*%
%TD*%
%TA.AperFunction,SMDPad,CuDef*%
%ADD31RoundRect,0.250000X-0.450000X0.350000X-0.450000X-0.350000X0.450000X-0.350000X0.450000X0.350000X0*%
%TD*%
%TA.AperFunction,ViaPad*%
%ADD32C,0.800000*%
%TD*%
%TA.AperFunction,ViaPad*%
%ADD33C,1.500000*%
%TD*%
%TA.AperFunction,Conductor*%
%ADD34C,0.500000*%
%TD*%
%TA.AperFunction,Conductor*%
%ADD35C,0.250000*%
%TD*%
G04 APERTURE END LIST*
D10*
%TO.P,D1,1,RA*%
%TO.N,GND*%
X4200000Y22631600D03*
%TO.P,D1,2,B*%
%TO.N,unconnected-(D1-B-Pad2)*%
X6100000Y22631600D03*
%TO.P,D1,3,G*%
%TO.N,Net-(D1-G)*%
X6100000Y23531600D03*
%TO.P,D1,4,R*%
%TO.N,Net-(D1-R)*%
X4200000Y23531600D03*
%TD*%
%TO.P,D5,1,Cathode*%
%TO.N,GND*%
X6300000Y8931600D03*
%TO.P,D5,2,B*%
%TO.N,Net-(D5-B)*%
X4400000Y8931600D03*
%TO.P,D5,3,G*%
%TO.N,Net-(D5-G)*%
X4400000Y8031600D03*
%TO.P,D5,4,R*%
%TO.N,Net-(D5-R)*%
X6300000Y8031600D03*
%TD*%
D11*
%TO.P,R3,1*%
%TO.N,Net-(D3-A2)*%
X47199148Y18964400D03*
%TO.P,R3,2*%
%TO.N,Net-(D3-A1)*%
X47199148Y20964400D03*
%TD*%
%TO.P,R10,1*%
%TO.N,Net-(Q1-D)*%
X46200000Y30831600D03*
%TO.P,R10,2*%
%TO.N,+5V*%
X46200000Y32831600D03*
%TD*%
D12*
%TO.P,J3,1,1*%
%TO.N,Net-(J1-Pin_2)*%
X56697348Y12619751D03*
%TO.P,J3,2,2*%
%TO.N,Net-(Q1-D)*%
X56697348Y15119751D03*
%TO.P,J3,3,3*%
%TO.N,Net-(D3-A2)*%
X56697348Y17619751D03*
%TO.P,J3,4,4*%
%TO.N,GND*%
X56697348Y20119751D03*
%TO.P,J3,5,5*%
%TO.N,Net-(D3-A1)*%
X56697348Y22619751D03*
%TO.P,J3,6,6*%
%TO.N,+3.3V*%
X56697348Y25119751D03*
D13*
%TO.P,J3,7*%
%TO.N,N/C*%
X62896348Y9419752D03*
D14*
%TO.P,J3,8*%
X62896348Y28295600D03*
%TD*%
D15*
%TO.P,R6,1*%
%TO.N,Net-(D5-R)*%
X3500000Y18920800D03*
%TO.P,R6,2*%
%TO.N,Net-(U1-D3)*%
X5500000Y18920800D03*
%TD*%
D16*
%TO.P,C4,1*%
%TO.N,+3.3V*%
X45167148Y25450800D03*
%TO.P,C4,2*%
%TO.N,GND*%
X47242148Y25450800D03*
%TD*%
D17*
%TO.P,U2,1,R*%
%TO.N,Net-(J2-Pin_1)*%
X37785398Y22021800D03*
%TO.P,U2,2,\u002ARE*%
%TO.N,Net-(U2-\u002ARE)*%
X37785398Y20751800D03*
%TO.P,U2,3,\u002ASHDN*%
X37785398Y19481800D03*
%TO.P,U2,4,D*%
%TO.N,Net-(J2-Pin_2)*%
X37785398Y18211800D03*
%TO.P,U2,5,GND*%
%TO.N,GND*%
X43233698Y18211800D03*
%TO.P,U2,6,A*%
%TO.N,Net-(U2-A)*%
X43233698Y19481800D03*
%TO.P,U2,7,B*%
%TO.N,Net-(U2-B)*%
X43233698Y20751800D03*
%TO.P,U2,8,VCC*%
%TO.N,+3.3V*%
X43233698Y22021800D03*
%TD*%
D15*
%TO.P,R11,1*%
%TO.N,Net-(D1-G)*%
X3200000Y27231600D03*
%TO.P,R11,2*%
%TO.N,Net-(U1-D0)*%
X5200000Y27231600D03*
%TD*%
D18*
%TO.P,J1,1,Pin_1*%
%TO.N,+5V*%
X49885600Y13208000D03*
D19*
%TO.P,J1,2,Pin_2*%
%TO.N,Net-(J1-Pin_2)*%
X47345600Y13208000D03*
%TO.P,J1,3,Pin_3*%
%TO.N,/Reg Pin*%
X44805600Y13208000D03*
%TD*%
D20*
%TO.P,U1,1,~{RST}*%
%TO.N,unconnected-(U1-~{RST}-Pad1)*%
X33477200Y10651600D03*
D21*
%TO.P,U1,2,A0*%
%TO.N,unconnected-(U1-A0-Pad2)*%
X33477200Y13191600D03*
%TO.P,U1,3,D0*%
%TO.N,Net-(U1-D0)*%
X33477200Y15731600D03*
%TO.P,U1,4,SCK/D5*%
%TO.N,Net-(Q1-S)*%
X33477200Y18271600D03*
%TO.P,U1,5,MISO/D6*%
%TO.N,Net-(U1-MISO{slash}D6)*%
X33477200Y20811600D03*
%TO.P,U1,6,MOSI/D7*%
%TO.N,Net-(J2-Pin_1)*%
X33477200Y23351600D03*
%TO.P,U1,7,CS/D8*%
%TO.N,Net-(J2-Pin_2)*%
X33477200Y25891600D03*
%TO.P,U1,8,3V3*%
%TO.N,+3.3V*%
X33477200Y28431600D03*
%TO.P,U1,9,5V*%
%TO.N,+5V*%
X10617200Y28431600D03*
%TO.P,U1,10,GND*%
%TO.N,GND*%
X10617200Y25891600D03*
%TO.P,U1,11,D4*%
%TO.N,unconnected-(U1-D4-Pad11)*%
X10617200Y23351600D03*
%TO.P,U1,12,D3*%
%TO.N,Net-(U1-D3)*%
X10617200Y20811600D03*
%TO.P,U1,13,SDA/D2*%
%TO.N,Net-(U1-SDA{slash}D2)*%
X10617200Y18271600D03*
%TO.P,U1,14,SCL/D1*%
%TO.N,Net-(U1-SCL{slash}D1)*%
X10617200Y15731600D03*
%TO.P,U1,15,RX*%
%TO.N,unconnected-(U1-RX-Pad15)*%
X10617200Y13191600D03*
%TO.P,U1,16,TX*%
%TO.N,unconnected-(U1-TX-Pad16)*%
X10617200Y10651600D03*
%TD*%
D22*
%TO.P,C3,1*%
%TO.N,/Reg Pin*%
X54051200Y2931300D03*
%TO.P,C3,2*%
%TO.N,GND*%
X54051200Y5806300D03*
%TD*%
D23*
%TO.P,REF3,3*%
%TO.N,N/C*%
X60850000Y4031600D03*
%TD*%
D15*
%TO.P,R7,1*%
%TO.N,Net-(D5-G)*%
X3484000Y16431600D03*
%TO.P,R7,2*%
%TO.N,Net-(U1-SDA{slash}D2)*%
X5484000Y16431600D03*
%TD*%
%TO.P,R8,1*%
%TO.N,Net-(D5-B)*%
X3500000Y14170800D03*
%TO.P,R8,2*%
%TO.N,Net-(U1-SCL{slash}D1)*%
X5500000Y14170800D03*
%TD*%
D23*
%TO.P,REF1,1*%
%TO.N,N/C*%
X3003148Y32831600D03*
%TD*%
D24*
%TO.P,C2,1*%
%TO.N,+5V*%
X42637500Y29631600D03*
%TO.P,C2,2*%
%TO.N,GND*%
X39762500Y29631600D03*
%TD*%
D25*
%TO.P,C1,1*%
%TO.N,+5V*%
X42837500Y32631600D03*
%TO.P,C1,2*%
%TO.N,GND*%
X40762500Y32631600D03*
%TD*%
D18*
%TO.P,J2,1,Pin_1*%
%TO.N,Net-(J2-Pin_1)*%
X38300000Y13231600D03*
D19*
%TO.P,J2,2,Pin_2*%
%TO.N,Net-(J2-Pin_2)*%
X40840000Y13231600D03*
%TD*%
D26*
%TO.P,R5,1*%
%TO.N,Net-(D3-A1)*%
X47199148Y23012400D03*
%TO.P,R5,2*%
%TO.N,Net-(U2-B)*%
X45199148Y23012400D03*
%TD*%
D23*
%TO.P,REF4,2*%
%TO.N,N/C*%
X3003148Y3931600D03*
%TD*%
D26*
%TO.P,R1,1*%
%TO.N,+3.3V*%
X43316400Y25450800D03*
%TO.P,R1,2*%
%TO.N,Net-(U2-\u002ARE)*%
X41316400Y25450800D03*
%TD*%
%TO.P,R4,1*%
%TO.N,Net-(D3-A2)*%
X47183148Y16916400D03*
%TO.P,R4,2*%
%TO.N,Net-(U2-A)*%
X45183148Y16916400D03*
%TD*%
D27*
%TO.P,U3,1,VI*%
%TO.N,/Reg Pin*%
X49885600Y3098800D03*
D28*
%TO.P,U3,2,GND*%
%TO.N,GND*%
X49885600Y5638800D03*
%TO.P,U3,3,VO*%
%TO.N,+5V*%
X49885600Y8178800D03*
%TD*%
D29*
%TO.P,D3,1,A1*%
%TO.N,Net-(D3-A1)*%
X49970048Y20939800D03*
%TO.P,D3,2,A2*%
%TO.N,Net-(D3-A2)*%
X49970048Y19039800D03*
%TO.P,D3,3,common*%
%TO.N,GND*%
X51845048Y19989800D03*
%TD*%
D15*
%TO.P,R9,1*%
%TO.N,Net-(Q1-S)*%
X52492400Y34442400D03*
%TO.P,R9,2*%
%TO.N,+3.3V*%
X54492400Y34442400D03*
%TD*%
D23*
%TO.P,REF2,4*%
%TO.N,N/C*%
X60900000Y32831600D03*
%TD*%
D30*
%TO.P,Q1,1,G*%
%TO.N,+3.3V*%
X50327600Y32687500D03*
%TO.P,Q1,2,S*%
%TO.N,Net-(Q1-S)*%
X48427600Y32687500D03*
%TO.P,Q1,3,D*%
%TO.N,Net-(Q1-D)*%
X49377600Y30812500D03*
%TD*%
D15*
%TO.P,R12,1*%
%TO.N,Net-(D1-R)*%
X3200000Y29431600D03*
%TO.P,R12,2*%
%TO.N,Net-(U1-MISO{slash}D6)*%
X5200000Y29431600D03*
%TD*%
D31*
%TO.P,R2,1*%
%TO.N,+3.3V*%
X37842548Y26958800D03*
%TO.P,R2,2*%
%TO.N,Net-(J2-Pin_1)*%
X37842548Y24958800D03*
%TD*%
D32*
%TO.N,+5V*%
X44300000Y29631600D03*
X44300000Y32831600D03*
%TO.N,GND*%
X4200000Y22631600D03*
X60457948Y21031200D03*
X41661948Y18186400D03*
X60457948Y20116800D03*
X53396748Y20015200D03*
X53388162Y18915231D03*
X48875548Y25450800D03*
X38737500Y33431600D03*
X38737500Y32331600D03*
X53390800Y21082000D03*
X38737500Y31231600D03*
X4500000Y12131600D03*
X60457948Y19202400D03*
D33*
%TO.N,Net-(Q1-D)*%
X52400000Y16031600D03*
D32*
X52374800Y30784800D03*
%TO.N,Net-(U1-MISO{slash}D6)*%
X25550000Y20781600D03*
%TD*%
D34*
%TO.N,/Reg Pin*%
X49885600Y3098800D02*
X53767900Y3098800D01*
X53767900Y3098800D02*
X54000400Y3331300D01*
%TO.N,GND*%
X49885600Y5638800D02*
X53644800Y5638800D01*
X53644800Y5638800D02*
X53898800Y5384800D01*
D35*
X4500000Y12131600D02*
X5500000Y11131600D01*
X5500000Y11131600D02*
X5500000Y10331600D01*
X5500000Y10331600D02*
X6300000Y9531600D01*
X6300000Y9531600D02*
X6300000Y8931600D01*
D34*
%TO.N,+5V*%
X46200000Y32831600D02*
X42700000Y32831600D01*
X44300000Y29631600D02*
X42637500Y29631600D01*
X42700000Y32831600D02*
X42700000Y30031600D01*
%TO.N,GND*%
X41661948Y18186400D02*
X41687348Y18211800D01*
X41687348Y18211800D02*
X43233698Y18211800D01*
X48875548Y25450800D02*
X47242148Y25450800D01*
%TO.N,+3.3V*%
X43300000Y26958800D02*
X56681348Y26958800D01*
X56692800Y32664400D02*
X56692800Y26979348D01*
X56669700Y32687500D02*
X56692800Y32664400D01*
X56692800Y26979348D02*
X56697348Y26974800D01*
X43303548Y22091650D02*
X43233698Y22021800D01*
X36800000Y28431600D02*
X37842548Y27389052D01*
X37842548Y27389052D02*
X37842548Y26958800D01*
X43303548Y25450800D02*
X43303548Y22091650D01*
X43316400Y25450800D02*
X43316400Y26942400D01*
X45167148Y25450800D02*
X43303548Y25450800D01*
X56681348Y26958800D02*
X56697348Y26974800D01*
X54949600Y34493200D02*
X54492400Y34036000D01*
X56697348Y25119751D02*
X56697348Y26974800D01*
X33477200Y28431600D02*
X36800000Y28431600D01*
X37842548Y26958800D02*
X43300000Y26958800D01*
X43316400Y26942400D02*
X43300000Y26958800D01*
X56692800Y32664400D02*
X56692800Y34493200D01*
X50327600Y32687500D02*
X56669700Y32687500D01*
X56692800Y34493200D02*
X54949600Y34493200D01*
D35*
%TO.N,Net-(D3-A2)*%
X47199148Y18964400D02*
X47199148Y16932400D01*
X49970048Y17639900D02*
X50013148Y17596800D01*
D34*
X49970048Y19039800D02*
X49970048Y17639900D01*
X50013148Y17596800D02*
X56116747Y17596800D01*
X47274548Y19039800D02*
X49970048Y19039800D01*
%TO.N,Net-(D3-A1)*%
X49942348Y20939800D02*
X47223748Y20939800D01*
D35*
X49983948Y22596800D02*
X49942348Y22555200D01*
D34*
X49942348Y22555200D02*
X49942348Y20939800D01*
D35*
X47199148Y23012400D02*
X47199148Y20964400D01*
D34*
X56674397Y22596800D02*
X49983948Y22596800D01*
%TO.N,Net-(J1-Pin_2)*%
X47345600Y11785600D02*
X48514000Y10617200D01*
X51206400Y10617200D02*
X53208951Y12619751D01*
X48514000Y10617200D02*
X51206400Y10617200D01*
X47345600Y13208000D02*
X47345600Y11785600D01*
X53208951Y12619751D02*
X56697348Y12619751D01*
D35*
%TO.N,Net-(U2-\u002ARE)*%
X39928800Y25450800D02*
X41434000Y25450800D01*
X37785398Y20751800D02*
X37785398Y19481800D01*
X39096548Y20751800D02*
X39928800Y21584052D01*
X39928800Y21584052D02*
X39928800Y25450800D01*
X37785398Y20751800D02*
X39096548Y20751800D01*
%TO.N,Net-(U2-B)*%
X43233698Y20751800D02*
X44223348Y20751800D01*
X45199148Y21727600D02*
X45199148Y23012400D01*
X44223348Y20751800D02*
X45199148Y21727600D01*
%TO.N,Net-(U2-A)*%
X45183148Y18522000D02*
X45183148Y16916400D01*
X44223348Y19481800D02*
X45183148Y18522000D01*
X43233698Y19481800D02*
X44223348Y19481800D01*
%TO.N,Net-(U1-SDA{slash}D2)*%
X9090000Y18271600D02*
X7250000Y16431600D01*
X7250000Y16431600D02*
X5484000Y16431600D01*
X10617200Y18271600D02*
X9090000Y18271600D01*
%TO.N,Net-(D1-R)*%
X1800000Y29431600D02*
X1800000Y23631600D01*
X3200000Y29431600D02*
X1800000Y29431600D01*
X1900000Y23531600D02*
X4200000Y23531600D01*
X1800000Y23631600D02*
X1900000Y23531600D01*
%TO.N,Net-(D5-R)*%
X6200000Y7331600D02*
X500000Y7331600D01*
X500000Y16931600D02*
X2489200Y18920800D01*
X2489200Y18920800D02*
X3500000Y18920800D01*
X6300000Y7431600D02*
X6200000Y7331600D01*
X6300000Y8031600D02*
X6300000Y7431600D01*
X500000Y7331600D02*
X500000Y16931600D01*
%TO.N,Net-(U1-D3)*%
X7189200Y18920800D02*
X9080000Y20811600D01*
X5500000Y18920800D02*
X7189200Y18920800D01*
X9080000Y20811600D02*
X10617200Y20811600D01*
%TO.N,Net-(D5-G)*%
X2400000Y16431600D02*
X3484000Y16431600D01*
X4400000Y8031600D02*
X1300000Y8031600D01*
X1300000Y8031600D02*
X1300000Y15331600D01*
X1300000Y15331600D02*
X2400000Y16431600D01*
D34*
%TO.N,/Reg Pin*%
X45770800Y4775200D02*
X47447200Y3098800D01*
X47447200Y3098800D02*
X49885600Y3098800D01*
X45770800Y10668000D02*
X45770800Y4775200D01*
X44811548Y11627252D02*
X45770800Y10668000D01*
X44811548Y13004800D02*
X44811548Y11627252D01*
D35*
%TO.N,Net-(Q1-D)*%
X49358500Y30831600D02*
X49377600Y30812500D01*
X49377600Y30812500D02*
X52148500Y30812500D01*
X53293200Y15138400D02*
X56678699Y15138400D01*
X46200000Y30831600D02*
X49358500Y30831600D01*
X52400000Y16031600D02*
X53293200Y15138400D01*
%TO.N,Net-(Q1-S)*%
X48427600Y32687500D02*
X48427600Y34442400D01*
X29400000Y32448000D02*
X33383600Y36431600D01*
X48427600Y36431600D02*
X48427600Y32687500D01*
X33383600Y36431600D02*
X48427600Y36431600D01*
X31775000Y18256600D02*
X29400000Y20631600D01*
X33477200Y18271600D02*
X33462200Y18256600D01*
X52086000Y34442400D02*
X52492400Y34036000D01*
X29400000Y20631600D02*
X29400000Y32448000D01*
X33462200Y18256600D02*
X31775000Y18256600D01*
X48427600Y34442400D02*
X52086000Y34442400D01*
%TO.N,Net-(D5-B)*%
X2139200Y14170800D02*
X2100000Y14131600D01*
X3500000Y14170800D02*
X2139200Y14170800D01*
X2100000Y14131600D02*
X2100000Y8931600D01*
X2100000Y8931600D02*
X4400000Y8931600D01*
%TO.N,Net-(U1-SCL{slash}D1)*%
X7339200Y14170800D02*
X5500000Y14170800D01*
X10617200Y15731600D02*
X8900000Y15731600D01*
X8900000Y15731600D02*
X7339200Y14170800D01*
%TO.N,Net-(U1-MISO{slash}D6)*%
X25552400Y20784000D02*
X25552400Y27889200D01*
X25552400Y27889200D02*
X20421600Y33020000D01*
X8788400Y33020000D02*
X5200000Y29431600D01*
X25550000Y20781600D02*
X25552400Y20784000D01*
X20421600Y33020000D02*
X8788400Y33020000D01*
%TO.N,Net-(U1-D0)*%
X24079200Y15731600D02*
X33477200Y15731600D01*
X10124800Y32156400D02*
X19812000Y32156400D01*
X19812000Y32156400D02*
X24079200Y27889200D01*
X5200000Y27231600D02*
X10124800Y32156400D01*
X24079200Y27889200D02*
X24079200Y15731600D01*
%TO.N,Net-(D1-G)*%
X3200000Y27231600D02*
X3200000Y25631600D01*
X6100000Y25631600D02*
X6100000Y23531600D01*
X3200000Y25631600D02*
X6100000Y25631600D01*
%TO.N,Net-(J2-Pin_1)*%
X37842548Y24958800D02*
X37842548Y23431600D01*
X36000000Y13231600D02*
X36000000Y23251600D01*
X38300000Y13231600D02*
X36000000Y13231600D01*
X33477200Y23351600D02*
X36100000Y23351600D01*
X37762548Y23351600D02*
X37842548Y23431600D01*
X36100000Y23351600D02*
X37762548Y23351600D01*
X36000000Y23251600D02*
X36100000Y23351600D01*
X37842548Y23431600D02*
X37842548Y22078950D01*
X37842548Y22078950D02*
X37785398Y22021800D01*
%TO.N,Net-(J2-Pin_2)*%
X39119800Y18211800D02*
X40840000Y16491600D01*
X40840000Y16491600D02*
X40840000Y13231600D01*
X37785398Y18211800D02*
X39119800Y18211800D01*
%TD*%
%TA.AperFunction,Conductor*%
%TO.N,GND*%
G36*
X53937561Y21818615D02*
G01*
X53983316Y21765811D01*
X53986697Y21757649D01*
X53998559Y21725847D01*
X54086187Y21608790D01*
X54086188Y21608789D01*
X54086189Y21608788D01*
X54094162Y21602820D01*
X54102000Y21596953D01*
X54102000Y21488400D01*
X54279804Y21488400D01*
X54283272Y21487943D01*
X54310424Y21481185D01*
X54340244Y21470063D01*
X54340247Y21470062D01*
X54367498Y21467133D01*
X54400793Y21463552D01*
X54400810Y21463551D01*
X58993886Y21463551D01*
X58993902Y21463552D01*
X59020940Y21466460D01*
X59054449Y21470062D01*
X59054453Y21470064D01*
X59054455Y21470064D01*
X59082654Y21480581D01*
X59125988Y21488400D01*
X60366255Y21488400D01*
X60378409Y21487803D01*
X60555289Y21470382D01*
X60579117Y21465643D01*
X60743349Y21415824D01*
X60765801Y21406523D01*
X60778810Y21399570D01*
X60917146Y21325628D01*
X60937358Y21312123D01*
X61070014Y21203255D01*
X61087202Y21186067D01*
X61196070Y21053411D01*
X61209575Y21033199D01*
X61290469Y20881857D01*
X61299772Y20859399D01*
X61349588Y20695176D01*
X61354330Y20671335D01*
X61371751Y20494462D01*
X61372348Y20482308D01*
X61372348Y19751293D01*
X61371751Y19739139D01*
X61354330Y19562266D01*
X61349588Y19538425D01*
X61299772Y19374202D01*
X61290469Y19351744D01*
X61209575Y19200402D01*
X61196070Y19180190D01*
X61087202Y19047534D01*
X61070014Y19030346D01*
X60937358Y18921478D01*
X60917146Y18907973D01*
X60765804Y18827079D01*
X60743346Y18817776D01*
X60579123Y18767960D01*
X60555282Y18763218D01*
X60378409Y18745797D01*
X60366255Y18745200D01*
X59141811Y18745200D01*
X59098478Y18753018D01*
X59054446Y18769441D01*
X59054447Y18769441D01*
X58993902Y18775951D01*
X58993886Y18775951D01*
X54400810Y18775951D01*
X54400793Y18775951D01*
X54340245Y18769440D01*
X54340243Y18769440D01*
X54275255Y18745200D01*
X54102000Y18745200D01*
X54102000Y18642550D01*
X54086187Y18630712D01*
X53998560Y18513658D01*
X53998559Y18513655D01*
X53969581Y18435964D01*
X53927711Y18380033D01*
X53862247Y18355616D01*
X53853401Y18355300D01*
X51928026Y18355300D01*
X51869573Y18369942D01*
X51718349Y18450773D01*
X51698137Y18464278D01*
X51565481Y18573146D01*
X51548293Y18590334D01*
X51439425Y18722990D01*
X51425920Y18743202D01*
X51415221Y18763218D01*
X51345025Y18894547D01*
X51335723Y18917002D01*
X51285905Y19081231D01*
X51281166Y19105061D01*
X51269820Y19220263D01*
X51266532Y19253648D01*
X51279551Y19322294D01*
X51327616Y19373004D01*
X51389935Y19389801D01*
X51595048Y19389801D01*
X52095048Y19389801D01*
X52486744Y19389801D01*
X52517154Y19392652D01*
X52616077Y19427266D01*
X54149449Y19427266D01*
X54149450Y19427243D01*
X54152356Y19402182D01*
X54152357Y19402178D01*
X54197659Y19299577D01*
X54197662Y19299572D01*
X54276968Y19220266D01*
X54276973Y19220263D01*
X54379571Y19174962D01*
X54404654Y19172052D01*
X56447347Y19172052D01*
X56947348Y19172052D01*
X58990034Y19172052D01*
X58990056Y19172054D01*
X59015117Y19174960D01*
X59015121Y19174961D01*
X59117722Y19220263D01*
X59117727Y19220266D01*
X59197033Y19299572D01*
X59197036Y19299577D01*
X59242337Y19402174D01*
X59242337Y19402176D01*
X59245247Y19427257D01*
X59245248Y19427260D01*
X59245248Y19869751D01*
X56947348Y19869751D01*
X56947348Y19172052D01*
X56447347Y19172052D01*
X56447348Y19172053D01*
X56447348Y19869751D01*
X54149449Y19869751D01*
X54149449Y19427266D01*
X52616077Y19427266D01*
X52645193Y19437454D01*
X52754340Y19518008D01*
X52834894Y19627155D01*
X52874310Y19739800D01*
X52095048Y19739800D01*
X52095048Y19389801D01*
X51595048Y19389801D01*
X51595048Y20239800D01*
X52095048Y20239800D01*
X52874309Y20239800D01*
X52834894Y20352446D01*
X52754340Y20461593D01*
X52645193Y20542147D01*
X52517150Y20586950D01*
X52486755Y20589800D01*
X52095048Y20589800D01*
X52095048Y20239800D01*
X51595048Y20239800D01*
X51595048Y20589800D01*
X51387148Y20589800D01*
X51320109Y20609485D01*
X51274354Y20662289D01*
X51263148Y20713800D01*
X51263148Y20812246D01*
X54149448Y20812246D01*
X54149448Y20369751D01*
X56447348Y20369751D01*
X56947348Y20369751D01*
X59245247Y20369751D01*
X59245247Y20812237D01*
X59245245Y20812260D01*
X59242339Y20837321D01*
X59242338Y20837325D01*
X59197036Y20939926D01*
X59197033Y20939931D01*
X59117727Y21019237D01*
X59117722Y21019240D01*
X59015124Y21064541D01*
X58990042Y21067451D01*
X56947348Y21067451D01*
X56947348Y20369751D01*
X56447348Y20369751D01*
X56447348Y21067451D01*
X54404662Y21067451D01*
X54404639Y21067449D01*
X54379578Y21064543D01*
X54379574Y21064542D01*
X54276973Y21019240D01*
X54276968Y21019237D01*
X54197662Y20939931D01*
X54197659Y20939926D01*
X54152358Y20837329D01*
X54152358Y20837327D01*
X54149448Y20812246D01*
X51263148Y20812246D01*
X51263148Y20837908D01*
X51263745Y20850062D01*
X51265815Y20871083D01*
X51281166Y21026944D01*
X51285905Y21050768D01*
X51335725Y21215006D01*
X51345023Y21237451D01*
X51425923Y21388805D01*
X51439420Y21409005D01*
X51548297Y21541672D01*
X51565476Y21558851D01*
X51698143Y21667728D01*
X51718343Y21681225D01*
X51869697Y21762125D01*
X51892142Y21771423D01*
X52056380Y21821243D01*
X52080206Y21825982D01*
X52179209Y21835733D01*
X52199216Y21837703D01*
X52211369Y21838300D01*
X53870522Y21838300D01*
X53937561Y21818615D01*
G37*
%TD.AperFunction*%
%TD*%
%TA.AperFunction,Conductor*%
%TO.N,GND*%
G36*
X42043039Y34911915D02*
G01*
X42088794Y34859111D01*
X42100000Y34807600D01*
X42100000Y33820267D01*
X42080315Y33753228D01*
X42041099Y33714730D01*
X42026350Y33705633D01*
X41900967Y33580249D01*
X41900541Y33579557D01*
X41900123Y33579182D01*
X41896489Y33574585D01*
X41895703Y33575207D01*
X41848591Y33532836D01*
X41779627Y33521617D01*
X41715547Y33549464D01*
X41697739Y33570022D01*
X41696798Y33569277D01*
X41692316Y33574945D01*
X41568345Y33698916D01*
X41419124Y33790957D01*
X41419119Y33790959D01*
X41252697Y33846106D01*
X41252690Y33846107D01*
X41149986Y33856600D01*
X41012500Y33856600D01*
X41012500Y31406601D01*
X41149972Y31406601D01*
X41149986Y31406602D01*
X41252697Y31417095D01*
X41419119Y31472242D01*
X41419124Y31472244D01*
X41568345Y31564285D01*
X41692316Y31688256D01*
X41696798Y31693923D01*
X41698991Y31692189D01*
X41741357Y31730335D01*
X41810314Y31741592D01*
X41874410Y31713782D01*
X41896334Y31688494D01*
X41896489Y31688615D01*
X41899183Y31685208D01*
X41900545Y31683637D01*
X41900969Y31682949D01*
X41905181Y31678737D01*
X41938666Y31617414D01*
X41941500Y31591056D01*
X41941500Y30892679D01*
X41921815Y30825640D01*
X41869011Y30779885D01*
X41856504Y30774973D01*
X41777264Y30748716D01*
X41777259Y30748714D01*
X41626346Y30655629D01*
X41500971Y30530254D01*
X41407886Y30379341D01*
X41407884Y30379336D01*
X41352113Y30211028D01*
X41341500Y30107153D01*
X41341500Y29156063D01*
X41341501Y29156047D01*
X41352113Y29052173D01*
X41407884Y28883865D01*
X41407886Y28883860D01*
X41500971Y28732947D01*
X41563681Y28670237D01*
X41597166Y28608914D01*
X41600000Y28582556D01*
X41600000Y28455600D01*
X41580315Y28388561D01*
X41527511Y28342806D01*
X41476000Y28331600D01*
X40747280Y28331600D01*
X40680241Y28351285D01*
X40634486Y28404089D01*
X40624542Y28473247D01*
X40653567Y28536803D01*
X40682183Y28561139D01*
X40768345Y28614285D01*
X40892315Y28738255D01*
X40984356Y28887476D01*
X40984358Y28887481D01*
X41039505Y29053903D01*
X41039506Y29053910D01*
X41049999Y29156614D01*
X41050000Y29156627D01*
X41050000Y29381600D01*
X38475001Y29381600D01*
X38475001Y29156614D01*
X38485494Y29053903D01*
X38540641Y28887481D01*
X38540643Y28887476D01*
X38632684Y28738255D01*
X38756654Y28614285D01*
X38842817Y28561139D01*
X38889541Y28509191D01*
X38900764Y28440228D01*
X38872920Y28376146D01*
X38814852Y28337290D01*
X38777720Y28331600D01*
X38024043Y28331600D01*
X37957004Y28351285D01*
X37936362Y28367919D01*
X37836319Y28467962D01*
X37802834Y28529285D01*
X37800000Y28555643D01*
X37800000Y30106587D01*
X38475000Y30106587D01*
X38475000Y29881600D01*
X39512500Y29881600D01*
X40012500Y29881600D01*
X41049999Y29881600D01*
X41049999Y30106572D01*
X41049998Y30106587D01*
X41039505Y30209298D01*
X40984358Y30375720D01*
X40984356Y30375725D01*
X40892315Y30524946D01*
X40768345Y30648916D01*
X40619124Y30740957D01*
X40619119Y30740959D01*
X40452697Y30796106D01*
X40452690Y30796107D01*
X40349986Y30806600D01*
X40012500Y30806600D01*
X40012500Y29881600D01*
X39512500Y29881600D01*
X39512500Y30806600D01*
X39175028Y30806600D01*
X39175012Y30806599D01*
X39072302Y30796106D01*
X38905880Y30740959D01*
X38905875Y30740957D01*
X38756654Y30648916D01*
X38632684Y30524946D01*
X38540643Y30375725D01*
X38540641Y30375720D01*
X38485494Y30209298D01*
X38485493Y30209291D01*
X38475000Y30106587D01*
X37800000Y30106587D01*
X37800000Y32106614D01*
X39675001Y32106614D01*
X39685494Y32003903D01*
X39740641Y31837481D01*
X39740643Y31837476D01*
X39832684Y31688255D01*
X39956654Y31564285D01*
X40105875Y31472244D01*
X40105880Y31472242D01*
X40272302Y31417095D01*
X40272309Y31417094D01*
X40375019Y31406601D01*
X40512499Y31406601D01*
X40512500Y31406602D01*
X40512500Y32381600D01*
X39675001Y32381600D01*
X39675001Y32106614D01*
X37800000Y32106614D01*
X37800000Y33156587D01*
X39675000Y33156587D01*
X39675000Y32881600D01*
X40512500Y32881600D01*
X40512500Y33856600D01*
X40375027Y33856600D01*
X40375012Y33856599D01*
X40272302Y33846106D01*
X40105880Y33790959D01*
X40105875Y33790957D01*
X39956654Y33698916D01*
X39832684Y33574946D01*
X39740643Y33425725D01*
X39740641Y33425720D01*
X39685494Y33259298D01*
X39685493Y33259291D01*
X39675000Y33156587D01*
X37800000Y33156587D01*
X37800000Y34807600D01*
X37819685Y34874639D01*
X37872489Y34920394D01*
X37924000Y34931600D01*
X41976000Y34931600D01*
X42043039Y34911915D01*
G37*
%TD.AperFunction*%
%TD*%
M02*
