%TF.GenerationSoftware,KiCad,Pcbnew,8.0.8*%
%TF.CreationDate,2026-01-01T17:30:43-08:00*%
%TF.ProjectId,navien,6e617669-656e-42e6-9b69-6361645f7063,rev?*%
%TF.SameCoordinates,Original*%
%TF.FileFunction,Legend,Bot*%
%TF.FilePolarity,Positive*%
%FSLAX46Y46*%
G04 Gerber Fmt 4.6, Leading zero omitted, Abs format (unit mm)*
G04 Created by KiCad (PCBNEW 8.0.8) date 2026-01-01 17:30:43*
%MOMM*%
%LPD*%
G01*
G04 APERTURE LIST*
%ADD10C,0.150000*%
%ADD11C,0.508000*%
%ADD12C,1.524000*%
%ADD13R,1.700000X1.700000*%
%ADD14O,1.700000X1.700000*%
%ADD15R,2.000000X2.000000*%
%ADD16O,2.000000X1.600000*%
%ADD17C,2.500000*%
%ADD18R,2.000000X1.905000*%
%ADD19O,2.000000X1.905000*%
G04 APERTURE END LIST*
D10*
X63163220Y12499934D02*
X62401316Y12499934D01*
X62782268Y12118981D02*
X62782268Y12880886D01*
X61448935Y13118981D02*
X61925125Y13118981D01*
X61925125Y13118981D02*
X61972744Y12642791D01*
X61972744Y12642791D02*
X61925125Y12690410D01*
X61925125Y12690410D02*
X61829887Y12738029D01*
X61829887Y12738029D02*
X61591792Y12738029D01*
X61591792Y12738029D02*
X61496554Y12690410D01*
X61496554Y12690410D02*
X61448935Y12642791D01*
X61448935Y12642791D02*
X61401316Y12547553D01*
X61401316Y12547553D02*
X61401316Y12309458D01*
X61401316Y12309458D02*
X61448935Y12214220D01*
X61448935Y12214220D02*
X61496554Y12166600D01*
X61496554Y12166600D02*
X61591792Y12118981D01*
X61591792Y12118981D02*
X61829887Y12118981D01*
X61829887Y12118981D02*
X61925125Y12166600D01*
X61925125Y12166600D02*
X61972744Y12214220D01*
X61115601Y13118981D02*
X60782268Y12118981D01*
X60782268Y12118981D02*
X60448935Y13118981D01*
X63315620Y24996734D02*
X62553716Y24996734D01*
X62934668Y24615781D02*
X62934668Y25377686D01*
X62172763Y25615781D02*
X61553716Y25615781D01*
X61553716Y25615781D02*
X61887049Y25234829D01*
X61887049Y25234829D02*
X61744192Y25234829D01*
X61744192Y25234829D02*
X61648954Y25187210D01*
X61648954Y25187210D02*
X61601335Y25139591D01*
X61601335Y25139591D02*
X61553716Y25044353D01*
X61553716Y25044353D02*
X61553716Y24806258D01*
X61553716Y24806258D02*
X61601335Y24711020D01*
X61601335Y24711020D02*
X61648954Y24663400D01*
X61648954Y24663400D02*
X61744192Y24615781D01*
X61744192Y24615781D02*
X62029906Y24615781D01*
X62029906Y24615781D02*
X62125144Y24663400D01*
X62125144Y24663400D02*
X62172763Y24711020D01*
X61125144Y24711020D02*
X61077525Y24663400D01*
X61077525Y24663400D02*
X61125144Y24615781D01*
X61125144Y24615781D02*
X61172763Y24663400D01*
X61172763Y24663400D02*
X61125144Y24711020D01*
X61125144Y24711020D02*
X61125144Y24615781D01*
X60744192Y25615781D02*
X60125145Y25615781D01*
X60125145Y25615781D02*
X60458478Y25234829D01*
X60458478Y25234829D02*
X60315621Y25234829D01*
X60315621Y25234829D02*
X60220383Y25187210D01*
X60220383Y25187210D02*
X60172764Y25139591D01*
X60172764Y25139591D02*
X60125145Y25044353D01*
X60125145Y25044353D02*
X60125145Y24806258D01*
X60125145Y24806258D02*
X60172764Y24711020D01*
X60172764Y24711020D02*
X60220383Y24663400D01*
X60220383Y24663400D02*
X60315621Y24615781D01*
X60315621Y24615781D02*
X60601335Y24615781D01*
X60601335Y24615781D02*
X60696573Y24663400D01*
X60696573Y24663400D02*
X60744192Y24711020D01*
X59839430Y25615781D02*
X59506097Y24615781D01*
X59506097Y24615781D02*
X59172764Y25615781D01*
X63007639Y17484696D02*
X62531449Y17484696D01*
X63102877Y17198981D02*
X62769544Y18198981D01*
X62769544Y18198981D02*
X62436211Y17198981D01*
X63061620Y14608181D02*
X63061620Y15608181D01*
X63061620Y15608181D02*
X62823525Y15608181D01*
X62823525Y15608181D02*
X62680668Y15560562D01*
X62680668Y15560562D02*
X62585430Y15465324D01*
X62585430Y15465324D02*
X62537811Y15370086D01*
X62537811Y15370086D02*
X62490192Y15179610D01*
X62490192Y15179610D02*
X62490192Y15036753D01*
X62490192Y15036753D02*
X62537811Y14846277D01*
X62537811Y14846277D02*
X62585430Y14751039D01*
X62585430Y14751039D02*
X62680668Y14655800D01*
X62680668Y14655800D02*
X62823525Y14608181D01*
X62823525Y14608181D02*
X63061620Y14608181D01*
X61585430Y15608181D02*
X62061620Y15608181D01*
X62061620Y15608181D02*
X62109239Y15131991D01*
X62109239Y15131991D02*
X62061620Y15179610D01*
X62061620Y15179610D02*
X61966382Y15227229D01*
X61966382Y15227229D02*
X61728287Y15227229D01*
X61728287Y15227229D02*
X61633049Y15179610D01*
X61633049Y15179610D02*
X61585430Y15131991D01*
X61585430Y15131991D02*
X61537811Y15036753D01*
X61537811Y15036753D02*
X61537811Y14798658D01*
X61537811Y14798658D02*
X61585430Y14703420D01*
X61585430Y14703420D02*
X61633049Y14655800D01*
X61633049Y14655800D02*
X61728287Y14608181D01*
X61728287Y14608181D02*
X61966382Y14608181D01*
X61966382Y14608181D02*
X62061620Y14655800D01*
X62061620Y14655800D02*
X62109239Y14703420D01*
X62436211Y20589762D02*
X62531449Y20637381D01*
X62531449Y20637381D02*
X62674306Y20637381D01*
X62674306Y20637381D02*
X62817163Y20589762D01*
X62817163Y20589762D02*
X62912401Y20494524D01*
X62912401Y20494524D02*
X62960020Y20399286D01*
X62960020Y20399286D02*
X63007639Y20208810D01*
X63007639Y20208810D02*
X63007639Y20065953D01*
X63007639Y20065953D02*
X62960020Y19875477D01*
X62960020Y19875477D02*
X62912401Y19780239D01*
X62912401Y19780239D02*
X62817163Y19685000D01*
X62817163Y19685000D02*
X62674306Y19637381D01*
X62674306Y19637381D02*
X62579068Y19637381D01*
X62579068Y19637381D02*
X62436211Y19685000D01*
X62436211Y19685000D02*
X62388592Y19732620D01*
X62388592Y19732620D02*
X62388592Y20065953D01*
X62388592Y20065953D02*
X62579068Y20065953D01*
X62626687Y22701191D02*
X62483830Y22653572D01*
X62483830Y22653572D02*
X62436211Y22605953D01*
X62436211Y22605953D02*
X62388592Y22510715D01*
X62388592Y22510715D02*
X62388592Y22367858D01*
X62388592Y22367858D02*
X62436211Y22272620D01*
X62436211Y22272620D02*
X62483830Y22225000D01*
X62483830Y22225000D02*
X62579068Y22177381D01*
X62579068Y22177381D02*
X62960020Y22177381D01*
X62960020Y22177381D02*
X62960020Y23177381D01*
X62960020Y23177381D02*
X62626687Y23177381D01*
X62626687Y23177381D02*
X62531449Y23129762D01*
X62531449Y23129762D02*
X62483830Y23082143D01*
X62483830Y23082143D02*
X62436211Y22986905D01*
X62436211Y22986905D02*
X62436211Y22891667D01*
X62436211Y22891667D02*
X62483830Y22796429D01*
X62483830Y22796429D02*
X62531449Y22748810D01*
X62531449Y22748810D02*
X62626687Y22701191D01*
X62626687Y22701191D02*
X62960020Y22701191D01*
D11*
%TO.C,J3*%
X57132149Y10369751D02*
G75*
G02*
X56370149Y10369751I-381000J0D01*
G01*
X56370149Y10369751D02*
G75*
G02*
X57132149Y10369751I381000J0D01*
G01*
%TD*%
%LPC*%
D12*
%TO.C,D1*%
X3150000Y20981600D03*
X7250000Y25081600D03*
%TD*%
%TO.C,D5*%
X7350000Y6481600D03*
X3250000Y10581600D03*
%TD*%
D13*
%TO.C,J1*%
X49885600Y13208000D03*
D14*
X47345600Y13208000D03*
X44805600Y13208000D03*
%TD*%
D15*
%TO.C,U1*%
X33477200Y10651600D03*
D16*
X33477200Y13191600D03*
X33477200Y15731600D03*
X33477200Y18271600D03*
X33477200Y20811600D03*
X33477200Y23351600D03*
X33477200Y25891600D03*
X33477200Y28431600D03*
X10617200Y28431600D03*
X10617200Y25891600D03*
X10617200Y23351600D03*
X10617200Y20811600D03*
X10617200Y18271600D03*
X10617200Y15731600D03*
X10617200Y13191600D03*
X10617200Y10651600D03*
%TD*%
D17*
%TO.C,REF3*%
X60850000Y4031600D03*
%TD*%
%TO.C,REF1*%
X3003148Y32831600D03*
%TD*%
D13*
%TO.C,J2*%
X38300000Y13231600D03*
D14*
X40840000Y13231600D03*
%TD*%
D17*
%TO.C,REF4*%
X3003148Y3931600D03*
%TD*%
D18*
%TO.C,U3*%
X49885600Y3098800D03*
D19*
X49885600Y5638800D03*
X49885600Y8178800D03*
%TD*%
D17*
%TO.C,REF2*%
X60900000Y32831600D03*
%TD*%
%LPD*%
M02*
