%TF.GenerationSoftware,KiCad,Pcbnew,8.0.8*%
%TF.CreationDate,2026-01-01T17:30:43-08:00*%
%TF.ProjectId,navien,6e617669-656e-42e6-9b69-6361645f7063,rev?*%
%TF.SameCoordinates,Original*%
%TF.FileFunction,Paste,Top*%
%TF.FilePolarity,Positive*%
%FSLAX46Y46*%
G04 Gerber Fmt 4.6, Leading zero omitted, Abs format (unit mm)*
G04 Created by KiCad (PCBNEW 8.0.8) date 2026-01-01 17:30:43*
%MOMM*%
%LPD*%
G01*
G04 APERTURE LIST*
G04 Aperture macros list*
%AMRoundRect*
0 Rectangle with rounded corners*
0 $1 Rounding radius*
0 $2 $3 $4 $5 $6 $7 $8 $9 X,Y pos of 4 corners*
0 Add a 4 corners polygon primitive as box body*
4,1,4,$2,$3,$4,$5,$6,$7,$8,$9,$2,$3,0*
0 Add four circle primitives for the rounded corners*
1,1,$1+$1,$2,$3*
1,1,$1+$1,$4,$5*
1,1,$1+$1,$6,$7*
1,1,$1+$1,$8,$9*
0 Add four rect primitives between the rounded corners*
20,1,$1+$1,$2,$3,$4,$5,0*
20,1,$1+$1,$4,$5,$6,$7,0*
20,1,$1+$1,$6,$7,$8,$9,0*
20,1,$1+$1,$8,$9,$2,$3,0*%
G04 Aperture macros list end*
%ADD10R,1.100000X0.600000*%
%ADD11RoundRect,0.250000X0.450000X-0.350000X0.450000X0.350000X-0.450000X0.350000X-0.450000X-0.350000X0*%
%ADD12R,4.495800X1.295400*%
%ADD13R,2.709601X1.803400*%
%ADD14R,2.709601X1.851698*%
%ADD15RoundRect,0.250000X-0.350000X-0.450000X0.350000X-0.450000X0.350000X0.450000X-0.350000X0.450000X0*%
%ADD16RoundRect,0.250000X-0.337500X-0.475000X0.337500X-0.475000X0.337500X0.475000X-0.337500X0.475000X0*%
%ADD17R,1.460500X0.558800*%
%ADD18RoundRect,0.250000X0.425000X-0.537500X0.425000X0.537500X-0.425000X0.537500X-0.425000X-0.537500X0*%
%ADD19RoundRect,0.250000X0.537500X0.425000X-0.537500X0.425000X-0.537500X-0.425000X0.537500X-0.425000X0*%
%ADD20RoundRect,0.250000X0.337500X0.475000X-0.337500X0.475000X-0.337500X-0.475000X0.337500X-0.475000X0*%
%ADD21RoundRect,0.250000X0.350000X0.450000X-0.350000X0.450000X-0.350000X-0.450000X0.350000X-0.450000X0*%
%ADD22RoundRect,0.150000X-0.587500X-0.150000X0.587500X-0.150000X0.587500X0.150000X-0.587500X0.150000X0*%
%ADD23RoundRect,0.150000X-0.150000X0.587500X-0.150000X-0.587500X0.150000X-0.587500X0.150000X0.587500X0*%
%ADD24RoundRect,0.250000X-0.450000X0.350000X-0.450000X-0.350000X0.450000X-0.350000X0.450000X0.350000X0*%
G04 APERTURE END LIST*
D10*
%TO.C,D1*%
X4200000Y22631600D03*
X6100000Y22631600D03*
X6100000Y23531600D03*
X4200000Y23531600D03*
%TD*%
%TO.C,D5*%
X6300000Y8931600D03*
X4400000Y8931600D03*
X4400000Y8031600D03*
X6300000Y8031600D03*
%TD*%
D11*
%TO.C,R3*%
X47199148Y18964400D03*
X47199148Y20964400D03*
%TD*%
%TO.C,R10*%
X46200000Y30831600D03*
X46200000Y32831600D03*
%TD*%
D12*
%TO.C,J3*%
X56697348Y12619751D03*
X56697348Y15119751D03*
X56697348Y17619751D03*
X56697348Y20119751D03*
X56697348Y22619751D03*
X56697348Y25119751D03*
D13*
X62896348Y9419752D03*
D14*
X62896348Y28295600D03*
%TD*%
D15*
%TO.C,R6*%
X3500000Y18920800D03*
X5500000Y18920800D03*
%TD*%
D16*
%TO.C,C4*%
X45167148Y25450800D03*
X47242148Y25450800D03*
%TD*%
D17*
%TO.C,U2*%
X37785398Y22021800D03*
X37785398Y20751800D03*
X37785398Y19481800D03*
X37785398Y18211800D03*
X43233698Y18211800D03*
X43233698Y19481800D03*
X43233698Y20751800D03*
X43233698Y22021800D03*
%TD*%
D15*
%TO.C,R11*%
X3200000Y27231600D03*
X5200000Y27231600D03*
%TD*%
D18*
%TO.C,C3*%
X54051200Y2931300D03*
X54051200Y5806300D03*
%TD*%
D15*
%TO.C,R7*%
X3484000Y16431600D03*
X5484000Y16431600D03*
%TD*%
%TO.C,R8*%
X3500000Y14170800D03*
X5500000Y14170800D03*
%TD*%
D19*
%TO.C,C2*%
X42637500Y29631600D03*
X39762500Y29631600D03*
%TD*%
D20*
%TO.C,C1*%
X42837500Y32631600D03*
X40762500Y32631600D03*
%TD*%
D21*
%TO.C,R5*%
X47199148Y23012400D03*
X45199148Y23012400D03*
%TD*%
%TO.C,R1*%
X43316400Y25450800D03*
X41316400Y25450800D03*
%TD*%
%TO.C,R4*%
X47183148Y16916400D03*
X45183148Y16916400D03*
%TD*%
D22*
%TO.C,D3*%
X49970048Y20939800D03*
X49970048Y19039800D03*
X51845048Y19989800D03*
%TD*%
D15*
%TO.C,R9*%
X52492400Y34442400D03*
X54492400Y34442400D03*
%TD*%
D23*
%TO.C,Q1*%
X50327600Y32687500D03*
X48427600Y32687500D03*
X49377600Y30812500D03*
%TD*%
D15*
%TO.C,R12*%
X3200000Y29431600D03*
X5200000Y29431600D03*
%TD*%
D24*
%TO.C,R2*%
X37842548Y26958800D03*
X37842548Y24958800D03*
%TD*%
M02*
