%TF.GenerationSoftware,KiCad,Pcbnew,8.0.8*%
%TF.CreationDate,2026-01-01T17:30:43-08:00*%
%TF.ProjectId,navien,6e617669-656e-42e6-9b69-6361645f7063,rev?*%
%TF.SameCoordinates,Original*%
%TF.FileFunction,Copper,L2,Bot*%
%TF.FilePolarity,Positive*%
%FSLAX46Y46*%
G04 Gerber Fmt 4.6, Leading zero omitted, Abs format (unit mm)*
G04 Created by KiCad (PCBNEW 8.0.8) date 2026-01-01 17:30:43*
%MOMM*%
%LPD*%
G01*
G04 APERTURE LIST*
%TA.AperFunction,ComponentPad*%
%ADD10R,1.700000X1.700000*%
%TD*%
%TA.AperFunction,ComponentPad*%
%ADD11O,1.700000X1.700000*%
%TD*%
%TA.AperFunction,ComponentPad*%
%ADD12R,2.000000X2.000000*%
%TD*%
%TA.AperFunction,ComponentPad*%
%ADD13O,2.000000X1.600000*%
%TD*%
%TA.AperFunction,ComponentPad*%
%ADD14C,2.500000*%
%TD*%
%TA.AperFunction,ComponentPad*%
%ADD15R,2.000000X1.905000*%
%TD*%
%TA.AperFunction,ComponentPad*%
%ADD16O,2.000000X1.905000*%
%TD*%
%TA.AperFunction,ViaPad*%
%ADD17C,0.800000*%
%TD*%
%TA.AperFunction,ViaPad*%
%ADD18C,1.500000*%
%TD*%
%TA.AperFunction,Conductor*%
%ADD19C,0.500000*%
%TD*%
%TA.AperFunction,Conductor*%
%ADD20C,0.250000*%
%TD*%
G04 APERTURE END LIST*
D10*
%TO.P,J1,1,Pin_1*%
%TO.N,+5V*%
X49885600Y13208000D03*
D11*
%TO.P,J1,2,Pin_2*%
%TO.N,Net-(J1-Pin_2)*%
X47345600Y13208000D03*
%TO.P,J1,3,Pin_3*%
%TO.N,/Reg Pin*%
X44805600Y13208000D03*
%TD*%
D12*
%TO.P,U1,1,~{RST}*%
%TO.N,unconnected-(U1-~{RST}-Pad1)*%
X33477200Y10651600D03*
D13*
%TO.P,U1,2,A0*%
%TO.N,unconnected-(U1-A0-Pad2)*%
X33477200Y13191600D03*
%TO.P,U1,3,D0*%
%TO.N,Net-(U1-D0)*%
X33477200Y15731600D03*
%TO.P,U1,4,SCK/D5*%
%TO.N,Net-(Q1-S)*%
X33477200Y18271600D03*
%TO.P,U1,5,MISO/D6*%
%TO.N,Net-(U1-MISO{slash}D6)*%
X33477200Y20811600D03*
%TO.P,U1,6,MOSI/D7*%
%TO.N,Net-(J2-Pin_1)*%
X33477200Y23351600D03*
%TO.P,U1,7,CS/D8*%
%TO.N,Net-(J2-Pin_2)*%
X33477200Y25891600D03*
%TO.P,U1,8,3V3*%
%TO.N,+3.3V*%
X33477200Y28431600D03*
%TO.P,U1,9,5V*%
%TO.N,+5V*%
X10617200Y28431600D03*
%TO.P,U1,10,GND*%
%TO.N,GND*%
X10617200Y25891600D03*
%TO.P,U1,11,D4*%
%TO.N,unconnected-(U1-D4-Pad11)*%
X10617200Y23351600D03*
%TO.P,U1,12,D3*%
%TO.N,Net-(U1-D3)*%
X10617200Y20811600D03*
%TO.P,U1,13,SDA/D2*%
%TO.N,Net-(U1-SDA{slash}D2)*%
X10617200Y18271600D03*
%TO.P,U1,14,SCL/D1*%
%TO.N,Net-(U1-SCL{slash}D1)*%
X10617200Y15731600D03*
%TO.P,U1,15,RX*%
%TO.N,unconnected-(U1-RX-Pad15)*%
X10617200Y13191600D03*
%TO.P,U1,16,TX*%
%TO.N,unconnected-(U1-TX-Pad16)*%
X10617200Y10651600D03*
%TD*%
D14*
%TO.P,REF3,3*%
%TO.N,N/C*%
X60850000Y4031600D03*
%TD*%
%TO.P,REF1,1*%
%TO.N,N/C*%
X3003148Y32831600D03*
%TD*%
D10*
%TO.P,J2,1,Pin_1*%
%TO.N,Net-(J2-Pin_1)*%
X38300000Y13231600D03*
D11*
%TO.P,J2,2,Pin_2*%
%TO.N,Net-(J2-Pin_2)*%
X40840000Y13231600D03*
%TD*%
D14*
%TO.P,REF4,2*%
%TO.N,N/C*%
X3003148Y3931600D03*
%TD*%
D15*
%TO.P,U3,1,VI*%
%TO.N,/Reg Pin*%
X49885600Y3098800D03*
D16*
%TO.P,U3,2,GND*%
%TO.N,GND*%
X49885600Y5638800D03*
%TO.P,U3,3,VO*%
%TO.N,+5V*%
X49885600Y8178800D03*
%TD*%
D14*
%TO.P,REF2,4*%
%TO.N,N/C*%
X60900000Y32831600D03*
%TD*%
D17*
%TO.N,+5V*%
X44300000Y29631600D03*
X44300000Y32831600D03*
%TO.N,GND*%
X4200000Y22631600D03*
X60457948Y21031200D03*
X41661948Y18186400D03*
X60457948Y20116800D03*
X53396748Y20015200D03*
X53388162Y18915231D03*
X48875548Y25450800D03*
X38737500Y33431600D03*
X38737500Y32331600D03*
X53390800Y21082000D03*
X38737500Y31231600D03*
X4500000Y12131600D03*
X60457948Y19202400D03*
D18*
%TO.N,Net-(Q1-D)*%
X52400000Y16031600D03*
D17*
X52374800Y30784800D03*
%TO.N,Net-(U1-MISO{slash}D6)*%
X25550000Y20781600D03*
%TD*%
D19*
%TO.N,+5V*%
X44300000Y35509200D02*
X41605200Y35509200D01*
X49885600Y13208000D02*
X56794400Y13208000D01*
X44300000Y29631600D02*
X44300000Y35509200D01*
X10642200Y28406600D02*
X22056600Y28406600D01*
X49885600Y8178800D02*
X49885600Y13208000D01*
X56794400Y13208000D02*
X56794400Y35509200D01*
X10617200Y28431600D02*
X10642200Y28406600D01*
X56794400Y35509200D02*
X41605200Y35509200D01*
X29159200Y35509200D02*
X41605200Y35509200D01*
X22056600Y28406600D02*
X29159200Y35509200D01*
D20*
%TO.N,Net-(Q1-D)*%
X52400000Y16031600D02*
X52363162Y16068438D01*
X52363162Y30773162D02*
X52374800Y30784800D01*
X52363162Y16068438D02*
X52363162Y30773162D01*
%TO.N,Net-(U1-MISO{slash}D6)*%
X33472200Y20806600D02*
X33477200Y20811600D01*
X25550000Y20781600D02*
X25575000Y20806600D01*
X25575000Y20806600D02*
X33472200Y20806600D01*
%TO.N,Net-(J2-Pin_2)*%
X35966400Y24942800D02*
X35017600Y25891600D01*
X40840000Y13231600D02*
X40840000Y16462400D01*
X40840000Y16462400D02*
X35966400Y21336000D01*
X35017600Y25891600D02*
X33595200Y25891600D01*
X35966400Y21336000D02*
X35966400Y24942800D01*
X33595200Y25891600D02*
X33477200Y26009600D01*
%TD*%
%TA.AperFunction,Conductor*%
%TO.N,GND*%
G36*
X63478684Y36880194D02*
G01*
X63655109Y36862834D01*
X63679308Y36858025D01*
X63843028Y36808407D01*
X63865824Y36798974D01*
X63941278Y36758684D01*
X64016730Y36718396D01*
X64037253Y36704699D01*
X64169562Y36596249D01*
X64187018Y36578816D01*
X64295642Y36446667D01*
X64309371Y36426159D01*
X64390154Y36275369D01*
X64399622Y36252578D01*
X64449463Y36088932D01*
X64454306Y36064734D01*
X64471910Y35888337D01*
X64472533Y35875999D01*
X64520561Y1056041D01*
X64519972Y1043697D01*
X64502844Y867195D01*
X64498064Y842977D01*
X64448649Y679159D01*
X64439240Y656338D01*
X64358832Y505296D01*
X64345152Y484746D01*
X64236837Y352281D01*
X64219414Y334793D01*
X64087347Y225986D01*
X64066850Y212232D01*
X63916113Y131267D01*
X63893325Y121772D01*
X63729682Y71748D01*
X63705483Y66879D01*
X63596193Y55865D01*
X63529045Y49098D01*
X63516725Y48464D01*
X56886498Y33049D01*
X43685007Y2356D01*
X43672602Y2939D01*
X43495229Y20068D01*
X43470892Y24872D01*
X43306296Y74612D01*
X43283373Y84090D01*
X43131710Y165114D01*
X43111086Y178901D01*
X42978239Y288068D01*
X42960717Y305627D01*
X42918319Y357446D01*
X42851826Y438713D01*
X42838089Y459357D01*
X42757386Y611193D01*
X42747956Y634137D01*
X42698564Y798840D01*
X42693812Y823187D01*
X42689656Y867195D01*
X42677058Y1000603D01*
X42676502Y1012986D01*
X42718336Y10425556D01*
X42718335Y10425557D01*
X42718335Y10425564D01*
X42722800Y11430000D01*
X41718353Y11430000D01*
X35111700Y11430000D01*
X35043579Y11450002D01*
X34997086Y11503658D01*
X34985700Y11556000D01*
X34985700Y11700233D01*
X34985699Y11700250D01*
X34979190Y11760797D01*
X34979188Y11760805D01*
X34946105Y11849501D01*
X34928089Y11897804D01*
X34928088Y11897806D01*
X34928087Y11897808D01*
X34840461Y12014862D01*
X34723406Y12102488D01*
X34723404Y12102489D01*
X34699654Y12111348D01*
X34642820Y12153895D01*
X34618011Y12220416D01*
X34633104Y12289790D01*
X34654595Y12318497D01*
X34675268Y12339170D01*
X34796329Y12505797D01*
X34889834Y12689310D01*
X34953480Y12885192D01*
X34985700Y13088619D01*
X34985700Y13294581D01*
X34953480Y13498008D01*
X34889834Y13693890D01*
X34796329Y13877403D01*
X34675268Y14044030D01*
X34675265Y14044033D01*
X34675263Y14044036D01*
X34529635Y14189664D01*
X34529632Y14189666D01*
X34529630Y14189668D01*
X34404199Y14280798D01*
X34363006Y14310727D01*
X34363005Y14310728D01*
X34363003Y14310729D01*
X34287234Y14349335D01*
X34235622Y14398081D01*
X34218556Y14466996D01*
X34241457Y14534198D01*
X34287234Y14573865D01*
X34363003Y14612471D01*
X34529630Y14733532D01*
X34675268Y14879170D01*
X34796329Y15045797D01*
X34889834Y15229310D01*
X34953480Y15425192D01*
X34985700Y15628619D01*
X34985700Y15834581D01*
X34953480Y16038008D01*
X34889834Y16233890D01*
X34796329Y16417403D01*
X34675268Y16584030D01*
X34675265Y16584033D01*
X34675263Y16584036D01*
X34529635Y16729664D01*
X34529632Y16729666D01*
X34529630Y16729668D01*
X34363003Y16850729D01*
X34287234Y16889335D01*
X34235622Y16938081D01*
X34218556Y17006996D01*
X34241457Y17074198D01*
X34287234Y17113865D01*
X34363003Y17152471D01*
X34529630Y17273532D01*
X34675268Y17419170D01*
X34796329Y17585797D01*
X34889834Y17769310D01*
X34953480Y17965192D01*
X34985700Y18168619D01*
X34985700Y18374581D01*
X34953480Y18578008D01*
X34889834Y18773890D01*
X34796329Y18957403D01*
X34675268Y19124030D01*
X34675265Y19124033D01*
X34675263Y19124036D01*
X34529635Y19269664D01*
X34529632Y19269666D01*
X34529630Y19269668D01*
X34363003Y19390729D01*
X34287234Y19429335D01*
X34235622Y19478081D01*
X34218556Y19546996D01*
X34241457Y19614198D01*
X34287234Y19653865D01*
X34363003Y19692471D01*
X34529630Y19813532D01*
X34675268Y19959170D01*
X34796329Y20125797D01*
X34889834Y20309310D01*
X34953480Y20505192D01*
X34985700Y20708619D01*
X34985700Y20914581D01*
X34953480Y21118008D01*
X34889834Y21313890D01*
X34796329Y21497403D01*
X34675268Y21664030D01*
X34675265Y21664033D01*
X34675263Y21664036D01*
X34529635Y21809664D01*
X34529632Y21809666D01*
X34529630Y21809668D01*
X34363003Y21930729D01*
X34287234Y21969335D01*
X34235622Y22018081D01*
X34218556Y22086996D01*
X34241457Y22154198D01*
X34287234Y22193865D01*
X34363003Y22232471D01*
X34529630Y22353532D01*
X34675268Y22499170D01*
X34796329Y22665797D01*
X34889834Y22849310D01*
X34953480Y23045192D01*
X34985700Y23248619D01*
X34985700Y23454581D01*
X34953480Y23658008D01*
X34889834Y23853890D01*
X34796329Y24037403D01*
X34675268Y24204030D01*
X34675265Y24204033D01*
X34675263Y24204036D01*
X34529635Y24349664D01*
X34529632Y24349666D01*
X34529630Y24349668D01*
X34363003Y24470729D01*
X34287234Y24509335D01*
X34235622Y24558081D01*
X34218556Y24626996D01*
X34241457Y24694198D01*
X34287234Y24733865D01*
X34363003Y24772471D01*
X34529630Y24893532D01*
X34675268Y25039170D01*
X34714316Y25092916D01*
X34770535Y25136269D01*
X34841271Y25142346D01*
X34904064Y25109215D01*
X34905346Y25107950D01*
X35295995Y24717301D01*
X35330021Y24654989D01*
X35332900Y24628206D01*
X35332900Y21398394D01*
X35332900Y21273606D01*
X35357245Y21151215D01*
X35405000Y21035925D01*
X35474329Y20932167D01*
X35474331Y20932165D01*
X40169595Y16236901D01*
X40203621Y16174589D01*
X40206500Y16147806D01*
X40206500Y14508522D01*
X40186498Y14440401D01*
X40140471Y14397709D01*
X40094426Y14372790D01*
X40094424Y14372789D01*
X39916762Y14234509D01*
X39855754Y14168237D01*
X39794901Y14131667D01*
X39723936Y14133802D01*
X39665391Y14173964D01*
X39644999Y14209543D01*
X39607258Y14310727D01*
X39600889Y14327804D01*
X39600888Y14327806D01*
X39600887Y14327808D01*
X39513261Y14444862D01*
X39396207Y14532488D01*
X39396202Y14532490D01*
X39259204Y14583589D01*
X39259196Y14583591D01*
X39198649Y14590100D01*
X39198638Y14590100D01*
X37401362Y14590100D01*
X37401350Y14590100D01*
X37340803Y14583591D01*
X37340795Y14583589D01*
X37203797Y14532490D01*
X37203792Y14532488D01*
X37086738Y14444862D01*
X36999112Y14327808D01*
X36999110Y14327803D01*
X36948011Y14190805D01*
X36948009Y14190797D01*
X36941500Y14130250D01*
X36941500Y12332951D01*
X36948009Y12272404D01*
X36948011Y12272396D01*
X36999110Y12135398D01*
X36999112Y12135393D01*
X37086738Y12018339D01*
X37203792Y11930713D01*
X37203794Y11930712D01*
X37203796Y11930711D01*
X37242693Y11916203D01*
X37340795Y11879612D01*
X37340803Y11879610D01*
X37401350Y11873101D01*
X37401355Y11873101D01*
X37401362Y11873100D01*
X37401368Y11873100D01*
X39198632Y11873100D01*
X39198638Y11873100D01*
X39198645Y11873101D01*
X39198649Y11873101D01*
X39259196Y11879610D01*
X39259199Y11879611D01*
X39259201Y11879611D01*
X39396204Y11930711D01*
X39466399Y11983258D01*
X39513261Y12018339D01*
X39600886Y12135392D01*
X39600885Y12135392D01*
X39600889Y12135396D01*
X39644999Y12253661D01*
X39687545Y12310493D01*
X39754066Y12335304D01*
X39823440Y12320212D01*
X39855753Y12294965D01*
X39916760Y12228694D01*
X39916762Y12228692D01*
X39961929Y12193537D01*
X40094424Y12090411D01*
X40292426Y11983258D01*
X40292427Y11983258D01*
X40292428Y11983257D01*
X40361170Y11959658D01*
X40505365Y11910156D01*
X40727431Y11873100D01*
X40727435Y11873100D01*
X40952565Y11873100D01*
X40952569Y11873100D01*
X41174635Y11910156D01*
X41387574Y11983258D01*
X41585576Y12090411D01*
X41763240Y12228694D01*
X41915722Y12394332D01*
X42038860Y12582809D01*
X42129296Y12788984D01*
X42184564Y13007232D01*
X42203156Y13231600D01*
X42184564Y13455968D01*
X42135273Y13650614D01*
X42129297Y13674213D01*
X42129296Y13674214D01*
X42129296Y13674216D01*
X42038860Y13880391D01*
X42019936Y13909357D01*
X41915724Y14068866D01*
X41915720Y14068871D01*
X41786220Y14209543D01*
X41763240Y14234506D01*
X41763239Y14234507D01*
X41763237Y14234509D01*
X41643367Y14327808D01*
X41585576Y14372789D01*
X41555617Y14389002D01*
X41539529Y14397709D01*
X41489139Y14447723D01*
X41473500Y14508522D01*
X41473500Y16031600D01*
X51136693Y16031600D01*
X51155885Y15812230D01*
X51212879Y15599527D01*
X51212881Y15599521D01*
X51305942Y15399950D01*
X51305944Y15399946D01*
X51425422Y15229315D01*
X51432251Y15219562D01*
X51432254Y15219558D01*
X51587957Y15063855D01*
X51587961Y15063852D01*
X51587962Y15063851D01*
X51768346Y14937544D01*
X51967924Y14844480D01*
X52180629Y14787485D01*
X52400000Y14768293D01*
X52619371Y14787485D01*
X52832076Y14844480D01*
X53031654Y14937544D01*
X53212038Y15063851D01*
X53367749Y15219562D01*
X53494056Y15399946D01*
X53587120Y15599524D01*
X53644115Y15812229D01*
X53663307Y16031600D01*
X53644115Y16250971D01*
X53587120Y16463676D01*
X53494056Y16663253D01*
X53367749Y16843638D01*
X53212038Y16999349D01*
X53208823Y17001600D01*
X53050391Y17112536D01*
X53006063Y17167993D01*
X52996662Y17215749D01*
X52996662Y30069350D01*
X53016664Y30137471D01*
X53029026Y30153661D01*
X53042478Y30168601D01*
X53113840Y30247856D01*
X53209327Y30413244D01*
X53268342Y30594872D01*
X53288304Y30784800D01*
X53268342Y30974728D01*
X53209327Y31156356D01*
X53113840Y31321744D01*
X53113838Y31321746D01*
X53113834Y31321752D01*
X52986055Y31463665D01*
X52831552Y31575918D01*
X52657088Y31653594D01*
X52470287Y31693300D01*
X52279313Y31693300D01*
X52092511Y31653594D01*
X51918047Y31575918D01*
X51763544Y31463665D01*
X51635765Y31321752D01*
X51635758Y31321742D01*
X51540276Y31156362D01*
X51540273Y31156355D01*
X51481257Y30974728D01*
X51461296Y30784800D01*
X51481257Y30594873D01*
X51511326Y30502330D01*
X51540273Y30413244D01*
X51540276Y30413239D01*
X51635758Y30247859D01*
X51635761Y30247855D01*
X51697298Y30179512D01*
X51728015Y30115504D01*
X51729662Y30095201D01*
X51729662Y17164161D01*
X51709660Y17096040D01*
X51675933Y17060948D01*
X51587962Y16999350D01*
X51432248Y16843635D01*
X51305944Y16663254D01*
X51212881Y16463680D01*
X51212879Y16463674D01*
X51155885Y16250971D01*
X51136693Y16031600D01*
X41473500Y16031600D01*
X41473500Y16524793D01*
X41473499Y16524797D01*
X41449155Y16647185D01*
X41401400Y16762475D01*
X41332071Y16866233D01*
X41243833Y16954471D01*
X36636805Y21561499D01*
X36602779Y21623811D01*
X36599900Y21650594D01*
X36599900Y25005193D01*
X36599899Y25005197D01*
X36597074Y25019401D01*
X36575555Y25127585D01*
X36527800Y25242875D01*
X36458471Y25346633D01*
X36370233Y25434871D01*
X35421433Y26383671D01*
X35317675Y26453000D01*
X35202385Y26500755D01*
X35128686Y26515415D01*
X35079996Y26525100D01*
X35079994Y26525100D01*
X34898530Y26525100D01*
X34830409Y26545102D01*
X34796594Y26577039D01*
X34748441Y26643315D01*
X34675268Y26744030D01*
X34675265Y26744033D01*
X34675263Y26744036D01*
X34529635Y26889664D01*
X34529632Y26889666D01*
X34529630Y26889668D01*
X34363003Y27010729D01*
X34287234Y27049335D01*
X34235622Y27098081D01*
X34218556Y27166996D01*
X34241457Y27234198D01*
X34287234Y27273865D01*
X34363003Y27312471D01*
X34529630Y27433532D01*
X34675268Y27579170D01*
X34796329Y27745797D01*
X34889834Y27929310D01*
X34953480Y28125192D01*
X34985700Y28328619D01*
X34985700Y28534581D01*
X34953480Y28738008D01*
X34889834Y28933890D01*
X34796329Y29117403D01*
X34675268Y29284030D01*
X34675265Y29284033D01*
X34675263Y29284036D01*
X34529635Y29429664D01*
X34529632Y29429666D01*
X34529630Y29429668D01*
X34363003Y29550729D01*
X34179490Y29644234D01*
X34179487Y29644235D01*
X34179485Y29644236D01*
X33983612Y29707879D01*
X33983610Y29707880D01*
X33983608Y29707880D01*
X33780181Y29740100D01*
X33174219Y29740100D01*
X32970792Y29707880D01*
X32970790Y29707880D01*
X32970787Y29707879D01*
X32774914Y29644236D01*
X32774908Y29644233D01*
X32591393Y29550727D01*
X32424767Y29429666D01*
X32424764Y29429664D01*
X32279136Y29284036D01*
X32279134Y29284033D01*
X32158073Y29117407D01*
X32064567Y28933892D01*
X32064564Y28933886D01*
X32000921Y28738013D01*
X32000920Y28738010D01*
X32000920Y28738008D01*
X31968700Y28534581D01*
X31968700Y28328619D01*
X32000920Y28125192D01*
X32064566Y27929310D01*
X32158071Y27745797D01*
X32279132Y27579170D01*
X32279134Y27579168D01*
X32279136Y27579165D01*
X32424764Y27433537D01*
X32424767Y27433535D01*
X32424770Y27433532D01*
X32591397Y27312471D01*
X32667162Y27273867D01*
X32718777Y27225118D01*
X32735843Y27156203D01*
X32712942Y27089002D01*
X32667163Y27049334D01*
X32666616Y27049055D01*
X32591393Y27010727D01*
X32424767Y26889666D01*
X32424764Y26889664D01*
X32279136Y26744036D01*
X32279134Y26744033D01*
X32158073Y26577407D01*
X32064567Y26393892D01*
X32064564Y26393886D01*
X32000921Y26198013D01*
X32000920Y26198010D01*
X32000920Y26198008D01*
X31968700Y25994581D01*
X31968700Y25788619D01*
X32000902Y25585305D01*
X32000921Y25585188D01*
X32005167Y25572119D01*
X32064566Y25389310D01*
X32158071Y25205797D01*
X32279132Y25039170D01*
X32279134Y25039168D01*
X32279136Y25039165D01*
X32424764Y24893537D01*
X32424767Y24893535D01*
X32424770Y24893532D01*
X32591397Y24772471D01*
X32667162Y24733867D01*
X32718777Y24685118D01*
X32735843Y24616203D01*
X32712942Y24549002D01*
X32667163Y24509334D01*
X32598545Y24474371D01*
X32591393Y24470727D01*
X32424767Y24349666D01*
X32424764Y24349664D01*
X32279136Y24204036D01*
X32279134Y24204033D01*
X32158073Y24037407D01*
X32064567Y23853892D01*
X32064564Y23853886D01*
X32000921Y23658013D01*
X32000920Y23658010D01*
X32000920Y23658008D01*
X31968700Y23454581D01*
X31968700Y23248619D01*
X32000920Y23045192D01*
X32064566Y22849310D01*
X32158071Y22665797D01*
X32279132Y22499170D01*
X32279134Y22499168D01*
X32279136Y22499165D01*
X32424764Y22353537D01*
X32424767Y22353535D01*
X32424770Y22353532D01*
X32591397Y22232471D01*
X32667162Y22193867D01*
X32718777Y22145118D01*
X32735843Y22076203D01*
X32712942Y22009002D01*
X32667163Y21969334D01*
X32598233Y21934213D01*
X32591393Y21930727D01*
X32424767Y21809666D01*
X32424764Y21809664D01*
X32279136Y21664036D01*
X32279134Y21664033D01*
X32155161Y21493398D01*
X32153540Y21494576D01*
X32107165Y21452628D01*
X32052392Y21440100D01*
X26230224Y21440100D01*
X26162103Y21460102D01*
X26156163Y21464164D01*
X26006752Y21572718D01*
X25832288Y21650394D01*
X25645487Y21690100D01*
X25454513Y21690100D01*
X25267711Y21650394D01*
X25093247Y21572718D01*
X24938744Y21460465D01*
X24810965Y21318552D01*
X24810958Y21318542D01*
X24722774Y21165802D01*
X24715473Y21153156D01*
X24714842Y21151213D01*
X24656457Y20971528D01*
X24636496Y20781600D01*
X24656457Y20591673D01*
X24660563Y20579037D01*
X24715473Y20410044D01*
X24715476Y20410039D01*
X24810958Y20244659D01*
X24810965Y20244649D01*
X24938744Y20102736D01*
X24938747Y20102734D01*
X25093248Y19990482D01*
X25267712Y19912806D01*
X25454513Y19873100D01*
X25645487Y19873100D01*
X25832288Y19912806D01*
X26006752Y19990482D01*
X26161253Y20102734D01*
X26177845Y20121161D01*
X26187074Y20131410D01*
X26247520Y20168650D01*
X26280710Y20173100D01*
X32059503Y20173100D01*
X32127624Y20153098D01*
X32161439Y20121161D01*
X32279132Y19959170D01*
X32279134Y19959168D01*
X32279136Y19959165D01*
X32424764Y19813537D01*
X32424767Y19813535D01*
X32424770Y19813532D01*
X32591397Y19692471D01*
X32667162Y19653867D01*
X32718777Y19605118D01*
X32735843Y19536203D01*
X32712942Y19469002D01*
X32667163Y19429334D01*
X32598233Y19394213D01*
X32591393Y19390727D01*
X32424767Y19269666D01*
X32424764Y19269664D01*
X32279136Y19124036D01*
X32279134Y19124033D01*
X32158073Y18957407D01*
X32064567Y18773892D01*
X32064564Y18773886D01*
X32000921Y18578013D01*
X32000920Y18578010D01*
X32000920Y18578008D01*
X31968700Y18374581D01*
X31968700Y18168619D01*
X32000920Y17965192D01*
X32064566Y17769310D01*
X32158071Y17585797D01*
X32279132Y17419170D01*
X32279134Y17419168D01*
X32279136Y17419165D01*
X32424764Y17273537D01*
X32424767Y17273535D01*
X32424770Y17273532D01*
X32591397Y17152471D01*
X32667162Y17113867D01*
X32718777Y17065118D01*
X32735843Y16996203D01*
X32712942Y16929002D01*
X32667163Y16889334D01*
X32598233Y16854213D01*
X32591393Y16850727D01*
X32424767Y16729666D01*
X32424764Y16729664D01*
X32279136Y16584036D01*
X32279134Y16584033D01*
X32158073Y16417407D01*
X32064567Y16233892D01*
X32064564Y16233886D01*
X32000921Y16038013D01*
X32000920Y16038010D01*
X32000920Y16038008D01*
X31968700Y15834581D01*
X31968700Y15628619D01*
X31973309Y15599521D01*
X32000921Y15425188D01*
X32009121Y15399950D01*
X32064566Y15229310D01*
X32158071Y15045797D01*
X32279132Y14879170D01*
X32279134Y14879168D01*
X32279136Y14879165D01*
X32424764Y14733537D01*
X32424767Y14733535D01*
X32424770Y14733532D01*
X32591397Y14612471D01*
X32667162Y14573867D01*
X32718777Y14525118D01*
X32735843Y14456203D01*
X32712942Y14389002D01*
X32667163Y14349334D01*
X32598233Y14314213D01*
X32591393Y14310727D01*
X32424767Y14189666D01*
X32424764Y14189664D01*
X32279136Y14044036D01*
X32279134Y14044033D01*
X32158073Y13877407D01*
X32064567Y13693892D01*
X32064564Y13693886D01*
X32000921Y13498013D01*
X32000920Y13498010D01*
X32000920Y13498008D01*
X31968700Y13294581D01*
X31968700Y13088619D01*
X31985330Y12983625D01*
X32000921Y12885188D01*
X32053135Y12724489D01*
X32064566Y12689310D01*
X32158071Y12505797D01*
X32279132Y12339170D01*
X32279134Y12339168D01*
X32279136Y12339165D01*
X32299804Y12318497D01*
X32333830Y12256185D01*
X32328765Y12185370D01*
X32286218Y12128534D01*
X32254745Y12111348D01*
X32230997Y12102490D01*
X32230992Y12102488D01*
X32113938Y12014862D01*
X32026312Y11897808D01*
X32026310Y11897803D01*
X31975211Y11760805D01*
X31975209Y11760797D01*
X31968700Y11700250D01*
X31968700Y11561211D01*
X31948698Y11493090D01*
X31895042Y11446597D01*
X31842118Y11435212D01*
X11843251Y11527656D01*
X11775223Y11547973D01*
X11754742Y11564556D01*
X11669630Y11649668D01*
X11600010Y11700250D01*
X11503006Y11770727D01*
X11503005Y11770728D01*
X11503003Y11770729D01*
X11427234Y11809335D01*
X11375622Y11858081D01*
X11358556Y11926996D01*
X11381457Y11994198D01*
X11427234Y12033865D01*
X11503003Y12072471D01*
X11669630Y12193532D01*
X11815268Y12339170D01*
X11936329Y12505797D01*
X12029834Y12689310D01*
X12093480Y12885192D01*
X12125700Y13088619D01*
X12125700Y13294581D01*
X12093480Y13498008D01*
X12029834Y13693890D01*
X11936329Y13877403D01*
X11815268Y14044030D01*
X11815265Y14044033D01*
X11815263Y14044036D01*
X11669635Y14189664D01*
X11669632Y14189666D01*
X11669630Y14189668D01*
X11544199Y14280798D01*
X11503006Y14310727D01*
X11503005Y14310728D01*
X11503003Y14310729D01*
X11427234Y14349335D01*
X11375622Y14398081D01*
X11358556Y14466996D01*
X11381457Y14534198D01*
X11427234Y14573865D01*
X11503003Y14612471D01*
X11669630Y14733532D01*
X11815268Y14879170D01*
X11936329Y15045797D01*
X12029834Y15229310D01*
X12093480Y15425192D01*
X12125700Y15628619D01*
X12125700Y15834581D01*
X12093480Y16038008D01*
X12029834Y16233890D01*
X11936329Y16417403D01*
X11815268Y16584030D01*
X11815265Y16584033D01*
X11815263Y16584036D01*
X11669635Y16729664D01*
X11669632Y16729666D01*
X11669630Y16729668D01*
X11503003Y16850729D01*
X11427234Y16889335D01*
X11375622Y16938081D01*
X11358556Y17006996D01*
X11381457Y17074198D01*
X11427234Y17113865D01*
X11503003Y17152471D01*
X11669630Y17273532D01*
X11815268Y17419170D01*
X11936329Y17585797D01*
X12029834Y17769310D01*
X12093480Y17965192D01*
X12125700Y18168619D01*
X12125700Y18374581D01*
X12093480Y18578008D01*
X12029834Y18773890D01*
X11936329Y18957403D01*
X11815268Y19124030D01*
X11815265Y19124033D01*
X11815263Y19124036D01*
X11669635Y19269664D01*
X11669632Y19269666D01*
X11669630Y19269668D01*
X11503003Y19390729D01*
X11427234Y19429335D01*
X11375622Y19478081D01*
X11358556Y19546996D01*
X11381457Y19614198D01*
X11427234Y19653865D01*
X11503003Y19692471D01*
X11669630Y19813532D01*
X11815268Y19959170D01*
X11936329Y20125797D01*
X12029834Y20309310D01*
X12093480Y20505192D01*
X12125700Y20708619D01*
X12125700Y20914581D01*
X12093480Y21118008D01*
X12029834Y21313890D01*
X11936329Y21497403D01*
X11815268Y21664030D01*
X11815265Y21664033D01*
X11815263Y21664036D01*
X11669635Y21809664D01*
X11669632Y21809666D01*
X11669630Y21809668D01*
X11503003Y21930729D01*
X11427234Y21969335D01*
X11375622Y22018081D01*
X11358556Y22086996D01*
X11381457Y22154198D01*
X11427234Y22193865D01*
X11503003Y22232471D01*
X11669630Y22353532D01*
X11815268Y22499170D01*
X11936329Y22665797D01*
X12029834Y22849310D01*
X12093480Y23045192D01*
X12125700Y23248619D01*
X12125700Y23454581D01*
X12093480Y23658008D01*
X12029834Y23853890D01*
X11936329Y24037403D01*
X11815268Y24204030D01*
X11815265Y24204033D01*
X11815263Y24204036D01*
X11669635Y24349664D01*
X11669632Y24349666D01*
X11669630Y24349668D01*
X11503003Y24470729D01*
X11426686Y24509615D01*
X11375073Y24558361D01*
X11358007Y24627276D01*
X11380908Y24694478D01*
X11426688Y24734147D01*
X11502745Y24772901D01*
X11669307Y24893916D01*
X11669310Y24893918D01*
X11814882Y25039490D01*
X11814884Y25039493D01*
X11935899Y25206055D01*
X12029370Y25389501D01*
X12029373Y25389507D01*
X12092991Y25585305D01*
X12101274Y25637600D01*
X10928886Y25637600D01*
X10937280Y25645994D01*
X10989941Y25737206D01*
X11017200Y25838939D01*
X11017200Y25944261D01*
X10989941Y26045994D01*
X10937280Y26137206D01*
X10928886Y26145600D01*
X12101274Y26145600D01*
X12092991Y26197896D01*
X12029373Y26393694D01*
X12029370Y26393700D01*
X11935899Y26577146D01*
X11814884Y26743708D01*
X11814882Y26743711D01*
X11669310Y26889283D01*
X11669307Y26889285D01*
X11502742Y27010302D01*
X11426687Y27049055D01*
X11375072Y27097803D01*
X11358007Y27166718D01*
X11380908Y27233920D01*
X11426685Y27273586D01*
X11503003Y27312471D01*
X11669630Y27433532D01*
X11815268Y27579170D01*
X11815272Y27579174D01*
X11827612Y27596159D01*
X11883833Y27639514D01*
X11929549Y27648100D01*
X22131301Y27648100D01*
X22131305Y27648100D01*
X22131306Y27648100D01*
X22204576Y27662675D01*
X22277847Y27677249D01*
X22415884Y27734426D01*
X22540115Y27817434D01*
X29436476Y34713795D01*
X29498788Y34747821D01*
X29525571Y34750700D01*
X41530494Y34750700D01*
X43415500Y34750700D01*
X43483621Y34730698D01*
X43530114Y34677042D01*
X43541500Y34624700D01*
X43541500Y33368601D01*
X43524619Y33305601D01*
X43465476Y33203162D01*
X43465473Y33203155D01*
X43406457Y33021528D01*
X43386496Y32831600D01*
X43406457Y32641673D01*
X43430144Y32568774D01*
X43465473Y32460044D01*
X43524619Y32357600D01*
X43541500Y32294601D01*
X43541500Y30168601D01*
X43524619Y30105601D01*
X43465476Y30003162D01*
X43465473Y30003155D01*
X43406457Y29821528D01*
X43386496Y29631600D01*
X43406457Y29441673D01*
X43436526Y29349130D01*
X43465473Y29260044D01*
X43465476Y29260039D01*
X43560958Y29094659D01*
X43560965Y29094649D01*
X43688744Y28952736D01*
X43688747Y28952734D01*
X43843248Y28840482D01*
X44017712Y28762806D01*
X44204513Y28723100D01*
X44395487Y28723100D01*
X44582288Y28762806D01*
X44756752Y28840482D01*
X44911253Y28952734D01*
X45039040Y29094656D01*
X45134527Y29260044D01*
X45193542Y29441672D01*
X45213504Y29631600D01*
X45193542Y29821528D01*
X45134527Y30003156D01*
X45075381Y30105601D01*
X45058500Y30168601D01*
X45058500Y32294601D01*
X45075380Y32357600D01*
X45134527Y32460044D01*
X45193542Y32641672D01*
X45213504Y32831600D01*
X45193542Y33021528D01*
X45134527Y33203156D01*
X45075381Y33305601D01*
X45058500Y33368601D01*
X45058500Y34624700D01*
X45078502Y34692821D01*
X45132158Y34739314D01*
X45184500Y34750700D01*
X55909900Y34750700D01*
X55978021Y34730698D01*
X56024514Y34677042D01*
X56035900Y34624700D01*
X56035900Y14092500D01*
X56015898Y14024379D01*
X55962242Y13977886D01*
X55909900Y13966500D01*
X51370100Y13966500D01*
X51301979Y13986502D01*
X51255486Y14040158D01*
X51244100Y14092500D01*
X51244100Y14106633D01*
X51244099Y14106650D01*
X51237590Y14167197D01*
X51237588Y14167205D01*
X51186489Y14304203D01*
X51186487Y14304208D01*
X51098861Y14421262D01*
X50981807Y14508888D01*
X50981802Y14508890D01*
X50844804Y14559989D01*
X50844796Y14559991D01*
X50784249Y14566500D01*
X50784238Y14566500D01*
X48986962Y14566500D01*
X48986950Y14566500D01*
X48926403Y14559991D01*
X48926395Y14559989D01*
X48789397Y14508890D01*
X48789392Y14508888D01*
X48672338Y14421262D01*
X48584712Y14304208D01*
X48584711Y14304205D01*
X48540600Y14185942D01*
X48498053Y14129107D01*
X48431532Y14104297D01*
X48362158Y14119389D01*
X48329846Y14144637D01*
X48268840Y14210906D01*
X48268839Y14210907D01*
X48268837Y14210909D01*
X48148972Y14304204D01*
X48091176Y14349189D01*
X47893174Y14456342D01*
X47893172Y14456343D01*
X47893171Y14456344D01*
X47680239Y14529443D01*
X47680230Y14529445D01*
X47636076Y14536813D01*
X47458169Y14566500D01*
X47233031Y14566500D01*
X47084811Y14541767D01*
X47010969Y14529445D01*
X47010960Y14529443D01*
X46798028Y14456344D01*
X46798026Y14456342D01*
X46600026Y14349190D01*
X46600024Y14349189D01*
X46422362Y14210909D01*
X46269879Y14045271D01*
X46181083Y13909357D01*
X46127079Y13863269D01*
X46056731Y13853694D01*
X45992374Y13883671D01*
X45970117Y13909357D01*
X45894969Y14024379D01*
X45881322Y14045268D01*
X45881321Y14045269D01*
X45881320Y14045271D01*
X45728837Y14210909D01*
X45608972Y14304204D01*
X45551176Y14349189D01*
X45353174Y14456342D01*
X45353172Y14456343D01*
X45353171Y14456344D01*
X45140239Y14529443D01*
X45140230Y14529445D01*
X45096076Y14536813D01*
X44918169Y14566500D01*
X44693031Y14566500D01*
X44544811Y14541767D01*
X44470969Y14529445D01*
X44470960Y14529443D01*
X44258028Y14456344D01*
X44258026Y14456342D01*
X44060026Y14349190D01*
X44060024Y14349189D01*
X43882362Y14210909D01*
X43729879Y14045271D01*
X43729875Y14045266D01*
X43606741Y13856794D01*
X43516303Y13650614D01*
X43516302Y13650613D01*
X43461037Y13432376D01*
X43461036Y13432370D01*
X43461036Y13432368D01*
X43442444Y13208000D01*
X43460777Y12986754D01*
X43461037Y12983625D01*
X43516302Y12765388D01*
X43516303Y12765387D01*
X43516304Y12765384D01*
X43580585Y12618838D01*
X43606741Y12559207D01*
X43729875Y12370735D01*
X43729879Y12370730D01*
X43882362Y12205092D01*
X43907701Y12185370D01*
X44060024Y12066811D01*
X44258026Y11959658D01*
X44258027Y11959658D01*
X44258028Y11959657D01*
X44342340Y11930713D01*
X44470965Y11886556D01*
X44693031Y11849500D01*
X44693035Y11849500D01*
X44918165Y11849500D01*
X44918169Y11849500D01*
X45140235Y11886556D01*
X45353174Y11959658D01*
X45551176Y12066811D01*
X45728840Y12205094D01*
X45881322Y12370732D01*
X45970118Y12506646D01*
X46024120Y12552732D01*
X46094468Y12562308D01*
X46158825Y12532331D01*
X46181080Y12506647D01*
X46214207Y12455942D01*
X46269875Y12370735D01*
X46269879Y12370730D01*
X46422362Y12205092D01*
X46447701Y12185370D01*
X46600024Y12066811D01*
X46798026Y11959658D01*
X46798027Y11959658D01*
X46798028Y11959657D01*
X46882340Y11930713D01*
X47010965Y11886556D01*
X47233031Y11849500D01*
X47233035Y11849500D01*
X47458165Y11849500D01*
X47458169Y11849500D01*
X47680235Y11886556D01*
X47893174Y11959658D01*
X48091176Y12066811D01*
X48268840Y12205094D01*
X48329845Y12271363D01*
X48390696Y12307933D01*
X48461661Y12305800D01*
X48520206Y12265638D01*
X48540600Y12230059D01*
X48584711Y12111796D01*
X48584712Y12111793D01*
X48672338Y11994739D01*
X48789392Y11907113D01*
X48789394Y11907112D01*
X48789396Y11907111D01*
X48844500Y11886558D01*
X48926395Y11856012D01*
X48926403Y11856010D01*
X48986950Y11849501D01*
X48986955Y11849501D01*
X48986962Y11849500D01*
X49001100Y11849500D01*
X49069221Y11829498D01*
X49115714Y11775842D01*
X49127100Y11723500D01*
X49127100Y9532325D01*
X49107098Y9464204D01*
X49075161Y9430389D01*
X48886319Y9293187D01*
X48886316Y9293185D01*
X48723715Y9130584D01*
X48723713Y9130581D01*
X48588540Y8944532D01*
X48484141Y8739637D01*
X48484138Y8739628D01*
X48413074Y8520921D01*
X48377100Y8293781D01*
X48377100Y8063820D01*
X48413074Y7836680D01*
X48448606Y7727327D01*
X48484138Y7617971D01*
X48484139Y7617968D01*
X48484141Y7617964D01*
X48588540Y7413069D01*
X48723711Y7227022D01*
X48723713Y7227020D01*
X48723715Y7227017D01*
X48886316Y7064416D01*
X48886319Y7064414D01*
X48886322Y7064411D01*
X48960625Y7010427D01*
X49003979Y6954205D01*
X49010054Y6883469D01*
X48976923Y6820677D01*
X48960626Y6806555D01*
X48886641Y6752802D01*
X48724097Y6590258D01*
X48724095Y6590255D01*
X48588971Y6404273D01*
X48484603Y6199439D01*
X48484600Y6199433D01*
X48413564Y5980807D01*
X48399625Y5892800D01*
X49397162Y5892800D01*
X49373082Y5851092D01*
X49335600Y5711209D01*
X49335600Y5566391D01*
X49373082Y5426508D01*
X49397162Y5384800D01*
X48399625Y5384800D01*
X48413564Y5296794D01*
X48484600Y5078168D01*
X48484603Y5078162D01*
X48588971Y4873328D01*
X48714403Y4700685D01*
X48738262Y4633817D01*
X48722181Y4564665D01*
X48671267Y4515185D01*
X48656501Y4508569D01*
X48639395Y4502189D01*
X48639392Y4502188D01*
X48522338Y4414562D01*
X48434712Y4297508D01*
X48434710Y4297503D01*
X48383611Y4160505D01*
X48383609Y4160497D01*
X48377100Y4099950D01*
X48377100Y2097651D01*
X48383609Y2037104D01*
X48383611Y2037096D01*
X48434710Y1900098D01*
X48434712Y1900093D01*
X48522338Y1783039D01*
X48639392Y1695413D01*
X48639394Y1695412D01*
X48639396Y1695411D01*
X48698475Y1673376D01*
X48776395Y1644312D01*
X48776403Y1644310D01*
X48836950Y1637801D01*
X48836955Y1637801D01*
X48836962Y1637800D01*
X48836968Y1637800D01*
X50934232Y1637800D01*
X50934238Y1637800D01*
X50934245Y1637801D01*
X50934249Y1637801D01*
X50994796Y1644310D01*
X50994799Y1644311D01*
X50994801Y1644311D01*
X51131804Y1695411D01*
X51248861Y1783039D01*
X51336489Y1900096D01*
X51387589Y2037099D01*
X51394100Y2097662D01*
X51394100Y4031600D01*
X59086569Y4031600D01*
X59106265Y3768774D01*
X59106266Y3768770D01*
X59164911Y3511825D01*
X59261202Y3266480D01*
X59261205Y3266472D01*
X59392982Y3038228D01*
X59392984Y3038225D01*
X59392985Y3038224D01*
X59557314Y2832162D01*
X59750519Y2652894D01*
X59750525Y2652890D01*
X59968275Y2504430D01*
X59968279Y2504428D01*
X59968285Y2504424D01*
X60205746Y2390068D01*
X60205749Y2390068D01*
X60205754Y2390065D01*
X60457589Y2312385D01*
X60457591Y2312385D01*
X60457600Y2312382D01*
X60718219Y2273100D01*
X60718223Y2273100D01*
X60981777Y2273100D01*
X60981781Y2273100D01*
X61242400Y2312382D01*
X61242410Y2312385D01*
X61494245Y2390065D01*
X61494247Y2390066D01*
X61494254Y2390068D01*
X61731716Y2504424D01*
X61949481Y2652894D01*
X62142686Y2832162D01*
X62307015Y3038224D01*
X62438796Y3266476D01*
X62535087Y3511820D01*
X62593735Y3768774D01*
X62613431Y4031600D01*
X62593735Y4294426D01*
X62540484Y4527734D01*
X62535088Y4551376D01*
X62535087Y4551377D01*
X62535087Y4551380D01*
X62438796Y4796724D01*
X62438795Y4796725D01*
X62438794Y4796729D01*
X62307017Y5024973D01*
X62307015Y5024976D01*
X62142686Y5231038D01*
X61949481Y5410306D01*
X61949474Y5410311D01*
X61731725Y5558771D01*
X61731718Y5558775D01*
X61494257Y5673131D01*
X61494245Y5673136D01*
X61242410Y5750816D01*
X61242402Y5750818D01*
X61242400Y5750818D01*
X60981781Y5790100D01*
X60718219Y5790100D01*
X60457600Y5750818D01*
X60457598Y5750818D01*
X60457589Y5750816D01*
X60205754Y5673136D01*
X60205742Y5673131D01*
X59968283Y5558775D01*
X59968275Y5558771D01*
X59750525Y5410311D01*
X59750520Y5410307D01*
X59557315Y5231039D01*
X59392982Y5024973D01*
X59261205Y4796729D01*
X59261202Y4796721D01*
X59164911Y4551376D01*
X59106967Y4297503D01*
X59106265Y4294426D01*
X59086569Y4031600D01*
X51394100Y4031600D01*
X51394100Y4099938D01*
X51394099Y4099950D01*
X51387590Y4160497D01*
X51387588Y4160505D01*
X51336489Y4297503D01*
X51336487Y4297508D01*
X51248861Y4414562D01*
X51131808Y4502187D01*
X51131805Y4502188D01*
X51131804Y4502189D01*
X51114696Y4508570D01*
X51057864Y4551115D01*
X51033053Y4617636D01*
X51048145Y4687010D01*
X51056796Y4700685D01*
X51182228Y4873328D01*
X51286596Y5078162D01*
X51286599Y5078168D01*
X51357635Y5296794D01*
X51371575Y5384800D01*
X50374038Y5384800D01*
X50398118Y5426508D01*
X50435600Y5566391D01*
X50435600Y5711209D01*
X50398118Y5851092D01*
X50374038Y5892800D01*
X51371574Y5892800D01*
X51357635Y5980807D01*
X51286599Y6199433D01*
X51286596Y6199439D01*
X51182228Y6404273D01*
X51047104Y6590255D01*
X51047102Y6590258D01*
X50884557Y6752803D01*
X50884554Y6752805D01*
X50810574Y6806555D01*
X50767220Y6862777D01*
X50761145Y6933513D01*
X50794276Y6996305D01*
X50810565Y7010421D01*
X50884878Y7064411D01*
X51047489Y7227022D01*
X51182660Y7413069D01*
X51287062Y7617971D01*
X51358126Y7836682D01*
X51394100Y8063817D01*
X51394100Y8293783D01*
X51358126Y8520918D01*
X51287062Y8739629D01*
X51182660Y8944531D01*
X51047489Y9130578D01*
X51047486Y9130581D01*
X51047484Y9130584D01*
X50884883Y9293185D01*
X50884880Y9293187D01*
X50884878Y9293189D01*
X50771834Y9375320D01*
X50696039Y9430389D01*
X50652685Y9486611D01*
X50644100Y9532325D01*
X50644100Y11723500D01*
X50664102Y11791621D01*
X50717758Y11838114D01*
X50770100Y11849500D01*
X50784232Y11849500D01*
X50784238Y11849500D01*
X50784245Y11849501D01*
X50784249Y11849501D01*
X50844796Y11856010D01*
X50844799Y11856011D01*
X50844801Y11856011D01*
X50981804Y11907111D01*
X50985875Y11910158D01*
X51098861Y11994739D01*
X51186487Y12111793D01*
X51186487Y12111794D01*
X51186489Y12111796D01*
X51237589Y12248799D01*
X51238112Y12253658D01*
X51244099Y12309351D01*
X51244100Y12309368D01*
X51244100Y12323500D01*
X51264102Y12391621D01*
X51317758Y12438114D01*
X51370100Y12449500D01*
X56869106Y12449500D01*
X57015646Y12478649D01*
X57153684Y12535826D01*
X57277916Y12618835D01*
X57383565Y12724484D01*
X57466574Y12848716D01*
X57523751Y12986754D01*
X57552900Y13133294D01*
X57552900Y32831600D01*
X59136569Y32831600D01*
X59156265Y32568774D01*
X59156266Y32568770D01*
X59214911Y32311825D01*
X59311202Y32066480D01*
X59311205Y32066472D01*
X59442982Y31838228D01*
X59442984Y31838225D01*
X59442985Y31838224D01*
X59607314Y31632162D01*
X59800519Y31452894D01*
X59800525Y31452890D01*
X60018275Y31304430D01*
X60018279Y31304428D01*
X60018285Y31304424D01*
X60255746Y31190068D01*
X60255749Y31190068D01*
X60255754Y31190065D01*
X60507589Y31112385D01*
X60507591Y31112385D01*
X60507600Y31112382D01*
X60768219Y31073100D01*
X60768223Y31073100D01*
X61031777Y31073100D01*
X61031781Y31073100D01*
X61292400Y31112382D01*
X61292410Y31112385D01*
X61544245Y31190065D01*
X61544247Y31190066D01*
X61544254Y31190068D01*
X61781716Y31304424D01*
X61999481Y31452894D01*
X62192686Y31632162D01*
X62357015Y31838224D01*
X62488796Y32066476D01*
X62585087Y32311820D01*
X62643735Y32568774D01*
X62663431Y32831600D01*
X62643735Y33094426D01*
X62585087Y33351380D01*
X62488796Y33596724D01*
X62488795Y33596725D01*
X62488794Y33596729D01*
X62357017Y33824973D01*
X62357015Y33824976D01*
X62192686Y34031038D01*
X61999481Y34210306D01*
X61999474Y34210311D01*
X61781725Y34358771D01*
X61781718Y34358775D01*
X61544257Y34473131D01*
X61544245Y34473136D01*
X61292410Y34550816D01*
X61292402Y34550818D01*
X61292400Y34550818D01*
X61031781Y34590100D01*
X60768219Y34590100D01*
X60507600Y34550818D01*
X60507598Y34550818D01*
X60507589Y34550816D01*
X60255754Y34473136D01*
X60255742Y34473131D01*
X60018283Y34358775D01*
X60018275Y34358771D01*
X59800525Y34210311D01*
X59800520Y34210307D01*
X59607315Y34031039D01*
X59442982Y33824973D01*
X59311205Y33596729D01*
X59311202Y33596721D01*
X59214911Y33351376D01*
X59156266Y33094431D01*
X59156265Y33094426D01*
X59136569Y32831600D01*
X57552900Y32831600D01*
X57552900Y35583906D01*
X57523751Y35730446D01*
X57466574Y35868484D01*
X57383565Y35992716D01*
X57277916Y36098365D01*
X57153684Y36181374D01*
X57072822Y36214868D01*
X57015649Y36238550D01*
X57015646Y36238551D01*
X56869109Y36267700D01*
X56869106Y36267700D01*
X41679906Y36267700D01*
X29084494Y36267700D01*
X29084488Y36267700D01*
X29011224Y36253127D01*
X29011224Y36253126D01*
X28937953Y36238551D01*
X28937951Y36238551D01*
X28937950Y36238550D01*
X28937949Y36238550D01*
X28880776Y36214868D01*
X28799916Y36181374D01*
X28799915Y36181373D01*
X28675685Y36098366D01*
X28675679Y36098361D01*
X21779324Y29202005D01*
X21717012Y29167979D01*
X21690229Y29165100D01*
X11965876Y29165100D01*
X11897755Y29185102D01*
X11863939Y29217040D01*
X11815267Y29284032D01*
X11669635Y29429664D01*
X11669632Y29429666D01*
X11669630Y29429668D01*
X11503003Y29550729D01*
X11319490Y29644234D01*
X11319487Y29644235D01*
X11319485Y29644236D01*
X11123612Y29707879D01*
X11123610Y29707880D01*
X11123608Y29707880D01*
X10920181Y29740100D01*
X10314219Y29740100D01*
X10110792Y29707880D01*
X10110790Y29707880D01*
X10110787Y29707879D01*
X9914914Y29644236D01*
X9914908Y29644233D01*
X9731393Y29550727D01*
X9564767Y29429666D01*
X9564764Y29429664D01*
X9419136Y29284036D01*
X9419134Y29284033D01*
X9298073Y29117407D01*
X9204567Y28933892D01*
X9204564Y28933886D01*
X9140921Y28738013D01*
X9140920Y28738010D01*
X9140920Y28738008D01*
X9108700Y28534581D01*
X9108700Y28328619D01*
X9140920Y28125192D01*
X9204566Y27929310D01*
X9298071Y27745797D01*
X9419132Y27579170D01*
X9419134Y27579168D01*
X9419136Y27579165D01*
X9564764Y27433537D01*
X9564767Y27433535D01*
X9564770Y27433532D01*
X9731397Y27312471D01*
X9807711Y27273587D01*
X9859326Y27224840D01*
X9876392Y27155925D01*
X9853492Y27088724D01*
X9807713Y27049055D01*
X9731655Y27010301D01*
X9565092Y26889285D01*
X9565089Y26889283D01*
X9419517Y26743711D01*
X9419515Y26743708D01*
X9298500Y26577146D01*
X9205029Y26393700D01*
X9205026Y26393694D01*
X9141408Y26197896D01*
X9133126Y26145600D01*
X10305514Y26145600D01*
X10297120Y26137206D01*
X10244459Y26045994D01*
X10217200Y25944261D01*
X10217200Y25838939D01*
X10244459Y25737206D01*
X10297120Y25645994D01*
X10305514Y25637600D01*
X9133126Y25637600D01*
X9141408Y25585305D01*
X9205026Y25389507D01*
X9205029Y25389501D01*
X9298500Y25206055D01*
X9419515Y25039493D01*
X9419517Y25039490D01*
X9565089Y24893918D01*
X9565092Y24893916D01*
X9731655Y24772900D01*
X9807711Y24734147D01*
X9859326Y24685398D01*
X9876392Y24616483D01*
X9853491Y24549282D01*
X9807711Y24509613D01*
X9731393Y24470728D01*
X9564767Y24349666D01*
X9564764Y24349664D01*
X9419136Y24204036D01*
X9419134Y24204033D01*
X9298073Y24037407D01*
X9204567Y23853892D01*
X9204564Y23853886D01*
X9140921Y23658013D01*
X9140920Y23658010D01*
X9140920Y23658008D01*
X9108700Y23454581D01*
X9108700Y23248619D01*
X9140920Y23045192D01*
X9204566Y22849310D01*
X9298071Y22665797D01*
X9419132Y22499170D01*
X9419134Y22499168D01*
X9419136Y22499165D01*
X9564764Y22353537D01*
X9564767Y22353535D01*
X9564770Y22353532D01*
X9731397Y22232471D01*
X9807162Y22193867D01*
X9858777Y22145118D01*
X9875843Y22076203D01*
X9852942Y22009002D01*
X9807163Y21969334D01*
X9738233Y21934213D01*
X9731393Y21930727D01*
X9564767Y21809666D01*
X9564764Y21809664D01*
X9419136Y21664036D01*
X9419134Y21664033D01*
X9298073Y21497407D01*
X9204567Y21313892D01*
X9204564Y21313886D01*
X9140921Y21118013D01*
X9140920Y21118010D01*
X9140920Y21118008D01*
X9108700Y20914581D01*
X9108700Y20708619D01*
X9129224Y20579037D01*
X9140921Y20505188D01*
X9191312Y20350100D01*
X9204566Y20309310D01*
X9298071Y20125797D01*
X9419132Y19959170D01*
X9419134Y19959168D01*
X9419136Y19959165D01*
X9564764Y19813537D01*
X9564767Y19813535D01*
X9564770Y19813532D01*
X9731397Y19692471D01*
X9807162Y19653867D01*
X9858777Y19605118D01*
X9875843Y19536203D01*
X9852942Y19469002D01*
X9807163Y19429334D01*
X9738233Y19394213D01*
X9731393Y19390727D01*
X9564767Y19269666D01*
X9564764Y19269664D01*
X9419136Y19124036D01*
X9419134Y19124033D01*
X9298073Y18957407D01*
X9204567Y18773892D01*
X9204564Y18773886D01*
X9140921Y18578013D01*
X9140920Y18578010D01*
X9140920Y18578008D01*
X9108700Y18374581D01*
X9108700Y18168619D01*
X9140920Y17965192D01*
X9204566Y17769310D01*
X9298071Y17585797D01*
X9419132Y17419170D01*
X9419134Y17419168D01*
X9419136Y17419165D01*
X9564764Y17273537D01*
X9564767Y17273535D01*
X9564770Y17273532D01*
X9731397Y17152471D01*
X9807162Y17113867D01*
X9858777Y17065118D01*
X9875843Y16996203D01*
X9852942Y16929002D01*
X9807163Y16889334D01*
X9738233Y16854213D01*
X9731393Y16850727D01*
X9564767Y16729666D01*
X9564764Y16729664D01*
X9419136Y16584036D01*
X9419134Y16584033D01*
X9298073Y16417407D01*
X9204567Y16233892D01*
X9204564Y16233886D01*
X9140921Y16038013D01*
X9140920Y16038010D01*
X9140920Y16038008D01*
X9108700Y15834581D01*
X9108700Y15628619D01*
X9113309Y15599521D01*
X9140921Y15425188D01*
X9149121Y15399950D01*
X9204566Y15229310D01*
X9298071Y15045797D01*
X9419132Y14879170D01*
X9419134Y14879168D01*
X9419136Y14879165D01*
X9564764Y14733537D01*
X9564767Y14733535D01*
X9564770Y14733532D01*
X9731397Y14612471D01*
X9807162Y14573867D01*
X9858777Y14525118D01*
X9875843Y14456203D01*
X9852942Y14389002D01*
X9807163Y14349334D01*
X9738233Y14314213D01*
X9731393Y14310727D01*
X9564767Y14189666D01*
X9564764Y14189664D01*
X9419136Y14044036D01*
X9419134Y14044033D01*
X9298073Y13877407D01*
X9204567Y13693892D01*
X9204564Y13693886D01*
X9140921Y13498013D01*
X9140920Y13498010D01*
X9140920Y13498008D01*
X9108700Y13294581D01*
X9108700Y13088619D01*
X9125330Y12983625D01*
X9140921Y12885188D01*
X9193135Y12724489D01*
X9204566Y12689310D01*
X9298071Y12505797D01*
X9419132Y12339170D01*
X9419134Y12339168D01*
X9419136Y12339165D01*
X9564764Y12193537D01*
X9564767Y12193535D01*
X9564770Y12193532D01*
X9731397Y12072471D01*
X9807162Y12033867D01*
X9858777Y11985118D01*
X9875843Y11916203D01*
X9852942Y11849002D01*
X9807163Y11809334D01*
X9776555Y11793739D01*
X9731390Y11770726D01*
X9564776Y11649675D01*
X9490947Y11575846D01*
X9428634Y11541821D01*
X9401270Y11538943D01*
X6507151Y11552321D01*
X6507112Y11552322D01*
X6507064Y11552322D01*
X6503200Y11552339D01*
X6499161Y11552327D01*
X6499146Y11552326D01*
X6499145Y11552327D01*
X3688112Y11543292D01*
X1060439Y11534846D01*
X1048095Y11535414D01*
X949233Y11544851D01*
X871053Y11552315D01*
X846762Y11557077D01*
X682437Y11606464D01*
X659545Y11615883D01*
X508044Y11696446D01*
X487434Y11710160D01*
X354609Y11818789D01*
X337080Y11836266D01*
X228057Y11968765D01*
X214282Y11989333D01*
X211676Y11994198D01*
X133266Y12140597D01*
X123780Y12163459D01*
X73903Y12327637D01*
X69070Y12351906D01*
X51641Y12528895D01*
X51036Y12541265D01*
X51039Y12552732D01*
X53031Y21043800D01*
X2518500Y21043800D01*
X2518500Y20919401D01*
X2542768Y20797398D01*
X2590372Y20682472D01*
X2636549Y20613363D01*
X2659481Y20579043D01*
X2659486Y20579037D01*
X2747436Y20491087D01*
X2747442Y20491082D01*
X2850872Y20421972D01*
X2965798Y20374368D01*
X3087803Y20350100D01*
X3087804Y20350100D01*
X3212196Y20350100D01*
X3212197Y20350100D01*
X3334202Y20374368D01*
X3449128Y20421972D01*
X3552558Y20491082D01*
X3640518Y20579042D01*
X3709628Y20682472D01*
X3757232Y20797398D01*
X3781500Y20919403D01*
X3781500Y21043797D01*
X3757232Y21165802D01*
X3709628Y21280728D01*
X3640518Y21384158D01*
X3640513Y21384164D01*
X3552563Y21472114D01*
X3552557Y21472119D01*
X3514710Y21497407D01*
X3449128Y21541228D01*
X3334202Y21588832D01*
X3286080Y21598404D01*
X3212199Y21613100D01*
X3212197Y21613100D01*
X3087803Y21613100D01*
X3087800Y21613100D01*
X2965797Y21588832D01*
X2965792Y21588830D01*
X2850872Y21541228D01*
X2747442Y21472119D01*
X2747436Y21472114D01*
X2659486Y21384164D01*
X2659481Y21384158D01*
X2590372Y21280728D01*
X2542770Y21165808D01*
X2542768Y21165803D01*
X2518500Y21043800D01*
X53031Y21043800D01*
X53993Y25143800D01*
X6618500Y25143800D01*
X6618500Y25019401D01*
X6642768Y24897398D01*
X6690372Y24782472D01*
X6722662Y24734147D01*
X6759481Y24679043D01*
X6759486Y24679037D01*
X6847436Y24591087D01*
X6847442Y24591082D01*
X6950872Y24521972D01*
X7065798Y24474368D01*
X7187803Y24450100D01*
X7187804Y24450100D01*
X7312196Y24450100D01*
X7312197Y24450100D01*
X7434202Y24474368D01*
X7549128Y24521972D01*
X7652558Y24591082D01*
X7740518Y24679042D01*
X7809628Y24782472D01*
X7857232Y24897398D01*
X7881500Y25019403D01*
X7881500Y25143797D01*
X7857232Y25265802D01*
X7809628Y25380728D01*
X7740518Y25484158D01*
X7740513Y25484164D01*
X7652563Y25572114D01*
X7652557Y25572119D01*
X7618237Y25595051D01*
X7549128Y25641228D01*
X7434202Y25688832D01*
X7312199Y25713100D01*
X7312197Y25713100D01*
X7187803Y25713100D01*
X7187800Y25713100D01*
X7065797Y25688832D01*
X7065792Y25688830D01*
X6950872Y25641228D01*
X6847442Y25572119D01*
X6847436Y25572114D01*
X6759486Y25484164D01*
X6759481Y25484158D01*
X6690372Y25380728D01*
X6642770Y25265808D01*
X6642768Y25265803D01*
X6618500Y25143800D01*
X53993Y25143800D01*
X55797Y32831600D01*
X1239717Y32831600D01*
X1259413Y32568774D01*
X1259414Y32568770D01*
X1318059Y32311825D01*
X1414350Y32066480D01*
X1414353Y32066472D01*
X1546130Y31838228D01*
X1546132Y31838225D01*
X1546133Y31838224D01*
X1710462Y31632162D01*
X1903667Y31452894D01*
X1903673Y31452890D01*
X2121423Y31304430D01*
X2121427Y31304428D01*
X2121433Y31304424D01*
X2358894Y31190068D01*
X2358897Y31190068D01*
X2358902Y31190065D01*
X2610737Y31112385D01*
X2610739Y31112385D01*
X2610748Y31112382D01*
X2871367Y31073100D01*
X2871371Y31073100D01*
X3134925Y31073100D01*
X3134929Y31073100D01*
X3395548Y31112382D01*
X3395558Y31112385D01*
X3647393Y31190065D01*
X3647395Y31190066D01*
X3647402Y31190068D01*
X3884864Y31304424D01*
X4102629Y31452894D01*
X4295834Y31632162D01*
X4460163Y31838224D01*
X4591944Y32066476D01*
X4688235Y32311820D01*
X4746883Y32568774D01*
X4766579Y32831600D01*
X4746883Y33094426D01*
X4688235Y33351380D01*
X4591944Y33596724D01*
X4591943Y33596725D01*
X4591942Y33596729D01*
X4460165Y33824973D01*
X4460163Y33824976D01*
X4295834Y34031038D01*
X4102629Y34210306D01*
X4102622Y34210311D01*
X3884873Y34358771D01*
X3884866Y34358775D01*
X3647405Y34473131D01*
X3647393Y34473136D01*
X3395558Y34550816D01*
X3395550Y34550818D01*
X3395548Y34550818D01*
X3134929Y34590100D01*
X2871367Y34590100D01*
X2610748Y34550818D01*
X2610746Y34550818D01*
X2610737Y34550816D01*
X2358902Y34473136D01*
X2358890Y34473131D01*
X2121431Y34358775D01*
X2121423Y34358771D01*
X1903673Y34210311D01*
X1903668Y34210307D01*
X1710463Y34031039D01*
X1546130Y33824973D01*
X1414353Y33596729D01*
X1414350Y33596721D01*
X1318059Y33351376D01*
X1259414Y33094431D01*
X1259413Y33094426D01*
X1239717Y32831600D01*
X55797Y32831600D01*
X56511Y35874854D01*
X57119Y35887179D01*
X74550Y36063755D01*
X79368Y36087955D01*
X129102Y36251791D01*
X138543Y36274573D01*
X219279Y36425561D01*
X232994Y36446078D01*
X341618Y36578401D01*
X359078Y36595858D01*
X491428Y36704452D01*
X511957Y36718166D01*
X662945Y36798857D01*
X685748Y36808301D01*
X849591Y36857994D01*
X873781Y36862806D01*
X1050369Y36880196D01*
X1062697Y36880800D01*
X63466345Y36880800D01*
X63478684Y36880194D01*
G37*
%TD.AperFunction*%
%TD*%
M02*
